{"glyphs":{"0":{"ha":926,"x_min":67,"x_max":860,"o":"m 464 -11 q 260 47 350 -11 q 119 217 171 106 q 67 486 67 328 q 119 756 67 644 q 260 925 171 867 q 464 983 350 983 q 667 925 576 983 q 808 756 757 867 q 860 486 860 644 q 808 217 860 328 q 667 47 757 106 q 464 -11 576 -11 m 464 113 q 598 154 540 113 q 688 279 656 196 q 721 486 721 363 q 688 693 721 610 q 598 818 656 776 q 464 860 540 860 q 329 818 388 860 q 238 693 271 776 q 206 486 206 610 q 238 279 206 363 q 329 154 271 196 q 464 113 388 113 z "},"1":{"ha":514,"x_min":11,"x_max":368,"o":"m 231 0 l 231 917 l 290 851 l 11 851 l 11 972 l 368 972 l 368 0 l 231 0 z "},"2":{"ha":797,"x_min":19,"x_max":750,"o":"m 51 0 l 51 94 l 447 476 q 526 565 500 526 q 560 635 551 603 q 569 699 569 668 q 517 817 569 774 q 363 860 464 860 q 222 834 285 860 q 114 754 160 808 l 19 836 q 169 945 75 907 q 375 983 263 983 q 551 951 476 983 q 667 857 626 918 q 708 713 708 796 q 696 619 708 665 q 649 522 683 574 q 549 407 614 471 l 196 67 l 163 121 l 750 121 l 750 0 l 51 0 z "},"3":{"ha":794,"x_min":7,"x_max":732,"o":"m 364 -11 q 165 21 261 -11 q 7 107 68 53 l 71 217 q 197 142 119 171 q 364 113 275 113 q 533 159 472 113 q 593 285 593 206 q 535 408 593 361 q 353 454 478 454 l 275 454 l 275 551 l 564 907 l 583 851 l 51 851 l 51 972 l 693 972 l 693 878 l 406 524 l 333 567 l 379 567 q 644 488 556 567 q 732 286 732 408 q 692 136 732 204 q 570 28 651 68 q 364 -11 489 -11 z "},"4":{"ha":929,"x_min":53,"x_max":913,"o":"m 53 239 l 53 336 l 550 972 l 700 972 l 207 336 l 136 358 l 913 358 l 913 239 l 53 239 m 593 0 l 593 239 l 597 358 l 597 569 l 728 569 l 728 0 l 593 0 z "},"5":{"ha":797,"x_min":24,"x_max":749,"o":"m 381 -11 q 181 21 278 -11 q 24 107 85 53 l 88 217 q 214 142 136 171 q 379 113 292 113 q 550 160 490 113 q 610 286 610 207 q 583 381 610 340 q 492 442 557 421 q 315 464 428 464 l 94 464 l 146 972 l 694 972 l 694 851 l 197 851 l 269 919 l 229 518 l 157 585 l 344 585 q 579 547 490 585 q 708 444 668 510 q 749 292 749 378 q 708 140 749 208 q 587 30 668 71 q 381 -11 506 -11 z "},"6":{"ha":857,"x_min":67,"x_max":819,"o":"m 475 -11 q 254 46 346 -11 q 115 210 163 103 q 67 474 67 318 q 125 753 67 639 q 288 925 183 867 q 526 983 392 983 q 659 969 596 983 q 768 926 722 956 l 715 818 q 630 854 678 844 q 529 864 582 864 q 293 772 381 864 q 206 497 206 679 q 208 428 206 468 q 222 349 211 388 l 175 396 q 241 503 196 460 q 349 569 286 547 q 486 590 413 590 q 658 554 583 590 q 776 452 733 518 q 819 296 819 386 q 774 133 819 203 q 650 26 728 64 q 475 -11 572 -11 m 469 101 q 581 125 533 101 q 657 191 629 149 q 685 290 685 233 q 625 427 685 376 q 463 478 565 478 q 346 453 396 478 q 267 385 296 428 q 239 289 239 343 q 265 197 239 239 q 343 128 292 154 q 469 101 394 101 z "},"7":{"ha":831,"x_min":42,"x_max":775,"o":"m 235 0 l 647 914 l 683 851 l 106 851 l 175 919 l 175 678 l 42 678 l 42 972 l 775 972 l 775 878 l 382 0 l 235 0 z "},"8":{"ha":894,"x_min":61,"x_max":833,"o":"m 446 -11 q 242 24 328 -11 q 108 123 156 58 q 61 275 61 188 q 106 422 61 361 q 238 513 151 482 q 446 544 324 544 q 655 513 568 544 q 788 421 742 482 q 833 275 833 360 q 786 123 833 188 q 651 24 739 58 q 446 -11 564 -11 m 446 101 q 628 149 563 101 q 694 279 694 197 q 628 406 694 360 q 446 453 563 453 q 265 406 331 453 q 200 279 200 360 q 265 149 200 197 q 446 101 331 101 m 446 558 q 605 600 547 558 q 663 714 663 642 q 603 829 663 788 q 446 871 543 871 q 291 829 349 871 q 233 714 233 788 q 290 600 233 642 q 446 558 346 558 m 446 469 q 257 499 335 469 q 138 585 179 529 q 96 719 96 642 q 140 860 96 801 q 263 951 183 919 q 446 983 342 983 q 631 951 551 983 q 754 860 710 919 q 799 719 799 801 q 757 585 799 642 q 636 499 715 529 q 446 469 557 469 z "},"9":{"ha":857,"x_min":39,"x_max":790,"o":"m 331 -11 q 199 3 263 -11 q 89 46 136 17 l 142 154 q 228 119 181 129 q 329 108 276 108 q 564 201 476 108 q 651 475 651 293 q 649 544 651 504 q 636 624 646 585 l 682 576 q 617 469 663 513 q 509 403 572 425 q 371 382 446 382 q 200 418 275 382 q 82 520 125 454 q 39 676 39 586 q 84 840 39 771 q 208 946 129 908 q 382 983 286 983 q 605 926 514 983 q 743 762 696 869 q 790 499 790 654 q 732 219 790 333 q 571 47 674 106 q 331 -11 468 -11 m 394 494 q 512 519 461 494 q 591 588 563 544 q 619 683 619 631 q 593 776 619 735 q 515 844 567 818 q 388 871 464 871 q 276 847 325 871 q 201 782 228 824 q 174 682 174 740 q 233 545 174 596 q 394 494 293 494 z "},"A":{"ha":1017,"x_min":-1,"x_max":1018,"o":"m -1 0 l 439 972 l 576 972 l 1018 0 l 872 0 l 479 894 l 535 894 l 142 0 l -1 0 m 186 243 l 224 354 l 771 354 l 811 243 l 186 243 z "},"Á":{"ha":1017,"x_min":-1,"x_max":1018,"o":"m -1 0 l 439 972 l 576 972 l 1018 0 l 872 0 l 479 894 l 535 894 l 142 0 l -1 0 m 186 243 l 224 354 l 771 354 l 811 243 l 186 243 m 404 1051 l 593 1232 l 763 1232 l 529 1051 l 404 1051 z "},"Ă":{"ha":1017,"x_min":-1,"x_max":1018,"o":"m -1 0 l 439 972 l 576 972 l 1018 0 l 872 0 l 479 894 l 535 894 l 142 0 l -1 0 m 186 243 l 224 354 l 771 354 l 811 243 l 186 243 m 508 1057 q 350 1108 414 1057 q 283 1246 286 1158 l 374 1246 q 415 1165 376 1194 q 508 1135 454 1135 q 602 1165 563 1135 q 643 1246 642 1194 l 733 1246 q 667 1108 731 1158 q 508 1057 603 1057 z "},"Ắ":{"ha":1017,"x_min":-1,"x_max":1018,"o":"m -1 0 l 439 972 l 576 972 l 1018 0 l 872 0 l 479 894 l 535 894 l 142 0 l -1 0 m 186 243 l 224 354 l 771 354 l 811 243 l 186 243 m 508 1057 q 353 1096 415 1057 q 283 1204 292 1135 l 372 1204 q 415 1151 378 1171 q 508 1131 453 1131 q 601 1151 564 1131 q 644 1204 639 1171 l 733 1204 q 663 1096 725 1135 q 508 1057 601 1057 m 413 1224 l 576 1381 l 728 1381 l 522 1224 l 413 1224 z "},"Ặ":{"ha":1017,"x_min":-1,"x_max":1018,"o":"m -1 0 l 439 972 l 576 972 l 1018 0 l 872 0 l 479 894 l 535 894 l 142 0 l -1 0 m 186 243 l 224 354 l 771 354 l 811 243 l 186 243 m 508 -267 q 450 -243 474 -267 q 426 -185 426 -219 q 450 -126 426 -150 q 508 -103 474 -103 q 567 -126 543 -103 q 590 -185 590 -150 q 567 -243 590 -219 q 508 -267 543 -267 m 508 1057 q 350 1108 414 1057 q 283 1246 286 1158 l 374 1246 q 415 1165 376 1194 q 508 1135 454 1135 q 602 1165 563 1135 q 643 1246 642 1194 l 733 1246 q 667 1108 731 1158 q 508 1057 603 1057 z "},"Ằ":{"ha":1017,"x_min":-1,"x_max":1018,"o":"m -1 0 l 439 972 l 576 972 l 1018 0 l 872 0 l 479 894 l 535 894 l 142 0 l -1 0 m 186 243 l 224 354 l 771 354 l 811 243 l 186 243 m 508 1057 q 353 1096 415 1057 q 283 1204 292 1135 l 372 1204 q 415 1151 378 1171 q 508 1131 453 1131 q 601 1151 564 1131 q 644 1204 639 1171 l 733 1204 q 663 1096 725 1135 q 508 1057 601 1057 m 496 1224 l 290 1381 l 442 1381 l 604 1224 l 496 1224 z "},"Ẳ":{"ha":1017,"x_min":-1,"x_max":1018,"o":"m -1 0 l 439 972 l 576 972 l 1018 0 l 872 0 l 479 894 l 535 894 l 142 0 l -1 0 m 186 243 l 224 354 l 771 354 l 811 243 l 186 243 m 508 1057 q 353 1096 415 1057 q 283 1204 292 1135 l 372 1204 q 415 1151 378 1171 q 508 1131 453 1131 q 601 1151 564 1131 q 644 1204 639 1171 l 733 1204 q 663 1096 725 1135 q 508 1057 601 1057 m 531 1185 l 494 1225 q 536 1256 522 1239 q 550 1292 550 1274 q 535 1323 550 1311 q 497 1335 521 1335 q 438 1318 468 1335 l 413 1369 q 458 1389 432 1382 q 508 1396 483 1396 q 588 1369 560 1396 q 617 1299 617 1342 q 593 1231 617 1261 q 531 1185 569 1200 z "},"Ẵ":{"ha":1017,"x_min":-1,"x_max":1018,"o":"m -1 0 l 439 972 l 576 972 l 1018 0 l 872 0 l 479 894 l 535 894 l 142 0 l -1 0 m 186 243 l 224 354 l 771 354 l 811 243 l 186 243 m 508 1057 q 353 1096 415 1057 q 283 1204 292 1135 l 372 1204 q 415 1151 378 1171 q 508 1131 453 1131 q 601 1151 564 1131 q 644 1204 639 1171 l 733 1204 q 663 1096 725 1135 q 508 1057 601 1057 m 606 1258 q 546 1269 572 1258 q 498 1296 519 1281 q 457 1322 476 1311 q 418 1333 438 1333 q 371 1315 386 1333 q 354 1264 356 1297 l 279 1264 q 317 1369 281 1332 q 413 1407 353 1407 q 488 1388 457 1407 q 547 1351 519 1369 q 600 1332 574 1332 q 647 1350 631 1332 q 664 1400 663 1368 l 738 1400 q 701 1297 736 1335 q 606 1258 665 1258 z "},"Ǎ":{"ha":1017,"x_min":-1,"x_max":1018,"o":"m -1 0 l 439 972 l 576 972 l 1018 0 l 872 0 l 479 894 l 535 894 l 142 0 l -1 0 m 186 243 l 224 354 l 771 354 l 811 243 l 186 243 m 444 1051 l 260 1232 l 381 1232 l 564 1081 l 453 1081 l 636 1232 l 757 1232 l 572 1051 l 444 1051 z "},"Â":{"ha":1017,"x_min":-1,"x_max":1018,"o":"m -1 0 l 439 972 l 576 972 l 1018 0 l 872 0 l 479 894 l 535 894 l 142 0 l -1 0 m 186 243 l 224 354 l 771 354 l 811 243 l 186 243 m 260 1051 l 444 1232 l 572 1232 l 757 1051 l 636 1051 l 453 1204 l 564 1204 l 381 1051 l 260 1051 z "},"Ấ":{"ha":1017,"x_min":-1,"x_max":1018,"o":"m -1 0 l 439 972 l 576 972 l 1018 0 l 872 0 l 479 894 l 535 894 l 142 0 l -1 0 m 186 243 l 224 354 l 771 354 l 811 243 l 186 243 m 260 1051 l 446 1190 l 571 1190 l 757 1051 l 635 1051 l 453 1164 l 564 1164 l 382 1051 l 260 1051 m 646 1174 l 810 1331 l 961 1331 l 756 1174 l 646 1174 z "},"Ậ":{"ha":1017,"x_min":-1,"x_max":1018,"o":"m -1 0 l 439 972 l 576 972 l 1018 0 l 872 0 l 479 894 l 535 894 l 142 0 l -1 0 m 186 243 l 224 354 l 771 354 l 811 243 l 186 243 m 508 -267 q 450 -243 474 -267 q 426 -185 426 -219 q 450 -126 426 -150 q 508 -103 474 -103 q 567 -126 543 -103 q 590 -185 590 -150 q 567 -243 590 -219 q 508 -267 543 -267 m 260 1051 l 444 1232 l 572 1232 l 757 1051 l 636 1051 l 453 1204 l 564 1204 l 381 1051 l 260 1051 z "},"Ầ":{"ha":1017,"x_min":-1,"x_max":1018,"o":"m -1 0 l 439 972 l 576 972 l 1018 0 l 872 0 l 479 894 l 535 894 l 142 0 l -1 0 m 186 243 l 224 354 l 771 354 l 811 243 l 186 243 m 260 1051 l 446 1190 l 571 1190 l 757 1051 l 635 1051 l 453 1164 l 564 1164 l 382 1051 l 260 1051 m 729 1174 l 524 1331 l 675 1331 l 838 1174 l 729 1174 z "},"Ẩ":{"ha":1017,"x_min":-1,"x_max":1018,"o":"m -1 0 l 439 972 l 576 972 l 1018 0 l 872 0 l 479 894 l 535 894 l 142 0 l -1 0 m 186 243 l 224 354 l 771 354 l 811 243 l 186 243 m 260 1051 l 446 1190 l 571 1190 l 757 1051 l 635 1051 l 453 1164 l 564 1164 l 382 1051 l 260 1051 m 711 1149 l 675 1189 q 717 1220 703 1203 q 731 1256 731 1238 q 716 1287 731 1275 q 678 1299 701 1299 q 618 1282 649 1299 l 593 1333 q 638 1353 613 1346 q 689 1360 664 1360 q 769 1333 740 1360 q 797 1263 797 1306 q 774 1194 797 1225 q 711 1149 750 1164 z "},"Ẫ":{"ha":1017,"x_min":-1,"x_max":1018,"o":"m -1 0 l 439 972 l 576 972 l 1018 0 l 872 0 l 479 894 l 535 894 l 142 0 l -1 0 m 186 243 l 224 354 l 771 354 l 811 243 l 186 243 m 260 1051 l 446 1190 l 571 1190 l 757 1051 l 635 1051 l 453 1164 l 564 1164 l 382 1051 l 260 1051 m 606 1240 q 546 1251 572 1240 q 498 1278 519 1263 q 457 1304 476 1293 q 418 1315 438 1315 q 371 1297 386 1315 q 354 1246 356 1279 l 279 1246 q 317 1351 281 1314 q 413 1389 353 1389 q 488 1370 457 1389 q 547 1333 519 1351 q 600 1314 574 1314 q 647 1332 631 1314 q 664 1382 663 1350 l 738 1382 q 701 1278 736 1317 q 606 1240 665 1240 z "},"Ȁ":{"ha":1017,"x_min":-1,"x_max":1018,"o":"m -1 0 l 439 972 l 576 972 l 1018 0 l 872 0 l 479 894 l 535 894 l 142 0 l -1 0 m 186 243 l 224 354 l 771 354 l 811 243 l 186 243 m 574 1051 l 419 1232 l 561 1232 l 686 1051 l 574 1051 m 331 1051 l 179 1232 l 319 1232 l 443 1051 l 331 1051 z "},"Ä":{"ha":1017,"x_min":-1,"x_max":1018,"o":"m -1 0 l 439 972 l 576 972 l 1018 0 l 872 0 l 479 894 l 535 894 l 142 0 l -1 0 m 186 243 l 224 354 l 771 354 l 811 243 l 186 243 m 638 1075 q 588 1095 608 1075 q 567 1146 567 1115 q 588 1198 567 1178 q 638 1218 608 1218 q 688 1198 667 1218 q 708 1146 708 1178 q 688 1095 708 1115 q 638 1075 667 1075 m 379 1075 q 329 1095 350 1075 q 308 1146 308 1115 q 329 1198 308 1178 q 379 1218 350 1218 q 429 1198 408 1218 q 450 1146 450 1178 q 429 1095 450 1115 q 379 1075 408 1075 z "},"Ǟ":{"ha":1017,"x_min":-1,"x_max":1018,"o":"m -1 0 l 439 972 l 576 972 l 1018 0 l 872 0 l 479 894 l 535 894 l 142 0 l -1 0 m 186 243 l 224 354 l 771 354 l 811 243 l 186 243 m 635 1058 q 587 1078 607 1058 q 567 1128 567 1099 q 587 1177 567 1157 q 635 1197 607 1197 q 684 1177 664 1197 q 704 1128 704 1157 q 684 1078 704 1099 q 635 1058 664 1058 m 383 1058 q 334 1078 354 1058 q 314 1128 314 1099 q 334 1177 314 1157 q 383 1197 354 1197 q 432 1177 413 1197 q 451 1128 451 1157 q 432 1078 451 1099 q 383 1058 413 1058 m 282 1290 l 282 1369 l 735 1369 l 735 1290 l 282 1290 z "},"Ȧ":{"ha":1017,"x_min":-1,"x_max":1018,"o":"m -1 0 l 439 972 l 576 972 l 1018 0 l 872 0 l 479 894 l 535 894 l 142 0 l -1 0 m 186 243 l 224 354 l 771 354 l 811 243 l 186 243 m 508 1076 q 450 1100 474 1076 q 426 1158 426 1124 q 450 1217 426 1193 q 508 1240 474 1240 q 567 1217 543 1240 q 590 1158 590 1193 q 567 1100 590 1124 q 508 1076 543 1076 z "},"Ạ":{"ha":1017,"x_min":-1,"x_max":1018,"o":"m -1 0 l 439 972 l 576 972 l 1018 0 l 872 0 l 479 894 l 535 894 l 142 0 l -1 0 m 186 243 l 224 354 l 771 354 l 811 243 l 186 243 m 508 -267 q 450 -243 474 -267 q 426 -185 426 -219 q 450 -126 426 -150 q 508 -103 474 -103 q 567 -126 543 -103 q 590 -185 590 -150 q 567 -243 590 -219 q 508 -267 543 -267 z "},"Ǡ":{"ha":1017,"x_min":-1,"x_max":1018,"o":"m -1 0 l 439 972 l 576 972 l 1018 0 l 872 0 l 479 894 l 535 894 l 142 0 l -1 0 m 186 243 l 224 354 l 771 354 l 811 243 l 186 243 m 508 1067 q 458 1087 479 1067 q 438 1139 438 1107 q 458 1190 438 1169 q 508 1210 479 1210 q 558 1190 538 1210 q 579 1139 579 1169 q 558 1087 579 1107 q 508 1067 538 1067 m 282 1290 l 282 1369 l 735 1369 l 735 1290 l 282 1290 z "},"À":{"ha":1017,"x_min":-1,"x_max":1018,"o":"m -1 0 l 439 972 l 576 972 l 1018 0 l 872 0 l 479 894 l 535 894 l 142 0 l -1 0 m 186 243 l 224 354 l 771 354 l 811 243 l 186 243 m 488 1051 l 254 1232 l 424 1232 l 613 1051 l 488 1051 z "},"Ả":{"ha":1017,"x_min":-1,"x_max":1018,"o":"m -1 0 l 439 972 l 576 972 l 1018 0 l 872 0 l 479 894 l 535 894 l 142 0 l -1 0 m 186 243 l 224 354 l 771 354 l 811 243 l 186 243 m 514 1014 l 468 1068 q 527 1110 508 1088 q 546 1161 546 1133 q 526 1208 546 1190 q 474 1226 507 1226 q 390 1200 431 1226 l 360 1263 q 420 1292 386 1282 q 486 1301 454 1301 q 560 1285 528 1301 q 610 1241 592 1269 q 628 1172 628 1213 q 600 1081 628 1121 q 514 1014 572 1042 z "},"Ȃ":{"ha":1017,"x_min":-1,"x_max":1018,"o":"m -1 0 l 439 972 l 576 972 l 1018 0 l 872 0 l 479 894 l 535 894 l 142 0 l -1 0 m 186 243 l 224 354 l 771 354 l 811 243 l 186 243 m 283 1051 q 350 1190 286 1139 q 508 1240 414 1240 q 667 1190 603 1240 q 733 1051 731 1139 l 643 1051 q 602 1133 642 1103 q 508 1163 563 1163 q 415 1133 454 1163 q 374 1051 376 1103 l 283 1051 z "},"Ɑ":{"ha":1243,"x_min":67,"x_max":1097,"o":"m 571 -10 q 372 26 464 -10 q 212 128 281 63 q 105 285 143 194 q 67 488 67 376 q 105 690 67 599 q 211 847 143 781 q 371 948 279 913 q 569 983 463 983 q 756 951 669 983 q 906 855 842 918 q 1006 699 971 792 q 1042 488 1042 607 q 1007 276 1042 368 q 908 120 972 183 q 758 24 844 57 q 571 -10 671 -10 m 585 114 q 776 160 692 114 q 910 292 861 207 q 960 488 960 376 q 910 683 960 600 q 776 814 861 767 q 585 861 692 861 q 392 814 478 861 q 256 683 306 767 q 207 488 207 600 q 256 292 207 376 q 391 160 306 207 q 585 114 476 114 m 964 0 l 964 289 l 976 490 l 957 692 l 957 972 l 1097 972 l 1097 0 l 964 0 z "},"Ā":{"ha":1017,"x_min":-1,"x_max":1018,"o":"m -1 0 l 439 972 l 576 972 l 1018 0 l 872 0 l 479 894 l 535 894 l 142 0 l -1 0 m 186 243 l 224 354 l 771 354 l 811 243 l 186 243 m 282 1100 l 282 1183 l 735 1183 l 735 1100 l 282 1100 z "},"Ą":{"ha":1017,"x_min":-1,"x_max":1049,"o":"m -1 0 l 439 972 l 576 972 l 1018 0 l 872 0 l 479 894 l 535 894 l 142 0 l -1 0 m 186 243 l 224 354 l 771 354 l 811 243 l 186 243 m 924 -311 q 801 -272 846 -311 q 757 -171 757 -233 q 776 -96 757 -133 q 839 -22 794 -58 q 956 44 883 14 l 1018 0 q 921 -54 957 -28 q 869 -107 885 -81 q 853 -161 853 -133 q 877 -215 853 -196 q 938 -233 901 -233 q 984 -226 961 -233 q 1024 -210 1007 -219 l 1049 -278 q 991 -302 1024 -293 q 924 -311 958 -311 z "},"Å":{"ha":1017,"x_min":-1,"x_max":1018,"o":"m -1 0 l 439 972 l 576 972 l 1018 0 l 872 0 l 479 894 l 535 894 l 142 0 l -1 0 m 186 243 l 224 354 l 771 354 l 811 243 l 186 243 m 507 1032 q 429 1053 464 1032 q 374 1107 394 1074 q 354 1182 354 1140 q 374 1258 354 1224 q 429 1314 394 1293 q 507 1335 464 1335 q 586 1314 551 1335 q 641 1258 621 1293 q 661 1182 661 1224 q 641 1107 661 1140 q 586 1053 621 1074 q 507 1032 551 1032 m 507 1090 q 573 1117 547 1090 q 599 1182 599 1143 q 573 1249 599 1222 q 507 1275 547 1275 q 442 1249 468 1275 q 417 1182 417 1224 q 442 1117 417 1143 q 507 1090 467 1090 z "},"Ǻ":{"ha":1017,"x_min":-1,"x_max":1018,"o":"m -1 0 l 439 972 l 576 972 l 1018 0 l 872 0 l 479 894 l 535 894 l 142 0 l -1 0 m 186 243 l 224 354 l 771 354 l 811 243 l 186 243 m 507 1032 q 429 1053 464 1032 q 374 1107 394 1074 q 354 1182 354 1140 q 374 1258 354 1224 q 429 1314 394 1293 q 507 1335 464 1335 q 586 1314 551 1335 q 641 1258 621 1293 q 661 1182 661 1224 q 641 1107 661 1140 q 586 1053 621 1074 q 507 1032 551 1032 m 507 1090 q 573 1117 547 1090 q 599 1182 599 1143 q 573 1249 599 1222 q 507 1275 547 1275 q 442 1249 468 1275 q 417 1182 417 1224 q 442 1117 417 1143 q 507 1090 467 1090 m 621 1258 l 550 1283 l 699 1433 l 768 1376 l 621 1258 z "},"Ḁ":{"ha":1017,"x_min":-1,"x_max":1018,"o":"m -1 0 l 439 972 l 576 972 l 1018 0 l 872 0 l 479 894 l 535 894 l 142 0 l -1 0 m 186 243 l 224 354 l 771 354 l 811 243 l 186 243 m 507 -356 q 429 -335 464 -356 q 374 -281 394 -314 q 354 -206 354 -247 q 374 -129 354 -164 q 429 -74 394 -94 q 507 -53 464 -53 q 586 -74 551 -53 q 641 -129 621 -94 q 661 -206 661 -164 q 641 -281 661 -247 q 586 -335 621 -314 q 507 -356 551 -356 m 507 -297 q 573 -271 547 -297 q 599 -206 599 -244 q 573 -139 599 -165 q 507 -112 547 -112 q 442 -138 468 -112 q 417 -206 417 -164 q 442 -271 417 -244 q 507 -297 467 -297 z "},"Ⱥ":{"ha":1017,"x_min":-1,"x_max":1018,"o":"m -1 0 l 439 972 l 576 972 l 1018 0 l 872 0 l 479 901 l 535 901 l 142 0 l -1 0 m 186 247 l 224 351 l 771 351 l 811 247 l 186 247 m 249 -97 l 757 1069 l 869 1069 l 361 -97 l 249 -97 z "},"Ã":{"ha":1017,"x_min":-1,"x_max":1018,"o":"m -1 0 l 439 972 l 576 972 l 1018 0 l 872 0 l 479 894 l 535 894 l 142 0 l -1 0 m 186 243 l 224 354 l 771 354 l 811 243 l 186 243 m 617 1049 q 551 1064 579 1049 q 500 1099 522 1079 q 456 1133 478 1118 q 408 1149 433 1149 q 359 1122 378 1149 q 339 1057 340 1094 l 256 1057 q 296 1185 257 1133 q 400 1238 335 1238 q 467 1222 439 1238 q 518 1188 496 1207 q 563 1153 540 1168 q 610 1138 585 1138 q 658 1165 640 1138 q 678 1228 676 1192 l 760 1228 q 720 1101 758 1153 q 617 1049 682 1049 z "},"Ɐ":{"ha":1017,"x_min":-1,"x_max":1018,"o":"m 1018 972 l 578 0 l 440 0 l -1 972 l 144 972 l 538 78 l 482 78 l 875 972 l 1018 972 m 831 729 l 792 618 l 246 618 l 206 729 l 831 729 z "},"Æ":{"ha":1454,"x_min":-1,"x_max":1376,"o":"m -1 0 l 578 972 l 717 972 l 717 851 l 594 851 l 679 913 l 142 0 l -1 0 m 246 243 l 254 354 l 717 354 l 717 243 l 246 243 m 671 0 l 671 972 l 1357 972 l 1357 851 l 808 851 l 808 121 l 1376 121 l 1376 0 l 671 0 m 796 435 l 797 553 l 1296 553 l 1296 435 l 796 435 z "},"Ǽ":{"ha":1454,"x_min":-1,"x_max":1376,"o":"m -1 0 l 578 972 l 717 972 l 717 851 l 594 851 l 679 913 l 142 0 l -1 0 m 246 243 l 254 354 l 717 354 l 717 243 l 246 243 m 671 0 l 671 972 l 1357 972 l 1357 851 l 808 851 l 808 121 l 1376 121 l 1376 0 l 671 0 m 796 435 l 797 553 l 1296 553 l 1296 435 l 796 435 m 756 1051 l 944 1232 l 1114 1232 l 881 1051 l 756 1051 z "},"Ǣ":{"ha":1454,"x_min":-1,"x_max":1376,"o":"m -1 0 l 578 972 l 717 972 l 717 851 l 594 851 l 679 913 l 142 0 l -1 0 m 246 243 l 254 354 l 717 354 l 717 243 l 246 243 m 671 0 l 671 972 l 1357 972 l 1357 851 l 808 851 l 808 121 l 1376 121 l 1376 0 l 671 0 m 796 435 l 797 553 l 1296 553 l 1296 435 l 796 435 m 633 1100 l 633 1183 l 1086 1183 l 1086 1100 l 633 1100 z "},"B":{"ha":1051,"x_min":146,"x_max":982,"o":"m 146 0 l 146 972 l 582 972 q 840 905 750 972 q 931 721 931 838 q 895 588 931 642 q 800 504 860 533 q 671 475 740 475 l 696 517 q 843 488 779 517 q 944 402 907 458 q 982 263 982 346 q 888 69 982 138 q 610 0 794 0 l 146 0 m 285 113 l 604 113 q 781 151 719 113 q 842 274 842 190 q 781 397 842 358 q 604 436 719 436 l 272 436 l 272 549 l 569 549 q 733 588 675 549 q 792 704 792 626 q 733 821 792 782 q 569 860 675 860 l 285 860 l 285 113 z "},"Ḃ":{"ha":1051,"x_min":146,"x_max":982,"o":"m 146 0 l 146 972 l 582 972 q 840 905 750 972 q 931 721 931 838 q 895 588 931 642 q 800 504 860 533 q 671 475 740 475 l 696 517 q 843 488 779 517 q 944 402 907 458 q 982 263 982 346 q 888 69 982 138 q 610 0 794 0 l 146 0 m 285 113 l 604 113 q 781 151 719 113 q 842 274 842 190 q 781 397 842 358 q 604 436 719 436 l 272 436 l 272 549 l 569 549 q 733 588 675 549 q 792 704 792 626 q 733 821 792 782 q 569 860 675 860 l 285 860 l 285 113 m 526 1076 q 468 1100 492 1076 q 444 1158 444 1124 q 468 1217 444 1193 q 526 1240 492 1240 q 585 1217 561 1240 q 608 1158 608 1193 q 585 1100 608 1124 q 526 1076 561 1076 z "},"Ḅ":{"ha":1051,"x_min":146,"x_max":982,"o":"m 146 0 l 146 972 l 582 972 q 840 905 750 972 q 931 721 931 838 q 895 588 931 642 q 800 504 860 533 q 671 475 740 475 l 696 517 q 843 488 779 517 q 944 402 907 458 q 982 263 982 346 q 888 69 982 138 q 610 0 794 0 l 146 0 m 285 113 l 604 113 q 781 151 719 113 q 842 274 842 190 q 781 397 842 358 q 604 436 719 436 l 272 436 l 272 549 l 569 549 q 733 588 675 549 q 792 704 792 626 q 733 821 792 782 q 569 860 675 860 l 285 860 l 285 113 m 526 -267 q 468 -243 492 -267 q 444 -185 444 -219 q 468 -126 444 -150 q 526 -103 492 -103 q 585 -126 561 -103 q 608 -185 608 -150 q 585 -243 608 -219 q 526 -267 561 -267 z "},"Ꞵ":{"ha":1051,"x_min":146,"x_max":982,"o":"m 146 -269 l 146 972 l 582 972 q 840 905 750 972 q 931 721 931 838 q 895 588 931 642 q 800 504 860 533 q 671 475 740 475 l 696 517 q 843 488 779 517 q 944 402 907 458 q 982 263 982 346 q 888 69 982 138 q 610 0 794 0 l 272 0 l 272 113 l 604 113 q 781 151 719 113 q 842 274 842 190 q 781 397 842 358 q 604 436 719 436 l 272 436 l 272 549 l 569 549 q 733 588 675 549 q 792 704 792 626 q 733 821 792 782 q 569 860 675 860 l 285 860 l 285 -269 l 146 -269 z "},"Ɓ":{"ha":1282,"x_min":43,"x_max":1213,"o":"m 142 532 q 68 636 93 578 q 44 753 43 694 q 72 861 44 811 q 154 942 99 911 q 296 972 210 972 l 388 972 l 388 851 l 297 851 q 219 828 247 851 q 183 769 190 806 q 188 690 175 732 q 236 608 201 647 l 142 532 m 376 0 l 376 972 l 813 972 q 1071 905 981 972 q 1161 721 1161 838 q 1125 588 1161 642 q 1030 504 1089 533 q 901 475 971 475 l 926 517 q 1074 488 1010 517 q 1175 402 1138 458 q 1213 263 1213 346 q 1119 69 1213 138 q 840 0 1025 0 l 376 0 m 514 113 l 835 113 q 1011 151 950 113 q 1072 274 1072 190 q 1011 397 1072 358 q 835 436 950 436 l 503 436 l 503 549 l 800 549 q 964 588 906 549 q 1022 704 1022 626 q 964 821 1022 782 q 800 860 906 860 l 514 860 l 514 113 z "},"Ḇ":{"ha":1051,"x_min":146,"x_max":982,"o":"m 146 0 l 146 972 l 582 972 q 840 905 750 972 q 931 721 931 838 q 895 588 931 642 q 800 504 860 533 q 671 475 740 475 l 696 517 q 843 488 779 517 q 944 402 907 458 q 982 263 982 346 q 888 69 982 138 q 610 0 794 0 l 146 0 m 285 113 l 604 113 q 781 151 719 113 q 842 274 842 190 q 781 397 842 358 q 604 436 719 436 l 272 436 l 272 549 l 569 549 q 733 588 675 549 q 792 704 792 626 q 733 821 792 782 q 569 860 675 860 l 285 860 l 285 113 m 300 -228 l 300 -144 l 753 -144 l 753 -228 l 300 -228 z "},"Ƀ":{"ha":1075,"x_min":26,"x_max":1006,"o":"m 169 0 l 169 972 l 606 972 q 864 905 774 972 q 954 721 954 838 q 918 588 954 642 q 823 507 882 535 q 694 479 764 479 l 719 521 q 867 492 803 521 q 968 406 931 463 q 1006 265 1006 349 q 912 71 1006 142 q 633 0 818 0 l 169 0 m 26 224 l 26 331 l 215 331 l 247 331 l 521 331 l 521 224 l 247 224 l 215 224 l 26 224 m 307 113 l 628 113 q 804 151 743 113 q 865 274 865 190 q 804 399 865 358 q 628 439 743 439 l 296 439 l 296 553 l 593 553 q 757 590 699 553 q 815 704 815 626 q 757 821 815 782 q 593 860 699 860 l 307 860 l 307 113 z "},"Ƃ":{"ha":1051,"x_min":146,"x_max":982,"o":"m 146 0 l 146 972 l 896 972 l 896 860 l 285 860 l 285 113 l 604 113 q 781 152 719 113 q 842 281 842 192 q 781 407 842 368 q 604 446 719 446 l 272 446 l 272 560 l 622 560 q 890 492 799 560 q 982 283 982 425 q 888 70 982 140 q 610 0 793 0 l 146 0 z "},"C":{"ha":990,"x_min":67,"x_max":951,"o":"m 581 -11 q 376 26 469 -11 q 213 130 282 63 q 106 288 144 197 q 67 486 67 378 q 106 685 67 594 q 214 842 144 775 q 377 947 283 910 q 582 983 471 983 q 790 945 694 983 q 951 832 885 907 l 861 744 q 736 831 806 803 q 588 860 667 860 q 435 832 506 860 q 314 754 365 804 q 234 635 263 704 q 206 486 206 567 q 234 337 206 406 q 314 218 263 268 q 435 140 365 168 q 588 113 506 113 q 736 141 667 113 q 861 229 806 169 l 951 142 q 790 28 885 67 q 581 -11 694 -11 z "},"Ć":{"ha":992,"x_min":67,"x_max":951,"o":"m 581 -11 q 376 26 469 -11 q 213 130 282 63 q 106 288 144 197 q 67 486 67 378 q 106 685 67 594 q 214 842 144 775 q 377 947 283 910 q 582 983 471 983 q 790 945 694 983 q 951 832 885 907 l 861 744 q 736 831 806 803 q 588 860 667 860 q 435 832 506 860 q 314 754 365 804 q 234 635 263 704 q 206 486 206 567 q 234 337 206 406 q 314 218 263 268 q 435 140 365 168 q 588 113 506 113 q 736 141 667 113 q 861 229 806 169 l 951 142 q 790 28 885 67 q 581 -11 694 -11 m 467 1051 l 656 1232 l 825 1232 l 592 1051 l 467 1051 z "},"Ꞓ":{"ha":1083,"x_min":17,"x_max":1044,"o":"m 675 -11 q 470 26 564 -11 q 307 130 376 63 q 199 288 238 197 q 161 486 161 378 q 199 685 161 594 q 308 842 238 775 q 472 947 378 910 q 675 983 565 983 q 883 945 788 983 q 1044 832 979 907 l 956 744 q 831 831 900 803 q 682 860 761 860 q 529 832 599 860 q 408 754 460 804 q 328 635 357 704 q 300 486 300 567 q 328 337 300 406 q 408 218 357 268 q 529 140 460 168 q 682 113 599 113 q 831 141 761 113 q 956 229 900 169 l 1044 142 q 883 28 979 67 q 675 -11 788 -11 m 17 443 l 17 553 l 540 553 l 540 443 l 17 443 z "},"Č":{"ha":992,"x_min":67,"x_max":951,"o":"m 581 -11 q 376 26 469 -11 q 213 130 282 63 q 106 288 144 197 q 67 486 67 378 q 106 685 67 594 q 214 842 144 775 q 377 947 283 910 q 582 983 471 983 q 790 945 694 983 q 951 832 885 907 l 861 744 q 736 831 806 803 q 588 860 667 860 q 435 832 506 860 q 314 754 365 804 q 234 635 263 704 q 206 486 206 567 q 234 337 206 406 q 314 218 263 268 q 435 140 365 168 q 588 113 506 113 q 736 141 667 113 q 861 229 806 169 l 951 142 q 790 28 885 67 q 581 -11 694 -11 m 507 1051 l 322 1232 l 443 1232 l 626 1081 l 515 1081 l 699 1232 l 819 1232 l 635 1051 l 507 1051 z "},"Ç":{"ha":990,"x_min":67,"x_max":951,"o":"m 581 -11 q 376 26 469 -11 q 213 130 282 63 q 106 288 144 197 q 67 486 67 378 q 106 685 67 594 q 214 842 144 775 q 377 947 283 910 q 582 983 471 983 q 790 945 694 983 q 951 832 885 907 l 861 744 q 736 831 806 803 q 588 860 667 860 q 435 832 506 860 q 314 754 365 804 q 234 635 263 704 q 206 486 206 567 q 234 337 206 406 q 314 218 263 268 q 435 140 365 168 q 588 113 506 113 q 736 141 667 113 q 861 229 806 169 l 951 142 q 790 28 885 67 q 581 -11 694 -11 m 538 -311 q 471 -303 501 -311 q 414 -281 440 -296 l 443 -212 q 488 -231 465 -225 q 538 -236 511 -236 q 597 -222 578 -236 q 615 -181 615 -207 q 597 -141 615 -156 q 536 -126 578 -126 l 499 -126 l 533 10 l 610 10 l 589 -69 q 679 -107 649 -75 q 710 -185 710 -139 q 663 -277 710 -243 q 538 -311 615 -311 z "},"Ḉ":{"ha":992,"x_min":67,"x_max":951,"o":"m 581 -11 q 376 26 469 -11 q 213 130 282 63 q 106 288 144 197 q 67 486 67 378 q 106 685 67 594 q 214 842 144 775 q 377 947 283 910 q 582 983 471 983 q 790 945 694 983 q 951 832 885 907 l 861 744 q 736 831 806 803 q 588 860 667 860 q 435 832 506 860 q 314 754 365 804 q 234 635 263 704 q 206 486 206 567 q 234 337 206 406 q 314 218 263 268 q 435 140 365 168 q 588 113 506 113 q 736 141 667 113 q 861 229 806 169 l 951 142 q 790 28 885 67 q 581 -11 694 -11 m 536 -311 q 469 -303 500 -311 q 413 -281 439 -296 l 442 -212 q 487 -231 464 -225 q 536 -236 510 -236 q 595 -222 576 -236 q 614 -181 614 -207 q 595 -141 614 -156 q 535 -126 576 -126 l 497 -126 l 532 10 l 608 10 l 588 -69 q 678 -107 647 -75 q 708 -185 708 -139 q 661 -277 708 -243 q 536 -311 614 -311 m 467 1051 l 656 1232 l 825 1232 l 592 1051 l 467 1051 z "},"Ĉ":{"ha":992,"x_min":67,"x_max":951,"o":"m 581 -11 q 376 26 469 -11 q 213 130 282 63 q 106 288 144 197 q 67 486 67 378 q 106 685 67 594 q 214 842 144 775 q 377 947 283 910 q 582 983 471 983 q 790 945 694 983 q 951 832 885 907 l 861 744 q 736 831 806 803 q 588 860 667 860 q 435 832 506 860 q 314 754 365 804 q 234 635 263 704 q 206 486 206 567 q 234 337 206 406 q 314 218 263 268 q 435 140 365 168 q 588 113 506 113 q 736 141 667 113 q 861 229 806 169 l 951 142 q 790 28 885 67 q 581 -11 694 -11 m 322 1051 l 507 1232 l 635 1232 l 819 1051 l 699 1051 l 515 1204 l 626 1204 l 443 1051 l 322 1051 z "},"Ċ":{"ha":992,"x_min":67,"x_max":951,"o":"m 581 -11 q 376 26 469 -11 q 213 130 282 63 q 106 288 144 197 q 67 486 67 378 q 106 685 67 594 q 214 842 144 775 q 377 947 283 910 q 582 983 471 983 q 790 945 694 983 q 951 832 885 907 l 861 744 q 736 831 806 803 q 588 860 667 860 q 435 832 506 860 q 314 754 365 804 q 234 635 263 704 q 206 486 206 567 q 234 337 206 406 q 314 218 263 268 q 435 140 365 168 q 588 113 506 113 q 736 141 667 113 q 861 229 806 169 l 951 142 q 790 28 885 67 q 581 -11 694 -11 m 571 1076 q 513 1100 536 1076 q 489 1158 489 1124 q 513 1217 489 1193 q 571 1240 536 1240 q 629 1217 606 1240 q 653 1158 653 1193 q 629 1100 653 1124 q 571 1076 606 1076 z "},"Ꭓ":{"ha":781,"x_min":-172,"x_max":953,"o":"m 953 -179 q 875 -250 924 -222 q 770 -281 826 -278 q 661 -253 714 -283 q 572 -151 608 -224 l 349 301 l 308 363 l 89 794 q 37 853 67 836 q -25 859 7 869 q -86 810 -57 849 l -172 882 q -95 951 -143 924 q 8 982 -47 979 q 116 956 64 985 q 203 854 168 926 l 394 472 l 429 415 l 689 -92 q 741 -150 710 -133 q 806 -156 772 -167 q 867 -107 839 -144 l 953 -179 m -72 -269 l 332 433 l 344 438 l 660 972 l 806 972 l 419 336 l 406 324 l 71 -269 l -72 -269 z "},"Ƈ":{"ha":1036,"x_min":83,"x_max":1161,"o":"m 967 832 l 840 833 l 840 936 q 869 1060 840 1010 q 944 1137 897 1110 q 1047 1166 990 1164 q 1161 1144 1104 1168 l 1124 1036 q 1050 1044 1086 1051 q 990 1010 1014 1038 q 967 936 967 982 l 967 832 m 597 -11 q 392 26 486 -11 q 229 130 299 63 q 122 288 160 197 q 83 486 83 378 q 122 685 83 594 q 230 842 160 775 q 394 947 300 910 q 597 983 488 983 q 806 945 710 983 q 967 832 901 907 l 878 744 q 753 831 822 803 q 604 860 683 860 q 451 832 521 860 q 331 754 382 804 q 251 635 279 704 q 222 486 222 567 q 251 337 222 406 q 331 218 279 268 q 451 140 382 168 q 604 113 521 113 q 753 141 683 113 q 878 229 822 169 l 967 142 q 806 28 901 67 q 597 -11 710 -11 z "},"Ȼ":{"ha":990,"x_min":67,"x_max":951,"o":"m 238 -97 l 775 1069 l 889 1069 l 353 -97 l 238 -97 m 581 -11 q 376 26 469 -11 q 213 130 282 63 q 106 288 144 197 q 67 486 67 378 q 106 685 67 594 q 214 842 144 775 q 377 947 283 910 q 582 983 471 983 q 790 945 694 983 q 951 832 885 907 l 861 744 q 736 831 806 803 q 588 860 667 860 q 435 832 506 860 q 314 754 365 804 q 234 635 263 704 q 206 486 206 567 q 234 337 206 406 q 314 218 263 268 q 435 140 365 168 q 588 113 506 113 q 736 141 667 113 q 861 229 806 169 l 951 142 q 790 28 885 67 q 581 -11 694 -11 z "},"D":{"ha":1147,"x_min":146,"x_max":1081,"o":"m 146 0 l 146 972 l 556 972 q 830 911 711 972 q 1015 740 949 850 q 1081 486 1081 631 q 1015 232 1081 342 q 830 61 949 122 q 556 0 711 0 l 146 0 m 285 121 l 547 121 q 756 167 668 121 q 893 295 844 213 q 942 486 942 378 q 893 678 942 596 q 756 806 844 760 q 547 851 668 851 l 285 851 l 285 121 z "},"Ǳ":{"ha":2047,"x_min":146,"x_max":2008,"o":"m 146 0 l 146 972 l 556 972 q 830 911 711 972 q 1015 740 949 850 q 1081 486 1081 631 q 1015 232 1081 342 q 830 61 949 122 q 556 0 711 0 l 146 0 m 285 121 l 547 121 q 756 167 668 121 q 893 295 844 213 q 942 486 942 378 q 893 678 942 596 q 756 806 844 760 q 547 851 668 851 l 285 851 l 285 121 m 1196 0 l 1196 94 l 1850 906 l 1865 851 l 1206 851 l 1206 972 l 1990 972 l 1990 878 l 1339 67 l 1322 121 l 2008 121 l 2008 0 l 1196 0 z "},"Ǆ":{"ha":2047,"x_min":146,"x_max":2008,"o":"m 146 0 l 146 972 l 556 972 q 830 911 711 972 q 1015 740 949 850 q 1081 486 1081 631 q 1015 232 1081 342 q 830 61 949 122 q 556 0 711 0 l 146 0 m 285 121 l 547 121 q 756 167 668 121 q 893 295 844 213 q 942 486 942 378 q 893 678 942 596 q 756 806 844 760 q 547 851 668 851 l 285 851 l 285 121 m 1196 0 l 1196 94 l 1850 906 l 1865 851 l 1206 851 l 1206 972 l 1990 972 l 1990 878 l 1339 67 l 1322 121 l 2008 121 l 2008 0 l 1196 0 m 1539 1051 l 1354 1232 l 1475 1232 l 1658 1081 l 1547 1081 l 1731 1232 l 1851 1232 l 1667 1051 l 1539 1051 z "},"Ď":{"ha":1147,"x_min":146,"x_max":1081,"o":"m 146 0 l 146 972 l 556 972 q 830 911 711 972 q 1015 740 949 850 q 1081 486 1081 631 q 1015 232 1081 342 q 830 61 949 122 q 556 0 711 0 l 146 0 m 285 121 l 547 121 q 756 167 668 121 q 893 295 844 213 q 942 486 942 378 q 893 678 942 596 q 756 806 844 760 q 547 851 668 851 l 285 851 l 285 121 m 463 1051 l 278 1232 l 399 1232 l 582 1081 l 471 1081 l 654 1232 l 775 1232 l 590 1051 l 463 1051 z "},"Ḑ":{"ha":1147,"x_min":146,"x_max":1081,"o":"m 146 0 l 146 972 l 556 972 q 830 911 711 972 q 1015 740 949 850 q 1081 486 1081 631 q 1015 232 1081 342 q 830 61 949 122 q 556 0 711 0 l 146 0 m 285 121 l 547 121 q 756 167 668 121 q 893 295 844 213 q 942 486 942 378 q 893 678 942 596 q 756 806 844 760 q 547 851 668 851 l 285 851 l 285 121 m 474 -351 l 519 -193 l 532 -243 q 480 -226 499 -243 q 461 -181 461 -208 q 481 -135 461 -153 q 532 -117 500 -117 q 584 -135 565 -117 q 603 -181 603 -154 q 599 -212 603 -194 q 585 -251 596 -231 l 543 -351 l 474 -351 z "},"Ḓ":{"ha":1147,"x_min":146,"x_max":1081,"o":"m 146 0 l 146 972 l 556 972 q 830 911 711 972 q 1015 740 949 850 q 1081 486 1081 631 q 1015 232 1081 342 q 830 61 949 122 q 556 0 711 0 l 146 0 m 285 121 l 547 121 q 756 167 668 121 q 893 295 844 213 q 942 486 942 378 q 893 678 942 596 q 756 806 844 760 q 547 851 668 851 l 285 851 l 285 121 m 283 -278 l 468 -97 l 596 -97 l 781 -278 l 660 -278 l 476 -125 l 588 -125 l 404 -278 l 283 -278 z "},"Đ":{"ha":1158,"x_min":14,"x_max":1092,"o":"m 157 0 l 157 972 l 567 972 q 841 911 722 972 q 1026 740 960 850 q 1092 486 1092 631 q 1026 232 1092 342 q 841 61 960 122 q 567 0 722 0 l 157 0 m 296 121 l 558 121 q 767 167 679 121 q 904 295 856 213 q 953 486 953 378 q 904 678 953 596 q 767 806 856 760 q 558 851 679 851 l 296 851 l 296 121 m 14 443 l 14 553 l 569 553 l 569 443 l 14 443 z "},"Ḋ":{"ha":1147,"x_min":146,"x_max":1081,"o":"m 146 0 l 146 972 l 556 972 q 830 911 711 972 q 1015 740 949 850 q 1081 486 1081 631 q 1015 232 1081 342 q 830 61 949 122 q 556 0 711 0 l 146 0 m 285 121 l 547 121 q 756 167 668 121 q 893 295 844 213 q 942 486 942 378 q 893 678 942 596 q 756 806 844 760 q 547 851 668 851 l 285 851 l 285 121 m 526 1076 q 468 1100 492 1076 q 444 1158 444 1124 q 468 1217 444 1193 q 526 1240 492 1240 q 585 1217 561 1240 q 608 1158 608 1193 q 585 1100 608 1124 q 526 1076 561 1076 z "},"Ḍ":{"ha":1147,"x_min":146,"x_max":1081,"o":"m 146 0 l 146 972 l 556 972 q 830 911 711 972 q 1015 740 949 850 q 1081 486 1081 631 q 1015 232 1081 342 q 830 61 949 122 q 556 0 711 0 l 146 0 m 285 121 l 547 121 q 756 167 668 121 q 893 295 844 213 q 942 486 942 378 q 893 678 942 596 q 756 806 844 760 q 547 851 668 851 l 285 851 l 285 121 m 532 -267 q 474 -243 497 -267 q 450 -185 450 -219 q 474 -126 450 -150 q 532 -103 497 -103 q 590 -126 567 -103 q 614 -185 614 -150 q 590 -243 614 -219 q 532 -267 567 -267 z "},"Ɗ":{"ha":1378,"x_min":43,"x_max":1311,"o":"m 142 532 q 68 636 93 578 q 44 753 43 694 q 72 861 44 811 q 154 942 99 911 q 296 972 210 972 l 388 972 l 388 851 l 297 851 q 219 828 247 851 q 183 769 190 806 q 188 690 175 732 q 236 608 201 647 l 142 532 m 376 0 l 376 972 l 786 972 q 1060 911 942 972 q 1244 740 1178 850 q 1311 486 1311 631 q 1244 232 1311 342 q 1060 61 1178 122 q 786 0 942 0 l 376 0 m 514 121 l 778 121 q 987 167 899 121 q 1124 295 1075 213 q 1172 486 1172 378 q 1124 678 1172 596 q 987 806 1075 760 q 778 851 899 851 l 514 851 l 514 121 z "},"Ḏ":{"ha":1147,"x_min":146,"x_max":1081,"o":"m 146 0 l 146 972 l 556 972 q 830 911 711 972 q 1015 740 949 850 q 1081 486 1081 631 q 1015 232 1081 342 q 830 61 949 122 q 556 0 711 0 l 146 0 m 285 121 l 547 121 q 756 167 668 121 q 893 295 844 213 q 942 486 942 378 q 893 678 942 596 q 756 806 844 760 q 547 851 668 851 l 285 851 l 285 121 m 306 -228 l 306 -144 l 758 -144 l 758 -228 l 306 -228 z "},"Ɖ":{"ha":1147,"x_min":3,"x_max":1081,"o":"m 146 0 l 146 972 l 556 972 q 830 911 711 972 q 1015 740 949 850 q 1081 486 1081 631 q 1015 232 1081 342 q 830 61 949 122 q 556 0 711 0 l 146 0 m 285 121 l 547 121 q 756 167 668 121 q 893 295 844 213 q 942 486 942 378 q 893 678 942 596 q 756 806 844 760 q 547 851 668 851 l 285 851 l 285 121 m 4 443 l 4 553 l 560 553 l 560 443 l 4 443 z "},"Ƌ":{"ha":1036,"x_min":53,"x_max":890,"o":"m 424 0 q 151 79 249 0 q 53 299 53 158 q 147 505 53 432 q 421 578 240 578 l 754 578 l 754 851 l 161 851 l 161 972 l 890 972 l 890 0 l 424 0 m 435 113 l 754 113 l 754 464 l 435 464 q 253 419 314 464 q 192 296 192 375 q 253 163 192 214 q 435 113 315 113 z "},"ǲ":{"ha":1871,"x_min":146,"x_max":1819,"o":"m 146 0 l 146 972 l 556 972 q 830 911 711 972 q 1015 740 949 850 q 1081 486 1081 631 q 1015 232 1081 342 q 830 61 949 122 q 556 0 711 0 l 146 0 m 285 121 l 547 121 q 756 167 668 121 q 893 295 844 213 q 942 486 942 378 q 893 678 942 596 q 756 806 844 760 q 547 851 668 851 l 285 851 l 285 121 m 1203 0 l 1203 86 l 1675 672 l 1701 626 l 1211 626 l 1211 736 l 1808 736 l 1808 649 l 1336 64 l 1306 110 l 1819 110 l 1819 0 l 1203 0 z "},"ǅ":{"ha":1871,"x_min":146,"x_max":1819,"o":"m 146 0 l 146 972 l 556 972 q 830 911 711 972 q 1015 740 949 850 q 1081 486 1081 631 q 1015 232 1081 342 q 830 61 949 122 q 556 0 711 0 l 146 0 m 285 121 l 547 121 q 756 167 668 121 q 893 295 844 213 q 942 486 942 378 q 893 678 942 596 q 756 806 844 760 q 547 851 668 851 l 285 851 l 285 121 m 1203 0 l 1203 86 l 1675 672 l 1701 626 l 1211 626 l 1211 736 l 1808 736 l 1808 649 l 1336 64 l 1306 110 l 1819 110 l 1819 0 l 1203 0 m 1447 843 l 1263 1024 l 1383 1024 l 1567 872 l 1456 872 l 1639 1024 l 1760 1024 l 1575 843 l 1447 843 z "},"Ð":{"ha":1158,"x_min":14,"x_max":1092,"o":"m 157 0 l 157 972 l 567 972 q 841 911 722 972 q 1026 740 960 850 q 1092 486 1092 631 q 1026 232 1092 342 q 841 61 960 122 q 567 0 722 0 l 157 0 m 296 121 l 558 121 q 767 167 679 121 q 904 295 856 213 q 953 486 953 378 q 904 678 953 596 q 767 806 856 760 q 558 851 679 851 l 296 851 l 296 121 m 14 443 l 14 553 l 569 553 l 569 443 l 14 443 z "},"E":{"ha":931,"x_min":146,"x_max":851,"o":"m 146 0 l 146 972 l 832 972 l 832 851 l 285 851 l 285 121 l 851 121 l 851 0 l 146 0 m 272 435 l 272 553 l 772 553 l 772 435 l 272 435 z "},"É":{"ha":931,"x_min":146,"x_max":851,"o":"m 146 0 l 146 972 l 832 972 l 832 851 l 285 851 l 285 121 l 851 121 l 851 0 l 146 0 m 272 435 l 272 553 l 772 553 l 772 435 l 272 435 m 385 1051 l 574 1232 l 743 1232 l 510 1051 l 385 1051 z "},"Ĕ":{"ha":931,"x_min":146,"x_max":851,"o":"m 146 0 l 146 972 l 832 972 l 832 851 l 285 851 l 285 121 l 851 121 l 851 0 l 146 0 m 272 435 l 272 553 l 772 553 l 772 435 l 272 435 m 489 1057 q 331 1108 394 1057 q 264 1246 267 1158 l 354 1246 q 396 1165 357 1194 q 489 1135 435 1135 q 583 1165 543 1135 q 624 1246 622 1194 l 714 1246 q 647 1108 711 1158 q 489 1057 583 1057 z "},"Ě":{"ha":931,"x_min":146,"x_max":851,"o":"m 146 0 l 146 972 l 832 972 l 832 851 l 285 851 l 285 121 l 851 121 l 851 0 l 146 0 m 272 435 l 272 553 l 772 553 l 772 435 l 272 435 m 425 1051 l 240 1232 l 361 1232 l 544 1081 l 433 1081 l 617 1232 l 738 1232 l 553 1051 l 425 1051 z "},"Ȩ":{"ha":931,"x_min":146,"x_max":851,"o":"m 146 0 l 146 972 l 832 972 l 832 851 l 285 851 l 285 121 l 851 121 l 851 0 l 146 0 m 272 435 l 272 553 l 772 553 l 772 435 l 272 435 m 454 -311 q 388 -303 418 -311 q 331 -281 357 -296 l 360 -212 q 405 -231 382 -225 q 454 -236 428 -236 q 513 -222 494 -236 q 532 -181 532 -207 q 513 -141 532 -156 q 453 -126 494 -126 l 415 -126 l 450 10 l 526 10 l 506 -69 q 596 -107 565 -75 q 626 -185 626 -139 q 579 -277 626 -243 q 454 -311 532 -311 z "},"Ḝ":{"ha":931,"x_min":146,"x_max":851,"o":"m 146 0 l 146 972 l 832 972 l 832 851 l 285 851 l 285 121 l 851 121 l 851 0 l 146 0 m 272 435 l 272 553 l 772 553 l 772 435 l 272 435 m 454 -311 q 388 -303 418 -311 q 331 -281 357 -296 l 360 -212 q 405 -231 382 -225 q 454 -236 428 -236 q 513 -222 494 -236 q 532 -181 532 -207 q 513 -141 532 -156 q 453 -126 494 -126 l 415 -126 l 450 10 l 526 10 l 506 -69 q 596 -107 565 -75 q 626 -185 626 -139 q 579 -277 626 -243 q 454 -311 532 -311 m 489 1057 q 331 1108 394 1057 q 264 1246 267 1158 l 354 1246 q 396 1165 357 1194 q 489 1135 435 1135 q 583 1165 543 1135 q 624 1246 622 1194 l 714 1246 q 647 1108 711 1158 q 489 1057 583 1057 z "},"Ê":{"ha":931,"x_min":146,"x_max":851,"o":"m 146 0 l 146 972 l 832 972 l 832 851 l 285 851 l 285 121 l 851 121 l 851 0 l 146 0 m 272 435 l 272 553 l 772 553 l 772 435 l 272 435 m 240 1051 l 425 1232 l 553 1232 l 738 1051 l 617 1051 l 433 1204 l 544 1204 l 361 1051 l 240 1051 z "},"Ế":{"ha":931,"x_min":146,"x_max":943,"o":"m 146 0 l 146 972 l 832 972 l 832 851 l 285 851 l 285 121 l 851 121 l 851 0 l 146 0 m 272 435 l 272 553 l 772 553 l 772 435 l 272 435 m 240 1051 l 426 1190 l 551 1190 l 738 1051 l 615 1051 l 433 1164 l 544 1164 l 363 1051 l 240 1051 m 626 1174 l 790 1331 l 942 1331 l 736 1174 l 626 1174 z "},"Ḙ":{"ha":931,"x_min":146,"x_max":851,"o":"m 146 0 l 146 972 l 832 972 l 832 851 l 285 851 l 285 121 l 851 121 l 851 0 l 146 0 m 272 435 l 272 553 l 772 553 l 772 435 l 272 435 m 240 -278 l 425 -97 l 553 -97 l 738 -278 l 617 -278 l 433 -125 l 544 -125 l 361 -278 l 240 -278 z "},"Ệ":{"ha":931,"x_min":146,"x_max":851,"o":"m 146 0 l 146 972 l 832 972 l 832 851 l 285 851 l 285 121 l 851 121 l 851 0 l 146 0 m 272 435 l 272 553 l 772 553 l 772 435 l 272 435 m 489 -267 q 431 -243 454 -267 q 407 -185 407 -219 q 431 -126 407 -150 q 489 -103 454 -103 q 547 -126 524 -103 q 571 -185 571 -150 q 547 -243 571 -219 q 489 -267 524 -267 m 240 1051 l 425 1232 l 553 1232 l 738 1051 l 617 1051 l 433 1204 l 544 1204 l 361 1051 l 240 1051 z "},"Ề":{"ha":931,"x_min":146,"x_max":851,"o":"m 146 0 l 146 972 l 832 972 l 832 851 l 285 851 l 285 121 l 851 121 l 851 0 l 146 0 m 272 435 l 272 553 l 772 553 l 772 435 l 272 435 m 240 1051 l 426 1190 l 551 1190 l 738 1051 l 615 1051 l 433 1164 l 544 1164 l 363 1051 l 240 1051 m 710 1174 l 504 1331 l 656 1331 l 818 1174 l 710 1174 z "},"Ể":{"ha":931,"x_min":146,"x_max":851,"o":"m 146 0 l 146 972 l 832 972 l 832 851 l 285 851 l 285 121 l 851 121 l 851 0 l 146 0 m 272 435 l 272 553 l 772 553 l 772 435 l 272 435 m 240 1051 l 426 1190 l 551 1190 l 738 1051 l 615 1051 l 433 1164 l 544 1164 l 363 1051 l 240 1051 m 692 1149 l 656 1189 q 697 1220 683 1203 q 711 1256 711 1238 q 697 1287 711 1275 q 658 1299 682 1299 q 599 1282 629 1299 l 574 1333 q 619 1353 593 1346 q 669 1360 644 1360 q 749 1333 721 1360 q 778 1263 778 1306 q 754 1194 778 1225 q 692 1149 731 1164 z "},"Ễ":{"ha":931,"x_min":146,"x_max":851,"o":"m 146 0 l 146 972 l 832 972 l 832 851 l 285 851 l 285 121 l 851 121 l 851 0 l 146 0 m 272 435 l 272 553 l 772 553 l 772 435 l 272 435 m 240 1051 l 426 1190 l 551 1190 l 738 1051 l 615 1051 l 433 1164 l 544 1164 l 363 1051 l 240 1051 m 586 1240 q 526 1251 553 1240 q 478 1278 500 1263 q 438 1304 457 1293 q 399 1315 418 1315 q 351 1297 367 1315 q 335 1246 336 1279 l 260 1246 q 297 1351 261 1314 q 393 1389 333 1389 q 469 1370 438 1389 q 527 1333 500 1351 q 581 1314 554 1314 q 627 1332 611 1314 q 644 1382 643 1350 l 718 1382 q 681 1278 717 1317 q 586 1240 646 1240 z "},"Ȅ":{"ha":931,"x_min":146,"x_max":851,"o":"m 146 0 l 146 972 l 832 972 l 832 851 l 285 851 l 285 121 l 851 121 l 851 0 l 146 0 m 272 435 l 272 553 l 772 553 l 772 435 l 272 435 m 554 1051 l 400 1232 l 542 1232 l 667 1051 l 554 1051 m 311 1051 l 160 1232 l 300 1232 l 424 1051 l 311 1051 z "},"Ë":{"ha":931,"x_min":146,"x_max":851,"o":"m 146 0 l 146 972 l 832 972 l 832 851 l 285 851 l 285 121 l 851 121 l 851 0 l 146 0 m 272 435 l 272 553 l 772 553 l 772 435 l 272 435 m 618 1075 q 568 1095 589 1075 q 547 1146 547 1115 q 568 1198 547 1178 q 618 1218 589 1218 q 668 1198 647 1218 q 689 1146 689 1178 q 668 1095 689 1115 q 618 1075 647 1075 m 360 1075 q 310 1095 331 1075 q 289 1146 289 1115 q 310 1198 289 1178 q 360 1218 331 1218 q 410 1198 389 1218 q 431 1146 431 1178 q 410 1095 431 1115 q 360 1075 389 1075 z "},"Ė":{"ha":931,"x_min":146,"x_max":851,"o":"m 146 0 l 146 972 l 832 972 l 832 851 l 285 851 l 285 121 l 851 121 l 851 0 l 146 0 m 272 435 l 272 553 l 772 553 l 772 435 l 272 435 m 489 1076 q 431 1100 454 1076 q 407 1158 407 1124 q 431 1217 407 1193 q 489 1240 454 1240 q 547 1217 524 1240 q 571 1158 571 1193 q 547 1100 571 1124 q 489 1076 524 1076 z "},"Ẹ":{"ha":931,"x_min":146,"x_max":851,"o":"m 146 0 l 146 972 l 832 972 l 832 851 l 285 851 l 285 121 l 851 121 l 851 0 l 146 0 m 272 435 l 272 553 l 772 553 l 772 435 l 272 435 m 489 -267 q 431 -243 454 -267 q 407 -185 407 -219 q 431 -126 407 -150 q 489 -103 454 -103 q 547 -126 524 -103 q 571 -185 571 -150 q 547 -243 571 -219 q 489 -267 524 -267 z "},"È":{"ha":931,"x_min":146,"x_max":851,"o":"m 146 0 l 146 972 l 832 972 l 832 851 l 285 851 l 285 121 l 851 121 l 851 0 l 146 0 m 272 435 l 272 553 l 772 553 l 772 435 l 272 435 m 468 1051 l 235 1232 l 404 1232 l 593 1051 l 468 1051 z "},"Ẻ":{"ha":931,"x_min":146,"x_max":851,"o":"m 146 0 l 146 972 l 832 972 l 832 851 l 285 851 l 285 121 l 851 121 l 851 0 l 146 0 m 272 435 l 272 553 l 772 553 l 772 435 l 272 435 m 494 1014 l 449 1068 q 508 1110 489 1088 q 526 1161 526 1133 q 507 1208 526 1190 q 454 1226 488 1226 q 371 1200 411 1226 l 340 1263 q 401 1292 367 1282 q 467 1301 435 1301 q 540 1285 508 1301 q 590 1241 572 1269 q 608 1172 608 1213 q 581 1081 608 1121 q 494 1014 553 1042 z "},"Ȇ":{"ha":931,"x_min":146,"x_max":851,"o":"m 146 0 l 146 972 l 832 972 l 832 851 l 285 851 l 285 121 l 851 121 l 851 0 l 146 0 m 272 435 l 272 553 l 772 553 l 772 435 l 272 435 m 264 1051 q 331 1190 267 1139 q 489 1240 394 1240 q 647 1190 583 1240 q 714 1051 711 1139 l 624 1051 q 583 1133 622 1103 q 489 1163 543 1163 q 396 1133 435 1163 q 354 1051 357 1103 l 264 1051 z "},"Ē":{"ha":931,"x_min":146,"x_max":851,"o":"m 146 0 l 146 972 l 832 972 l 832 851 l 285 851 l 285 121 l 851 121 l 851 0 l 146 0 m 272 435 l 272 553 l 772 553 l 772 435 l 272 435 m 263 1100 l 263 1183 l 715 1183 l 715 1100 l 263 1100 z "},"Ḗ":{"ha":931,"x_min":146,"x_max":851,"o":"m 146 0 l 146 972 l 832 972 l 832 851 l 285 851 l 285 121 l 851 121 l 851 0 l 146 0 m 272 435 l 272 553 l 772 553 l 772 435 l 272 435 m 263 1089 l 263 1168 l 715 1168 l 715 1089 l 263 1089 m 393 1249 l 557 1406 l 708 1406 l 503 1249 l 393 1249 z "},"Ḕ":{"ha":931,"x_min":146,"x_max":851,"o":"m 146 0 l 146 972 l 832 972 l 832 851 l 285 851 l 285 121 l 851 121 l 851 0 l 146 0 m 272 435 l 272 553 l 772 553 l 772 435 l 272 435 m 263 1089 l 263 1168 l 715 1168 l 715 1089 l 263 1089 m 476 1249 l 271 1406 l 422 1406 l 585 1249 l 476 1249 z "},"Ę":{"ha":931,"x_min":146,"x_max":883,"o":"m 146 0 l 146 972 l 832 972 l 832 851 l 285 851 l 285 121 l 851 121 l 851 0 l 146 0 m 272 435 l 272 553 l 772 553 l 772 435 l 272 435 m 757 -311 q 635 -272 679 -311 q 590 -171 590 -233 q 609 -96 590 -133 q 672 -22 628 -58 q 789 44 717 14 l 851 0 q 754 -54 790 -28 q 702 -107 718 -81 q 686 -161 686 -133 q 710 -215 686 -196 q 771 -233 735 -233 q 817 -226 794 -233 q 857 -210 840 -219 l 882 -278 q 824 -302 857 -293 q 757 -311 792 -311 z "},"Ɛ":{"ha":879,"x_min":78,"x_max":878,"o":"m 496 -11 q 267 26 360 -11 q 126 127 174 63 q 78 274 78 192 q 117 408 78 353 q 219 492 156 463 q 358 521 283 521 l 365 481 q 236 513 292 481 q 150 599 181 544 q 119 719 119 653 q 149 836 119 786 q 232 918 179 886 q 351 966 285 950 q 490 982 418 982 q 667 960 579 982 q 831 897 756 939 l 789 786 q 698 826 749 808 q 594 853 647 843 q 490 863 540 863 q 375 846 428 863 q 290 794 322 829 q 258 700 258 758 q 310 594 258 629 q 458 558 363 558 l 681 558 l 681 446 l 451 446 q 328 428 382 446 q 246 374 275 411 q 217 282 217 338 q 285 155 217 201 q 494 108 353 108 q 685 135 599 108 q 829 210 771 161 l 878 101 q 715 19 815 49 q 496 -11 615 -11 z "},"Ǝ":{"ha":931,"x_min":78,"x_max":785,"o":"m 785 0 l 78 0 l 78 121 l 646 121 l 646 851 l 97 851 l 97 972 l 785 972 l 785 0 m 658 433 l 158 433 l 158 551 l 658 551 l 658 433 z "},"Ɜ":{"ha":879,"x_min":1,"x_max":800,"o":"m 383 -11 q 165 19 264 -11 q 1 101 65 49 l 49 210 q 194 135 107 161 q 385 108 281 108 q 593 155 525 108 q 661 282 661 201 q 632 374 661 338 q 551 428 603 411 q 428 446 499 446 l 199 446 l 199 558 l 421 558 q 567 594 515 558 q 619 700 619 629 q 588 794 619 758 q 503 846 556 829 q 389 863 451 863 q 285 853 339 863 q 182 826 232 843 q 89 786 132 808 l 49 897 q 212 960 124 939 q 388 982 300 982 q 528 966 461 982 q 647 918 594 950 q 728 836 699 886 q 758 719 758 786 q 728 599 758 653 q 643 513 699 544 q 514 481 588 481 l 521 521 q 660 492 596 521 q 762 408 724 463 q 800 274 800 353 q 752 127 800 192 q 612 26 704 63 q 383 -11 519 -11 z "},"Ʃ":{"ha":668,"x_min":-43,"x_max":706,"o":"m 150 -11 q 46 6 97 -11 q -43 60 -6 24 l 0 160 q 64 122 31 135 q 131 108 97 108 q 226 140 186 108 q 265 244 267 172 l 258 722 q 290 870 257 813 q 380 956 322 928 q 513 983 438 983 q 618 966 568 983 q 706 913 668 949 l 664 811 q 599 850 632 838 q 533 863 565 863 q 470 851 501 863 q 419 811 439 840 q 399 728 399 782 l 404 250 q 381 118 406 169 q 318 38 357 67 q 235 -1 279 10 q 150 -11 190 -11 z "},"Ɇ":{"ha":931,"x_min":146,"x_max":853,"o":"m 194 -97 l 721 1069 l 831 1069 l 306 -97 l 194 -97 m 146 0 l 146 972 l 832 972 l 832 851 l 285 851 l 285 121 l 853 121 l 853 0 l 146 0 m 272 435 l 272 553 l 772 553 l 772 435 l 272 435 z "},"Ẽ":{"ha":931,"x_min":146,"x_max":851,"o":"m 146 0 l 146 972 l 832 972 l 832 851 l 285 851 l 285 121 l 851 121 l 851 0 l 146 0 m 272 435 l 272 553 l 772 553 l 772 435 l 272 435 m 597 1049 q 531 1064 560 1049 q 481 1099 503 1079 q 436 1133 458 1118 q 389 1149 414 1149 q 340 1122 358 1149 q 319 1057 321 1094 l 236 1057 q 276 1185 238 1133 q 381 1238 315 1238 q 448 1222 419 1238 q 499 1188 476 1207 q 543 1153 521 1168 q 590 1138 565 1138 q 639 1165 621 1138 q 658 1228 657 1192 l 740 1228 q 701 1101 739 1153 q 597 1049 663 1049 z "},"Ḛ":{"ha":931,"x_min":146,"x_max":851,"o":"m 146 0 l 146 972 l 832 972 l 832 851 l 285 851 l 285 121 l 851 121 l 851 0 l 146 0 m 272 435 l 272 553 l 772 553 l 772 435 l 272 435 m 597 -268 q 531 -253 560 -268 q 481 -218 503 -237 q 436 -183 458 -199 q 389 -168 414 -168 q 340 -195 358 -168 q 319 -260 321 -222 l 236 -260 q 276 -131 238 -183 q 381 -79 315 -79 q 448 -94 419 -79 q 499 -129 476 -110 q 543 -164 521 -149 q 590 -179 565 -179 q 639 -152 621 -179 q 658 -89 657 -125 l 740 -89 q 701 -216 739 -164 q 597 -268 663 -268 z "},"Ə":{"ha":1135,"x_min":67,"x_max":1068,"o":"m 568 -11 q 368 26 460 -11 q 209 131 276 64 q 104 291 142 199 q 67 492 67 383 l 67 531 l 944 531 l 944 413 l 160 413 l 204 486 q 231 332 204 401 q 306 213 257 263 q 421 136 354 164 q 568 108 488 108 q 715 135 649 108 q 828 212 781 163 q 903 329 876 261 q 929 479 929 397 l 929 492 q 901 638 929 571 q 822 755 872 706 q 703 832 771 804 q 558 860 636 860 q 447 847 501 860 q 342 810 392 835 q 253 746 293 785 l 169 842 q 276 919 215 888 q 408 967 336 950 q 560 983 481 983 q 763 947 671 983 q 924 842 856 910 q 1031 685 993 775 q 1068 488 1068 594 q 1031 290 1068 381 q 925 131 993 199 q 766 26 857 64 q 568 -11 675 -11 z "},"Ʒ":{"ha":867,"x_min":43,"x_max":797,"o":"m 413 -11 q 202 21 301 -11 q 43 106 103 53 l 94 215 q 229 140 146 169 q 410 110 313 110 q 596 157 531 110 q 661 286 661 204 q 598 410 661 364 q 400 456 535 456 l 319 456 l 319 558 l 633 914 l 646 851 l 81 851 l 81 972 l 753 972 l 753 875 l 439 521 l 379 564 l 425 564 q 632 529 550 564 q 756 431 714 494 q 797 286 797 368 q 756 136 797 204 q 628 28 714 68 q 413 -11 543 -11 z "},"Ǯ":{"ha":867,"x_min":43,"x_max":797,"o":"m 413 -11 q 202 21 301 -11 q 43 106 103 53 l 94 215 q 229 140 146 169 q 410 110 313 110 q 596 157 531 110 q 661 286 661 204 q 598 410 661 364 q 400 456 535 456 l 319 456 l 319 558 l 633 914 l 646 851 l 81 851 l 81 972 l 753 972 l 753 875 l 439 521 l 379 564 l 425 564 q 632 529 550 564 q 756 431 714 494 q 797 286 797 368 q 756 136 797 204 q 628 28 714 68 q 413 -11 543 -11 m 356 1051 l 171 1232 l 292 1232 l 475 1081 l 364 1081 l 547 1232 l 668 1232 l 483 1051 l 356 1051 z "},"Ƹ":{"ha":872,"x_min":76,"x_max":829,"o":"m 460 -11 q 245 28 331 -11 q 118 136 160 68 q 76 286 76 204 q 117 431 76 368 q 241 529 158 494 q 447 564 324 564 l 493 564 l 440 524 l 121 878 l 121 972 l 792 972 l 792 854 l 228 854 l 239 917 l 560 563 l 560 456 l 472 456 q 275 410 339 456 q 211 286 211 364 q 277 157 211 204 q 463 110 343 110 q 644 140 561 110 q 778 215 726 169 l 829 106 q 672 21 771 53 q 460 -11 572 -11 z "},"F":{"ha":882,"x_min":146,"x_max":832,"o":"m 146 0 l 146 972 l 832 972 l 832 851 l 285 851 l 285 0 l 146 0 m 271 393 l 271 513 l 772 513 l 772 393 l 271 393 z "},"Ḟ":{"ha":882,"x_min":146,"x_max":832,"o":"m 146 0 l 146 972 l 832 972 l 832 851 l 285 851 l 285 0 l 146 0 m 271 393 l 271 513 l 772 513 l 772 393 l 271 393 m 486 1076 q 428 1100 451 1076 q 404 1158 404 1124 q 428 1217 404 1193 q 486 1240 451 1240 q 544 1217 521 1240 q 568 1158 568 1193 q 544 1100 568 1124 q 486 1076 521 1076 z "},"Ƒ":{"ha":906,"x_min":-35,"x_max":853,"o":"m -35 -257 l 4 -149 q 80 -157 43 -162 q 142 -124 117 -151 q 167 -46 167 -96 l 167 972 l 853 972 l 853 851 l 304 851 l 304 -46 q 273 -173 304 -121 q 192 -251 242 -225 q 83 -279 143 -278 q -35 -257 24 -281 m 292 393 l 292 513 l 793 513 l 793 393 l 292 393 z "},"G":{"ha":1072,"x_min":67,"x_max":961,"o":"m 585 -11 q 378 26 472 -11 q 214 130 283 63 q 106 288 144 197 q 67 486 67 378 q 106 685 67 594 q 215 842 144 775 q 379 947 285 910 q 588 983 474 983 q 799 946 703 983 q 961 833 894 908 l 875 747 q 745 833 815 806 q 593 860 675 860 q 438 832 510 860 q 315 754 367 804 q 234 635 263 704 q 206 486 206 567 q 234 338 206 407 q 315 219 263 269 q 438 140 367 168 q 592 113 508 113 q 741 137 669 113 q 874 218 813 161 l 953 113 q 784 20 881 51 q 585 -11 688 -11 m 953 113 l 819 131 l 819 492 l 953 492 l 953 113 z "},"Ǵ":{"ha":1072,"x_min":67,"x_max":961,"o":"m 585 -11 q 378 26 472 -11 q 214 130 283 63 q 106 288 144 197 q 67 486 67 378 q 106 685 67 594 q 215 842 144 775 q 379 947 285 910 q 588 983 474 983 q 799 946 703 983 q 961 833 894 908 l 875 747 q 745 833 815 806 q 593 860 675 860 q 438 832 510 860 q 315 754 367 804 q 234 635 263 704 q 206 486 206 567 q 234 338 206 407 q 315 219 263 269 q 438 140 367 168 q 592 113 508 113 q 741 137 669 113 q 874 218 813 161 l 953 113 q 784 20 881 51 q 585 -11 688 -11 m 953 113 l 819 131 l 819 492 l 953 492 l 953 113 m 465 1051 l 654 1232 l 824 1232 l 590 1051 l 465 1051 z "},"Ğ":{"ha":1072,"x_min":67,"x_max":961,"o":"m 585 -11 q 378 26 472 -11 q 214 130 283 63 q 106 288 144 197 q 67 486 67 378 q 106 685 67 594 q 215 842 144 775 q 379 947 285 910 q 588 983 474 983 q 799 946 703 983 q 961 833 894 908 l 875 747 q 745 833 815 806 q 593 860 675 860 q 438 832 510 860 q 315 754 367 804 q 234 635 263 704 q 206 486 206 567 q 234 338 206 407 q 315 219 263 269 q 438 140 367 168 q 592 113 508 113 q 741 137 669 113 q 874 218 813 161 l 953 113 q 784 20 881 51 q 585 -11 688 -11 m 953 113 l 819 131 l 819 492 l 953 492 l 953 113 m 569 1057 q 411 1108 475 1057 q 344 1246 347 1158 l 435 1246 q 476 1165 438 1194 q 569 1135 515 1135 q 663 1165 624 1135 q 704 1246 703 1194 l 794 1246 q 728 1108 792 1158 q 569 1057 664 1057 z "},"Ǧ":{"ha":1072,"x_min":67,"x_max":961,"o":"m 585 -11 q 378 26 472 -11 q 214 130 283 63 q 106 288 144 197 q 67 486 67 378 q 106 685 67 594 q 215 842 144 775 q 379 947 285 910 q 588 983 474 983 q 799 946 703 983 q 961 833 894 908 l 875 747 q 745 833 815 806 q 593 860 675 860 q 438 832 510 860 q 315 754 367 804 q 234 635 263 704 q 206 486 206 567 q 234 338 206 407 q 315 219 263 269 q 438 140 367 168 q 592 113 508 113 q 741 137 669 113 q 874 218 813 161 l 953 113 q 784 20 881 51 q 585 -11 688 -11 m 953 113 l 819 131 l 819 492 l 953 492 l 953 113 m 506 1051 l 321 1232 l 442 1232 l 625 1081 l 514 1081 l 697 1232 l 818 1232 l 633 1051 l 506 1051 z "},"Ĝ":{"ha":1072,"x_min":67,"x_max":961,"o":"m 585 -11 q 378 26 472 -11 q 214 130 283 63 q 106 288 144 197 q 67 486 67 378 q 106 685 67 594 q 215 842 144 775 q 379 947 285 910 q 588 983 474 983 q 799 946 703 983 q 961 833 894 908 l 875 747 q 745 833 815 806 q 593 860 675 860 q 438 832 510 860 q 315 754 367 804 q 234 635 263 704 q 206 486 206 567 q 234 338 206 407 q 315 219 263 269 q 438 140 367 168 q 592 113 508 113 q 741 137 669 113 q 874 218 813 161 l 953 113 q 784 20 881 51 q 585 -11 688 -11 m 953 113 l 819 131 l 819 492 l 953 492 l 953 113 m 321 1051 l 506 1232 l 633 1232 l 818 1051 l 697 1051 l 514 1204 l 625 1204 l 442 1051 l 321 1051 z "},"Ģ":{"ha":1072,"x_min":67,"x_max":961,"o":"m 585 -11 q 378 26 472 -11 q 214 130 283 63 q 106 288 144 197 q 67 486 67 378 q 106 685 67 594 q 215 842 144 775 q 379 947 285 910 q 588 983 474 983 q 799 946 703 983 q 961 833 894 908 l 875 747 q 745 833 815 806 q 593 860 675 860 q 438 832 510 860 q 315 754 367 804 q 234 635 263 704 q 206 486 206 567 q 234 338 206 407 q 315 219 263 269 q 438 140 367 168 q 592 113 508 113 q 741 137 669 113 q 874 218 813 161 l 953 113 q 784 20 881 51 q 585 -11 688 -11 m 953 113 l 819 131 l 819 492 l 953 492 l 953 113 m 504 -351 l 550 -193 l 563 -243 q 510 -226 529 -243 q 492 -181 492 -208 q 511 -135 492 -153 q 563 -117 531 -117 q 615 -135 596 -117 q 633 -181 633 -154 q 630 -212 633 -194 q 615 -251 626 -231 l 574 -351 l 504 -351 z "},"Ġ":{"ha":1072,"x_min":67,"x_max":961,"o":"m 585 -11 q 378 26 472 -11 q 214 130 283 63 q 106 288 144 197 q 67 486 67 378 q 106 685 67 594 q 215 842 144 775 q 379 947 285 910 q 588 983 474 983 q 799 946 703 983 q 961 833 894 908 l 875 747 q 745 833 815 806 q 593 860 675 860 q 438 832 510 860 q 315 754 367 804 q 234 635 263 704 q 206 486 206 567 q 234 338 206 407 q 315 219 263 269 q 438 140 367 168 q 592 113 508 113 q 741 137 669 113 q 874 218 813 161 l 953 113 q 784 20 881 51 q 585 -11 688 -11 m 953 113 l 819 131 l 819 492 l 953 492 l 953 113 m 569 1076 q 511 1100 535 1076 q 488 1158 488 1124 q 511 1217 488 1193 q 569 1240 535 1240 q 628 1217 604 1240 q 651 1158 651 1193 q 628 1100 651 1124 q 569 1076 604 1076 z "},"Ɠ":{"ha":1085,"x_min":67,"x_max":1156,"o":"m 585 -11 q 378 26 472 -11 q 214 130 283 63 q 106 288 144 197 q 67 486 67 378 q 106 685 67 594 q 215 842 144 775 q 379 947 285 910 q 588 983 474 983 q 799 946 703 983 q 961 833 894 908 l 875 747 q 745 833 815 806 q 593 860 675 860 q 438 832 510 860 q 315 754 367 804 q 234 635 263 704 q 206 486 206 567 q 234 338 206 407 q 315 219 263 269 q 438 140 367 168 q 592 113 508 113 q 741 137 669 113 q 874 218 813 161 l 953 113 q 784 20 881 51 q 585 -11 688 -11 m 953 113 l 819 131 l 819 492 l 953 492 l 953 113 m 835 833 l 835 936 q 863 1060 835 1010 q 938 1137 892 1110 q 1042 1166 985 1164 q 1156 1144 1100 1168 l 1118 1036 q 1044 1044 1081 1051 q 985 1010 1008 1038 q 961 936 961 982 l 961 833 l 835 833 z "},"Ɂ":{"ha":793,"x_min":-39,"x_max":769,"o":"m 281 0 l 281 218 q 306 338 281 290 q 371 419 332 386 q 455 478 410 451 q 540 531 500 504 q 605 592 579 557 q 631 681 631 628 q 593 784 631 744 q 497 844 556 824 q 372 864 438 864 q 257 848 314 864 q 152 799 200 832 q 71 717 104 767 l -39 796 q 72 900 7 858 q 213 963 136 942 q 371 983 290 983 q 519 965 449 983 q 647 909 590 946 q 736 815 703 872 q 769 682 769 758 q 744 566 769 614 q 678 484 718 518 q 594 423 639 450 q 510 367 550 396 q 444 301 469 339 q 418 211 418 264 l 418 0 l 281 0 z "},"Ḡ":{"ha":1072,"x_min":67,"x_max":961,"o":"m 585 -11 q 378 26 472 -11 q 214 130 283 63 q 106 288 144 197 q 67 486 67 378 q 106 685 67 594 q 215 842 144 775 q 379 947 285 910 q 588 983 474 983 q 799 946 703 983 q 961 833 894 908 l 875 747 q 745 833 815 806 q 593 860 675 860 q 438 832 510 860 q 315 754 367 804 q 234 635 263 704 q 206 486 206 567 q 234 338 206 407 q 315 219 263 269 q 438 140 367 168 q 592 113 508 113 q 741 137 669 113 q 874 218 813 161 l 953 113 q 784 20 881 51 q 585 -11 688 -11 m 953 113 l 819 131 l 819 492 l 953 492 l 953 113 m 343 1100 l 343 1183 l 796 1183 l 796 1100 l 343 1100 z "},"Ǥ":{"ha":1114,"x_min":67,"x_max":1096,"o":"m 585 -11 q 378 26 472 -11 q 214 130 283 63 q 106 288 144 197 q 67 486 67 378 q 106 685 67 594 q 215 842 144 775 q 379 947 285 910 q 588 983 474 983 q 799 946 703 983 q 961 833 894 908 l 875 747 q 745 833 815 806 q 593 860 675 860 q 438 832 510 860 q 315 754 367 804 q 234 635 263 704 q 206 486 206 567 q 234 338 206 407 q 315 219 263 269 q 438 140 367 168 q 592 113 508 113 q 741 137 669 113 q 874 218 813 161 l 953 113 q 784 20 881 51 q 585 -11 688 -11 m 607 290 l 607 400 l 1096 400 l 1096 290 l 607 290 m 953 113 l 819 131 l 819 492 l 953 492 l 953 113 z "},"Ȝ":{"ha":846,"x_min":-24,"x_max":772,"o":"m -17 -143 l -24 -28 q 249 19 128 -8 q 454 85 369 47 q 584 174 539 124 q 629 289 629 224 q 596 378 629 346 q 506 419 563 411 q 375 414 449 428 l 189 374 l 181 489 l 335 522 q 463 564 404 539 q 555 626 521 589 q 589 717 589 664 q 569 788 589 756 q 510 842 550 821 q 407 865 471 864 q 299 855 360 867 q 171 818 239 843 q 32 756 103 793 l -14 858 q 128 928 54 900 q 277 969 203 956 q 419 983 351 983 q 597 947 529 982 q 697 858 665 913 q 729 743 729 804 q 686 613 729 668 q 569 521 643 557 q 404 464 496 485 l 399 494 q 590 499 506 519 q 724 424 675 479 q 772 283 772 368 q 715 122 772 194 q 552 -4 657 50 q 303 -93 447 -58 q -17 -143 158 -128 z "},"H":{"ha":1128,"x_min":146,"x_max":982,"o":"m 843 0 l 843 972 l 982 972 l 982 0 l 843 0 m 146 0 l 146 972 l 285 972 l 285 0 l 146 0 m 271 433 l 271 554 l 856 554 l 856 433 l 271 433 z "},"Ħ":{"ha":1149,"x_min":14,"x_max":1135,"o":"m 854 0 l 854 972 l 992 972 l 992 0 l 854 0 m 157 0 l 157 972 l 294 972 l 294 0 l 157 0 m 282 433 l 282 554 l 865 554 l 865 433 l 282 433 m 14 701 l 14 811 l 1135 811 l 1135 701 l 14 701 z "},"Ḫ":{"ha":1128,"x_min":146,"x_max":982,"o":"m 843 0 l 843 972 l 982 972 l 982 0 l 843 0 m 146 0 l 146 972 l 285 972 l 285 0 l 146 0 m 271 433 l 271 554 l 856 554 l 856 433 l 271 433 m 563 -274 q 404 -223 468 -274 q 338 -85 340 -172 l 428 -85 q 469 -166 431 -136 q 563 -196 508 -196 q 656 -166 617 -196 q 697 -85 696 -136 l 788 -85 q 721 -223 785 -172 q 563 -274 657 -274 z "},"Ȟ":{"ha":1128,"x_min":146,"x_max":982,"o":"m 843 0 l 843 972 l 982 972 l 982 0 l 843 0 m 146 0 l 146 972 l 285 972 l 285 0 l 146 0 m 271 433 l 271 554 l 856 554 l 856 433 l 271 433 m 499 1051 l 314 1232 l 435 1232 l 618 1081 l 507 1081 l 690 1232 l 811 1232 l 626 1051 l 499 1051 z "},"Ḩ":{"ha":1128,"x_min":86,"x_max":982,"o":"m 843 0 l 843 972 l 982 972 l 982 0 l 843 0 m 208 -311 q 142 -303 172 -311 q 86 -281 111 -296 l 114 -212 q 159 -231 136 -225 q 208 -236 182 -236 q 268 -222 249 -236 q 288 -181 288 -207 q 268 -141 288 -156 q 207 -126 249 -126 l 153 -126 l 188 8 l 263 8 l 244 -69 q 349 -107 317 -75 q 382 -185 382 -139 q 334 -277 382 -243 q 208 -311 286 -311 m 146 0 l 146 972 l 285 972 l 285 0 l 146 0 m 271 433 l 271 554 l 856 554 l 856 433 l 271 433 z "},"Ĥ":{"ha":1128,"x_min":146,"x_max":982,"o":"m 843 0 l 843 972 l 982 972 l 982 0 l 843 0 m 146 0 l 146 972 l 285 972 l 285 0 l 146 0 m 271 433 l 271 554 l 856 554 l 856 433 l 271 433 m 314 1051 l 499 1232 l 626 1232 l 811 1051 l 690 1051 l 507 1204 l 618 1204 l 435 1051 l 314 1051 z "},"Ḧ":{"ha":1128,"x_min":146,"x_max":982,"o":"m 843 0 l 843 972 l 982 972 l 982 0 l 843 0 m 146 0 l 146 972 l 285 972 l 285 0 l 146 0 m 271 433 l 271 554 l 856 554 l 856 433 l 271 433 m 692 1075 q 642 1095 663 1075 q 621 1146 621 1115 q 642 1198 621 1178 q 692 1218 663 1218 q 742 1198 721 1218 q 763 1146 763 1178 q 742 1095 763 1115 q 692 1075 721 1075 m 433 1075 q 383 1095 404 1075 q 363 1146 363 1115 q 383 1198 363 1178 q 433 1218 404 1218 q 483 1198 463 1218 q 504 1146 504 1178 q 483 1095 504 1115 q 433 1075 463 1075 z "},"Ḣ":{"ha":1128,"x_min":146,"x_max":982,"o":"m 843 0 l 843 972 l 982 972 l 982 0 l 843 0 m 146 0 l 146 972 l 285 972 l 285 0 l 146 0 m 271 433 l 271 554 l 856 554 l 856 433 l 271 433 m 563 1076 q 504 1100 528 1076 q 481 1158 481 1124 q 504 1217 481 1193 q 563 1240 528 1240 q 621 1217 597 1240 q 644 1158 644 1193 q 621 1100 644 1124 q 563 1076 597 1076 z "},"Ḥ":{"ha":1128,"x_min":146,"x_max":982,"o":"m 843 0 l 843 972 l 982 972 l 982 0 l 843 0 m 146 0 l 146 972 l 285 972 l 285 0 l 146 0 m 271 433 l 271 554 l 856 554 l 856 433 l 271 433 m 563 -267 q 504 -243 528 -267 q 481 -185 481 -219 q 504 -126 481 -150 q 563 -103 528 -103 q 621 -126 597 -103 q 644 -185 644 -150 q 621 -243 644 -219 q 563 -267 597 -267 z "},"Ꜧ":{"ha":1138,"x_min":151,"x_max":986,"o":"m 590 -232 l 631 -131 q 703 -160 665 -154 q 774 -157 740 -167 q 827 -119 807 -147 q 847 -47 847 -92 l 847 972 l 986 972 l 986 -53 q 947 -189 986 -137 q 847 -262 907 -240 q 717 -276 786 -283 q 590 -232 649 -268 m 151 0 l 151 972 l 290 972 l 290 0 l 151 0 m 274 433 l 274 554 l 868 554 l 868 433 l 274 433 z "},"Ɦ":{"ha":1358,"x_min":43,"x_max":1213,"o":"m 142 532 q 68 636 93 578 q 44 753 43 694 q 72 861 44 811 q 154 942 99 911 q 296 972 210 972 l 388 972 l 388 851 l 297 851 q 219 828 247 851 q 183 769 190 806 q 188 690 175 732 q 236 608 201 647 l 142 532 m 1074 0 l 1074 972 l 1213 972 l 1213 0 l 1074 0 m 376 0 l 376 972 l 514 972 l 514 0 l 376 0 m 501 433 l 501 554 l 1086 554 l 1086 433 l 501 433 z "},"Ɥ":{"ha":1046,"x_min":75,"x_max":900,"o":"m 900 972 l 900 0 l 767 0 l 767 553 l 806 531 q 667 358 760 413 q 447 304 575 304 q 175 409 275 304 q 75 711 75 514 l 75 972 l 213 972 l 213 715 q 283 499 213 571 q 475 428 354 428 q 683 503 604 428 q 761 736 761 579 l 761 972 l 900 972 z "},"I":{"ha":431,"x_min":146,"x_max":285,"o":"m 146 0 l 146 972 l 285 972 l 285 0 l 146 0 z "},"Ĳ":{"ha":1000,"x_min":121,"x_max":863,"o":"m 454 -11 q 270 16 356 -11 q 121 88 185 43 l 175 199 q 308 135 235 157 q 457 113 381 113 q 654 188 585 113 q 724 419 724 263 l 724 972 l 863 972 l 863 426 q 811 185 863 282 q 669 38 760 88 q 454 -11 578 -11 m 138 429 l 138 972 l 276 972 l 276 429 l 138 429 z "},"Í":{"ha":431,"x_min":110,"x_max":469,"o":"m 146 0 l 146 972 l 285 972 l 285 0 l 146 0 m 111 1051 l 300 1232 l 469 1232 l 236 1051 l 111 1051 z "},"Ĭ":{"ha":431,"x_min":-11,"x_max":440,"o":"m 146 0 l 146 972 l 285 972 l 285 0 l 146 0 m 215 1057 q 57 1108 121 1057 q -10 1246 -7 1158 l 81 1246 q 122 1165 83 1194 q 215 1135 161 1135 q 309 1165 269 1135 q 350 1246 349 1194 l 440 1246 q 374 1108 438 1158 q 215 1057 310 1057 z "},"Ǐ":{"ha":431,"x_min":-33,"x_max":463,"o":"m 146 0 l 146 972 l 285 972 l 285 0 l 146 0 m 151 1051 l -33 1232 l 88 1232 l 271 1081 l 160 1081 l 343 1232 l 464 1232 l 279 1051 l 151 1051 z "},"Î":{"ha":431,"x_min":-33,"x_max":463,"o":"m 146 0 l 146 972 l 285 972 l 285 0 l 146 0 m -33 1051 l 151 1232 l 279 1232 l 464 1051 l 343 1051 l 160 1204 l 271 1204 l 88 1051 l -33 1051 z "},"Ȉ":{"ha":431,"x_min":-114,"x_max":393,"o":"m 146 0 l 146 972 l 285 972 l 285 0 l 146 0 m 281 1051 l 126 1232 l 268 1232 l 393 1051 l 281 1051 m 38 1051 l -114 1232 l 26 1232 l 150 1051 l 38 1051 z "},"Ï":{"ha":431,"x_min":15,"x_max":415,"o":"m 146 0 l 146 972 l 285 972 l 285 0 l 146 0 m 344 1075 q 294 1095 315 1075 q 274 1146 274 1115 q 294 1198 274 1178 q 344 1218 315 1218 q 394 1198 374 1218 q 415 1146 415 1178 q 394 1095 415 1115 q 344 1075 374 1075 m 86 1075 q 36 1095 57 1075 q 15 1146 15 1115 q 36 1198 15 1178 q 86 1218 57 1218 q 136 1198 115 1218 q 157 1146 157 1178 q 136 1095 157 1115 q 86 1075 115 1075 z "},"Ḯ":{"ha":431,"x_min":21,"x_max":435,"o":"m 146 0 l 146 972 l 285 972 l 285 0 l 146 0 m 342 1068 q 294 1088 314 1068 q 274 1138 274 1108 q 294 1187 274 1167 q 342 1207 314 1207 q 391 1187 371 1207 q 411 1138 411 1167 q 391 1088 411 1108 q 342 1068 371 1068 m 90 1068 q 41 1088 61 1068 q 21 1138 21 1108 q 41 1187 21 1167 q 90 1207 61 1207 q 139 1187 119 1207 q 158 1138 158 1167 q 139 1088 158 1108 q 90 1068 119 1068 m 119 1249 l 283 1406 l 435 1406 l 229 1249 l 119 1249 z "},"İ":{"ha":431,"x_min":133,"x_max":297,"o":"m 146 0 l 146 972 l 285 972 l 285 0 l 146 0 m 215 1076 q 157 1100 181 1076 q 133 1158 133 1124 q 157 1217 133 1193 q 215 1240 181 1240 q 274 1217 250 1240 q 297 1158 297 1193 q 274 1100 297 1124 q 215 1076 250 1076 z "},"Ị":{"ha":431,"x_min":133,"x_max":297,"o":"m 146 0 l 146 972 l 285 972 l 285 0 l 146 0 m 215 -267 q 157 -243 181 -267 q 133 -185 133 -219 q 157 -126 133 -150 q 215 -103 181 -103 q 274 -126 250 -103 q 297 -185 297 -150 q 274 -243 297 -219 q 215 -267 250 -267 z "},"Ì":{"ha":431,"x_min":-39,"x_max":319,"o":"m 146 0 l 146 972 l 285 972 l 285 0 l 146 0 m 194 1051 l -39 1232 l 131 1232 l 319 1051 l 194 1051 z "},"Ỉ":{"ha":431,"x_min":67,"x_max":335,"o":"m 146 0 l 146 972 l 285 972 l 285 0 l 146 0 m 221 1014 l 175 1068 q 234 1110 215 1088 q 253 1161 253 1133 q 233 1208 253 1190 q 181 1226 214 1226 q 97 1200 138 1226 l 67 1263 q 127 1292 93 1282 q 193 1301 161 1301 q 267 1285 235 1301 q 317 1241 299 1269 q 335 1172 335 1213 q 307 1081 335 1121 q 221 1014 279 1042 z "},"Ȋ":{"ha":431,"x_min":-11,"x_max":440,"o":"m 146 0 l 146 972 l 285 972 l 285 0 l 146 0 m -10 1051 q 57 1190 -7 1139 q 215 1240 121 1240 q 374 1190 310 1240 q 440 1051 438 1139 l 350 1051 q 309 1133 349 1103 q 215 1163 269 1163 q 122 1133 161 1163 q 81 1051 83 1103 l -10 1051 z "},"Ī":{"ha":431,"x_min":31,"x_max":400,"o":"m 146 0 l 146 972 l 285 972 l 285 0 l 146 0 m 31 1100 l 31 1183 l 400 1183 l 400 1100 l 31 1100 z "},"Į":{"ha":431,"x_min":108,"x_max":335,"o":"m 146 0 l 146 972 l 285 972 l 285 0 l 146 0 m 246 -311 q 147 -275 185 -311 q 108 -176 108 -239 q 138 -67 108 -122 q 233 40 167 -11 l 283 0 q 219 -87 236 -47 q 201 -161 201 -128 q 219 -214 201 -194 q 264 -233 238 -233 q 311 -217 289 -233 l 335 -283 q 246 -311 300 -311 z "},"Ɩ":{"ha":531,"x_min":138,"x_max":539,"o":"m 371 -11 l 371 -11 q 258 14 311 -11 q 171 92 204 39 q 138 226 138 146 l 138 972 l 275 972 l 275 226 q 309 138 275 168 q 389 108 343 108 q 442 117 415 108 q 496 142 469 125 l 539 39 q 458 2 501 15 q 371 -11 414 -11 z "},"Ɨ":{"ha":469,"x_min":22,"x_max":447,"o":"m 165 0 l 165 972 l 304 972 l 304 0 l 165 0 m 22 443 l 22 553 l 447 553 l 447 443 l 22 443 z "},"Ĩ":{"ha":431,"x_min":6,"x_max":424,"o":"m 146 0 l 146 972 l 285 972 l 285 0 l 146 0 m 300 1049 q 240 1064 264 1049 q 200 1100 217 1079 q 168 1136 183 1121 q 133 1151 153 1151 q 99 1126 111 1151 q 88 1057 88 1101 l 6 1057 q 38 1188 7 1139 q 129 1238 69 1238 q 189 1222 165 1238 q 231 1186 213 1207 q 265 1151 249 1165 q 299 1136 281 1136 q 331 1160 319 1136 q 343 1226 343 1183 l 424 1226 q 392 1098 424 1147 q 300 1049 361 1049 z "},"Ḭ":{"ha":463,"x_min":21,"x_max":438,"o":"m 146 0 l 146 972 l 285 972 l 285 0 l 146 0 m 315 -268 q 256 -253 279 -268 q 215 -217 232 -237 q 183 -181 199 -196 q 149 -165 168 -165 q 115 -190 126 -165 q 103 -260 103 -215 l 21 -260 q 53 -128 22 -178 q 144 -79 85 -79 q 204 -94 181 -79 q 246 -131 228 -110 q 280 -166 264 -151 q 314 -181 296 -181 q 347 -157 335 -181 q 358 -90 358 -133 l 439 -90 q 408 -219 439 -169 q 315 -268 376 -268 z "},"J":{"ha":713,"x_min":-12,"x_max":575,"o":"m 271 -11 q 110 25 185 -11 q -12 129 35 61 l 68 224 q 159 138 108 168 q 271 108 210 108 q 438 306 438 108 l 438 851 l 86 851 l 86 972 l 575 972 l 575 313 q 498 69 575 150 q 271 -11 421 -11 z "},"Ĵ":{"ha":713,"x_min":-12,"x_max":579,"o":"m 271 -11 q 110 25 185 -11 q -12 129 35 61 l 68 224 q 159 138 108 168 q 271 108 210 108 q 438 306 438 108 l 438 851 l 86 851 l 86 972 l 575 972 l 575 313 q 498 69 575 150 q 271 -11 421 -11 m 83 1051 l 268 1232 l 396 1232 l 581 1051 l 460 1051 l 276 1204 l 388 1204 l 204 1051 l 83 1051 z "},"Ʝ":{"ha":710,"x_min":24,"x_max":681,"o":"m 272 -11 q 147 13 203 -11 q 57 83 90 36 q 24 192 24 129 q 49 290 24 243 q 138 366 75 336 q 307 396 200 396 l 681 396 l 681 285 l 307 285 q 209 269 243 285 q 164 232 175 254 q 153 190 153 210 q 167 144 153 164 q 208 112 182 124 q 271 100 235 100 q 345 117 308 100 q 406 172 382 133 q 431 279 431 211 l 433 851 l 83 851 l 83 972 l 572 972 l 568 279 q 524 111 568 175 q 413 18 481 47 q 272 -11 346 -11 z "},"Ɉ":{"ha":719,"x_min":-12,"x_max":718,"o":"m 271 -11 q 110 25 185 -11 q -12 129 35 61 l 68 224 q 159 138 108 168 q 271 108 210 108 q 438 306 438 108 l 438 851 l 86 851 l 86 972 l 575 972 l 575 313 q 498 69 575 150 q 271 -11 421 -11 m 225 443 l 225 553 l 718 553 l 718 443 l 225 443 z "},"K":{"ha":999,"x_min":146,"x_max":997,"o":"m 268 235 l 261 404 l 813 972 l 971 972 l 544 522 l 467 436 l 268 235 m 146 0 l 146 972 l 285 972 l 285 0 l 146 0 m 835 0 l 436 464 l 529 567 l 997 0 l 835 0 z "},"Ḱ":{"ha":999,"x_min":146,"x_max":997,"o":"m 268 235 l 261 404 l 813 972 l 971 972 l 544 522 l 467 436 l 268 235 m 146 0 l 146 972 l 285 972 l 285 0 l 146 0 m 835 0 l 436 464 l 529 567 l 997 0 l 835 0 m 417 1051 l 606 1232 l 775 1232 l 542 1051 l 417 1051 z "},"Ǩ":{"ha":999,"x_min":146,"x_max":997,"o":"m 268 235 l 261 404 l 813 972 l 971 972 l 544 522 l 467 436 l 268 235 m 146 0 l 146 972 l 285 972 l 285 0 l 146 0 m 835 0 l 436 464 l 529 567 l 997 0 l 835 0 m 457 1051 l 272 1232 l 393 1232 l 576 1081 l 465 1081 l 649 1232 l 769 1232 l 585 1051 l 457 1051 z "},"Ķ":{"ha":999,"x_min":146,"x_max":997,"o":"m 268 235 l 261 404 l 813 972 l 971 972 l 544 522 l 467 436 l 268 235 m 146 0 l 146 972 l 285 972 l 285 0 l 146 0 m 835 0 l 436 464 l 529 567 l 997 0 l 835 0 m 463 -351 l 508 -193 l 521 -243 q 469 -226 488 -243 q 450 -181 450 -208 q 469 -135 450 -153 q 521 -117 489 -117 q 573 -135 554 -117 q 592 -181 592 -154 q 588 -212 592 -194 q 574 -251 585 -231 l 532 -351 l 463 -351 z "},"Ḳ":{"ha":999,"x_min":146,"x_max":997,"o":"m 268 235 l 261 404 l 813 972 l 971 972 l 544 522 l 467 436 l 268 235 m 146 0 l 146 972 l 285 972 l 285 0 l 146 0 m 835 0 l 436 464 l 529 567 l 997 0 l 835 0 m 521 -267 q 463 -243 486 -267 q 439 -185 439 -219 q 463 -126 439 -150 q 521 -103 486 -103 q 579 -126 556 -103 q 603 -185 603 -150 q 579 -243 603 -219 q 521 -267 556 -267 z "},"Ƙ":{"ha":975,"x_min":146,"x_max":1004,"o":"m 268 242 l 261 413 l 694 946 q 797 1026 742 1006 q 906 1037 853 1047 q 1004 990 960 1026 l 939 897 q 861 923 906 926 q 778 871 817 919 l 268 242 m 146 0 l 146 972 l 285 972 l 285 0 l 146 0 m 835 0 l 433 468 l 525 571 l 997 0 l 835 0 z "},"Ḵ":{"ha":999,"x_min":146,"x_max":997,"o":"m 268 235 l 261 404 l 813 972 l 971 972 l 544 522 l 467 436 l 268 235 m 146 0 l 146 972 l 285 972 l 285 0 l 146 0 m 835 0 l 436 464 l 529 567 l 997 0 l 835 0 m 294 -228 l 294 -144 l 747 -144 l 747 -228 l 294 -228 z "},"Ꝁ":{"ha":999,"x_min":3,"x_max":997,"o":"m 268 235 l 261 404 l 813 972 l 971 972 l 268 235 m 146 0 l 146 972 l 285 972 l 285 0 l 146 0 m 835 0 l 436 464 l 529 567 l 997 0 l 835 0 m 3 733 l 3 840 l 497 840 l 497 733 l 3 733 z "},"L":{"ha":825,"x_min":146,"x_max":811,"o":"m 146 0 l 146 972 l 285 972 l 285 121 l 811 121 l 811 0 l 146 0 z "},"Ǉ":{"ha":1543,"x_min":146,"x_max":1406,"o":"m 146 0 l 146 972 l 285 972 l 285 121 l 811 121 l 811 0 l 146 0 m 1101 -11 q 940 25 1015 -11 q 818 129 865 61 l 899 224 q 990 138 939 168 q 1101 108 1040 108 q 1268 306 1268 108 l 1268 851 l 917 851 l 917 972 l 1406 972 l 1406 313 q 1328 69 1406 150 q 1101 -11 1251 -11 z "},"Ĺ":{"ha":825,"x_min":110,"x_max":811,"o":"m 146 0 l 146 972 l 285 972 l 285 121 l 811 121 l 811 0 l 146 0 m 111 1051 l 300 1232 l 469 1232 l 236 1051 l 111 1051 z "},"Ƚ":{"ha":838,"x_min":17,"x_max":825,"o":"m 160 0 l 160 972 l 297 972 l 297 121 l 825 121 l 825 0 l 160 0 m 17 443 l 17 553 l 510 553 l 510 443 l 17 443 z "},"Ɬ":{"ha":906,"x_min":-26,"x_max":893,"o":"m 228 0 l 228 972 l 365 972 l 365 121 l 893 121 l 893 0 l 228 0 m 193 443 q 67 469 115 443 q -4 534 18 494 q -26 618 -26 574 q -3 701 -26 667 q 56 755 19 736 q 132 774 92 774 q 212 751 174 774 q 274 681 250 729 q 299 553 299 632 l 228 553 q 199 647 228 618 q 139 676 169 676 q 101 661 115 676 q 86 625 86 646 q 110 576 86 599 q 197 553 135 553 l 667 553 l 668 443 l 193 443 z "},"Ľ":{"ha":825,"x_min":146,"x_max":811,"o":"m 146 0 l 146 972 l 285 972 l 285 121 l 811 121 l 811 0 l 146 0 m 608 750 l 608 1018 l 718 1018 l 701 750 l 608 750 z "},"Ḽ":{"ha":825,"x_min":146,"x_max":811,"o":"m 146 0 l 146 972 l 285 972 l 285 121 l 811 121 l 811 0 l 146 0 m 231 -278 l 415 -97 l 543 -97 l 728 -278 l 607 -278 l 424 -125 l 535 -125 l 351 -278 l 231 -278 z "},"Ļ":{"ha":825,"x_min":146,"x_max":811,"o":"m 146 0 l 146 972 l 285 972 l 285 121 l 811 121 l 811 0 l 146 0 m 421 -351 l 467 -193 l 479 -243 q 427 -226 446 -243 q 408 -181 408 -208 q 428 -135 408 -153 q 479 -117 447 -117 q 531 -135 513 -117 q 550 -181 550 -154 q 547 -212 550 -194 q 532 -251 543 -231 l 490 -351 l 421 -351 z "},"Ŀ":{"ha":825,"x_min":146,"x_max":811,"o":"m 146 0 l 146 972 l 285 972 l 285 121 l 811 121 l 811 0 l 146 0 m 646 475 q 585 500 610 475 q 561 563 561 525 q 585 624 561 600 q 646 649 610 649 q 704 624 681 649 q 728 563 728 600 q 704 500 728 525 q 646 475 681 475 z "},"Ḷ":{"ha":825,"x_min":146,"x_max":811,"o":"m 146 0 l 146 972 l 285 972 l 285 121 l 811 121 l 811 0 l 146 0 m 479 -267 q 421 -243 444 -267 q 397 -185 397 -219 q 421 -126 397 -150 q 479 -103 444 -103 q 538 -126 514 -103 q 561 -185 561 -150 q 538 -243 561 -219 q 479 -267 514 -267 z "},"Ḹ":{"ha":825,"x_min":-11,"x_max":811,"o":"m 146 0 l 146 972 l 285 972 l 285 121 l 811 121 l 811 0 l 146 0 m 479 -267 q 421 -243 444 -267 q 397 -185 397 -219 q 421 -126 397 -150 q 479 -103 444 -103 q 538 -126 514 -103 q 561 -185 561 -150 q 538 -243 561 -219 q 479 -267 514 -267 m -11 1100 l -11 1183 l 442 1183 l 442 1100 l -11 1100 z "},"Ⱡ":{"ha":881,"x_min":60,"x_max":868,"o":"m 203 0 l 203 972 l 340 972 l 340 121 l 868 121 l 868 0 l 203 0 m 60 379 l 60 488 l 553 488 l 553 379 l 60 379 m 60 601 l 60 708 l 553 708 l 553 601 l 60 601 z "},"ǈ":{"ha":1218,"x_min":146,"x_max":1115,"o":"m 146 0 l 146 972 l 285 972 l 285 121 l 811 121 l 811 0 l 146 0 m 857 -278 q 769 -267 811 -278 q 697 -233 726 -256 l 740 -131 q 849 -165 782 -165 q 930 -133 901 -165 q 958 -36 958 -100 l 958 736 l 1092 736 l 1092 -33 q 1031 -212 1092 -146 q 857 -278 971 -278 m 1025 878 q 960 903 986 878 q 935 964 935 928 q 960 1026 935 1001 q 1025 1051 986 1051 q 1090 1027 1064 1051 q 1115 967 1115 1003 q 1090 903 1115 929 q 1025 878 1065 878 z "},"Ḻ":{"ha":825,"x_min":146,"x_max":811,"o":"m 146 0 l 146 972 l 285 972 l 285 121 l 811 121 l 811 0 l 146 0 m 253 -228 l 253 -144 l 706 -144 l 706 -228 l 253 -228 z "},"Ɫ":{"ha":839,"x_min":-25,"x_max":825,"o":"m 160 0 l 160 972 l 299 972 l 299 121 l 825 121 l 825 0 l 160 0 m 369 454 q 300 468 336 454 q 231 501 264 482 q 169 533 199 519 q 118 547 140 547 q 71 523 89 547 q 51 461 53 499 l -25 461 q 15 585 -22 539 q 111 631 51 631 q 181 616 146 631 q 250 583 217 601 q 312 550 283 564 q 363 536 340 536 q 410 560 392 536 q 429 619 428 585 l 506 619 q 467 500 504 546 q 369 454 429 454 z "},"Ł":{"ha":835,"x_min":11,"x_max":822,"o":"m 157 0 l 157 972 l 296 972 l 296 121 l 822 121 l 822 0 l 157 0 m 72 318 l 11 396 l 450 729 l 511 651 l 72 318 z "},"M":{"ha":1326,"x_min":146,"x_max":1181,"o":"m 146 0 l 146 972 l 260 972 l 696 238 l 635 238 l 1065 972 l 1179 972 l 1181 0 l 1047 0 l 1046 763 l 1078 763 l 694 118 l 631 118 l 244 763 l 279 763 l 279 0 l 146 0 z "},"Ḿ":{"ha":1326,"x_min":146,"x_max":1181,"o":"m 146 0 l 146 972 l 260 972 l 696 238 l 635 238 l 1065 972 l 1179 972 l 1181 0 l 1047 0 l 1046 763 l 1078 763 l 694 118 l 631 118 l 244 763 l 279 763 l 279 0 l 146 0 m 558 1051 l 747 1232 l 917 1232 l 683 1051 l 558 1051 z "},"Ṁ":{"ha":1326,"x_min":146,"x_max":1181,"o":"m 146 0 l 146 972 l 260 972 l 696 238 l 635 238 l 1065 972 l 1179 972 l 1181 0 l 1047 0 l 1046 763 l 1078 763 l 694 118 l 631 118 l 244 763 l 279 763 l 279 0 l 146 0 m 663 1076 q 604 1100 628 1076 q 581 1158 581 1124 q 604 1217 581 1193 q 663 1240 628 1240 q 721 1217 697 1240 q 744 1158 744 1193 q 721 1100 744 1124 q 663 1076 697 1076 z "},"Ṃ":{"ha":1326,"x_min":146,"x_max":1181,"o":"m 146 0 l 146 972 l 260 972 l 696 238 l 635 238 l 1065 972 l 1179 972 l 1181 0 l 1047 0 l 1046 763 l 1078 763 l 694 118 l 631 118 l 244 763 l 279 763 l 279 0 l 146 0 m 663 -267 q 604 -243 628 -267 q 581 -185 581 -219 q 604 -126 581 -150 q 663 -103 628 -103 q 721 -126 697 -103 q 744 -185 744 -150 q 721 -243 744 -219 q 663 -267 697 -267 z "},"Ɱ":{"ha":1343,"x_min":163,"x_max":1196,"o":"m 810 -232 l 857 -128 q 927 -158 890 -151 q 994 -155 964 -165 q 1044 -117 1025 -144 q 1063 -44 1063 -90 l 1063 763 l 1093 763 l 711 118 l 647 118 l 261 763 l 296 763 l 296 0 l 163 0 l 163 972 l 276 972 l 711 238 l 651 238 l 1082 972 l 1196 972 l 1196 -49 q 1171 -167 1196 -118 q 1105 -243 1146 -215 q 1013 -278 1064 -271 q 910 -273 963 -285 q 810 -232 857 -261 z "},"Ɯ":{"ha":1704,"x_min":138,"x_max":1557,"o":"m 1557 972 l 1557 0 l 1424 0 l 1424 194 l 1442 175 q 1320 38 1404 88 q 1121 -11 1236 -11 q 912 44 996 -11 q 800 194 828 100 l 838 193 q 708 42 799 94 q 496 -11 617 -11 q 233 85 329 -11 q 138 368 138 181 l 138 972 l 276 972 l 276 372 q 344 176 276 239 q 518 113 413 113 q 707 178 635 113 q 779 392 779 244 l 779 972 l 918 972 l 918 372 q 983 176 918 239 q 1154 113 1049 113 q 1291 142 1232 113 q 1385 233 1350 171 q 1419 392 1419 294 l 1419 972 l 1557 972 z "},"N":{"ha":1128,"x_min":146,"x_max":982,"o":"m 146 0 l 146 972 l 260 972 l 903 174 l 843 174 l 843 972 l 982 972 l 982 0 l 868 0 l 225 799 l 285 799 l 285 0 l 146 0 z "},"Ǌ":{"ha":1840,"x_min":146,"x_max":1703,"o":"m 146 0 l 146 972 l 260 972 l 903 174 l 843 174 l 843 972 l 982 972 l 982 0 l 868 0 l 225 799 l 285 799 l 285 0 l 146 0 m 1399 -11 q 1238 25 1313 -11 q 1115 129 1163 61 l 1196 224 q 1287 138 1236 168 q 1399 108 1338 108 q 1565 306 1565 108 l 1565 851 l 1214 851 l 1214 972 l 1703 972 l 1703 313 q 1626 69 1703 150 q 1399 -11 1549 -11 z "},"Ń":{"ha":1128,"x_min":146,"x_max":982,"o":"m 146 0 l 146 972 l 260 972 l 903 174 l 843 174 l 843 972 l 982 972 l 982 0 l 868 0 l 225 799 l 285 799 l 285 0 l 146 0 m 458 1051 l 647 1232 l 817 1232 l 583 1051 l 458 1051 z "},"Ň":{"ha":1128,"x_min":146,"x_max":982,"o":"m 146 0 l 146 972 l 260 972 l 903 174 l 843 174 l 843 972 l 982 972 l 982 0 l 868 0 l 225 799 l 285 799 l 285 0 l 146 0 m 499 1051 l 314 1232 l 435 1232 l 618 1081 l 507 1081 l 690 1232 l 811 1232 l 626 1051 l 499 1051 z "},"Ṋ":{"ha":1128,"x_min":146,"x_max":982,"o":"m 146 0 l 146 972 l 260 972 l 903 174 l 843 174 l 843 972 l 982 972 l 982 0 l 868 0 l 225 799 l 285 799 l 285 0 l 146 0 m 315 -312 l 500 -132 l 628 -132 l 813 -312 l 692 -312 l 508 -160 l 619 -160 l 436 -312 l 315 -312 z "},"Ņ":{"ha":1128,"x_min":146,"x_max":982,"o":"m 146 0 l 146 972 l 260 972 l 903 174 l 843 174 l 843 972 l 982 972 l 982 0 l 868 0 l 225 799 l 285 799 l 285 0 l 146 0 m 504 -351 l 550 -193 l 563 -243 q 510 -226 529 -243 q 492 -181 492 -208 q 511 -135 492 -153 q 563 -117 531 -117 q 615 -135 596 -117 q 633 -181 633 -154 q 630 -212 633 -194 q 615 -251 626 -231 l 574 -351 l 504 -351 z "},"Ṅ":{"ha":1128,"x_min":146,"x_max":982,"o":"m 146 0 l 146 972 l 260 972 l 903 174 l 843 174 l 843 972 l 982 972 l 982 0 l 868 0 l 225 799 l 285 799 l 285 0 l 146 0 m 563 1076 q 504 1100 528 1076 q 481 1158 481 1124 q 504 1217 481 1193 q 563 1240 528 1240 q 621 1217 597 1240 q 644 1158 644 1193 q 621 1100 644 1124 q 563 1076 597 1076 z "},"Ṇ":{"ha":1128,"x_min":146,"x_max":982,"o":"m 146 0 l 146 972 l 260 972 l 903 174 l 843 174 l 843 972 l 982 972 l 982 0 l 868 0 l 225 799 l 285 799 l 285 0 l 146 0 m 563 -267 q 504 -243 528 -267 q 481 -185 481 -219 q 504 -126 481 -150 q 563 -103 528 -103 q 621 -126 597 -103 q 644 -185 644 -150 q 621 -243 644 -219 q 563 -267 597 -267 z "},"Ǹ":{"ha":1128,"x_min":146,"x_max":982,"o":"m 146 0 l 146 972 l 260 972 l 903 174 l 843 174 l 843 972 l 982 972 l 982 0 l 868 0 l 225 799 l 285 799 l 285 0 l 146 0 m 542 1051 l 308 1232 l 478 1232 l 667 1051 l 542 1051 z "},"Ɲ":{"ha":1129,"x_min":-35,"x_max":992,"o":"m -35 -257 l 4 -149 q 80 -157 43 -162 q 142 -124 117 -151 q 167 -46 167 -96 l 167 972 l 300 972 l 300 735 l 261 757 q 398 929 306 875 q 619 983 490 983 q 892 878 793 983 q 992 576 992 774 l 992 0 l 853 0 l 853 572 q 782 788 853 717 q 590 860 711 860 q 383 784 461 860 q 304 551 304 708 l 304 -46 q 273 -173 304 -121 q 192 -251 242 -225 q 83 -279 143 -278 q -35 -257 24 -281 z "},"ǋ":{"ha":1549,"x_min":146,"x_max":1446,"o":"m 146 0 l 146 972 l 260 972 l 903 174 l 843 174 l 843 972 l 982 972 l 982 0 l 868 0 l 225 799 l 285 799 l 285 0 l 146 0 m 1188 -278 q 1099 -267 1142 -278 q 1028 -233 1057 -256 l 1071 -131 q 1179 -165 1113 -165 q 1260 -133 1232 -165 q 1289 -36 1289 -100 l 1289 736 l 1422 736 l 1422 -33 q 1362 -212 1422 -146 q 1188 -278 1301 -278 m 1356 878 q 1291 903 1317 878 q 1265 964 1265 928 q 1291 1026 1265 1001 q 1356 1051 1317 1051 q 1420 1027 1394 1051 q 1446 967 1446 1003 q 1421 903 1446 929 q 1356 878 1396 878 z "},"Ṉ":{"ha":1128,"x_min":146,"x_max":982,"o":"m 146 0 l 146 972 l 260 972 l 903 174 l 843 174 l 843 972 l 982 972 l 982 0 l 868 0 l 225 799 l 285 799 l 285 0 l 146 0 m 336 -228 l 336 -144 l 789 -144 l 789 -228 l 336 -228 z "},"Ƞ":{"ha":1125,"x_min":163,"x_max":988,"o":"m 849 -269 l 849 572 q 778 788 849 717 q 586 860 707 860 q 378 784 457 860 q 300 551 300 708 l 300 0 l 163 0 l 163 972 l 296 972 l 296 735 l 256 757 q 394 929 301 875 q 614 983 486 983 q 888 878 788 983 q 988 576 988 774 l 988 -269 l 849 -269 z "},"Ñ":{"ha":1128,"x_min":146,"x_max":982,"o":"m 146 0 l 146 972 l 260 972 l 903 174 l 843 174 l 843 972 l 982 972 l 982 0 l 868 0 l 225 799 l 285 799 l 285 0 l 146 0 m 671 1049 q 605 1064 633 1049 q 554 1099 576 1079 q 510 1133 532 1118 q 463 1149 488 1149 q 413 1122 432 1149 q 393 1057 394 1094 l 310 1057 q 350 1185 311 1133 q 454 1238 389 1238 q 522 1222 493 1238 q 572 1188 550 1207 q 617 1153 594 1168 q 664 1138 639 1138 q 713 1165 694 1138 q 732 1228 731 1192 l 814 1228 q 774 1101 813 1153 q 671 1049 736 1049 z "},"Ŋ":{"ha":1128,"x_min":146,"x_max":982,"o":"m 146 0 l 146 972 l 260 972 l 903 174 l 868 0 l 225 799 l 285 799 l 285 0 l 146 0 m 681 -278 q 542 -249 607 -278 q 431 -168 476 -221 l 499 -68 q 578 -134 532 -110 q 681 -158 624 -158 q 803 -109 763 -158 q 843 40 843 -60 l 843 972 l 982 972 l 982 58 q 963 -90 982 -26 q 906 -194 943 -153 q 812 -257 868 -236 q 681 -278 756 -278 z "},"O":{"ha":1167,"x_min":67,"x_max":1100,"o":"m 585 -11 q 378 26 474 -11 q 214 131 283 64 q 106 289 144 199 q 67 486 67 379 q 106 683 67 593 q 214 841 144 774 q 378 946 283 908 q 585 983 472 983 q 790 947 696 983 q 953 842 883 910 q 1062 685 1024 775 q 1100 486 1100 594 q 1062 288 1100 378 q 953 130 1024 197 q 790 26 883 63 q 585 -11 696 -11 m 585 113 q 734 140 665 113 q 853 219 803 168 q 933 338 904 269 q 961 486 961 406 q 933 635 961 567 q 853 753 904 703 q 734 832 803 804 q 585 860 665 860 q 434 832 503 860 q 314 753 365 804 q 234 635 263 703 q 206 486 206 567 q 234 338 206 406 q 314 219 263 269 q 434 140 365 168 q 585 113 503 113 z "},"Ȣ":{"ha":1024,"x_min":72,"x_max":950,"o":"m 510 -11 q 278 28 376 -11 q 126 142 181 68 q 72 315 72 215 q 126 480 72 411 q 278 587 181 549 q 510 625 376 625 q 744 587 646 625 q 897 480 843 549 q 950 315 950 411 q 897 142 950 215 q 744 28 843 68 q 510 -11 646 -11 m 510 108 q 731 165 650 108 q 811 318 811 222 q 731 472 811 415 q 510 529 650 529 q 352 503 419 529 q 249 431 285 478 q 213 319 213 383 q 249 207 213 254 q 352 134 285 160 q 510 108 419 108 m 510 544 q 296 580 385 544 q 160 681 207 615 q 113 836 113 746 l 113 972 l 251 972 l 251 836 q 319 692 251 744 q 510 639 388 639 q 703 692 633 639 q 772 836 772 744 l 772 972 l 910 972 l 910 836 q 863 681 910 746 q 726 580 815 615 q 510 544 636 544 z "},"Ó":{"ha":1167,"x_min":67,"x_max":1100,"o":"m 585 -11 q 378 26 474 -11 q 214 131 283 64 q 106 289 144 199 q 67 486 67 379 q 106 683 67 593 q 214 841 144 774 q 378 946 283 908 q 585 983 472 983 q 790 947 696 983 q 953 842 883 910 q 1062 685 1024 775 q 1100 486 1100 594 q 1062 288 1100 378 q 953 130 1024 197 q 790 26 883 63 q 585 -11 696 -11 m 585 113 q 734 140 665 113 q 853 219 803 168 q 933 338 904 269 q 961 486 961 406 q 933 635 961 567 q 853 753 904 703 q 734 832 803 804 q 585 860 665 860 q 434 832 503 860 q 314 753 365 804 q 234 635 263 703 q 206 486 206 567 q 234 338 206 406 q 314 219 263 269 q 434 140 365 168 q 585 113 503 113 m 481 1051 l 669 1232 l 839 1232 l 606 1051 l 481 1051 z "},"Ŏ":{"ha":1167,"x_min":67,"x_max":1100,"o":"m 585 -11 q 378 26 474 -11 q 214 131 283 64 q 106 289 144 199 q 67 486 67 379 q 106 683 67 593 q 214 841 144 774 q 378 946 283 908 q 585 983 472 983 q 790 947 696 983 q 953 842 883 910 q 1062 685 1024 775 q 1100 486 1100 594 q 1062 288 1100 378 q 953 130 1024 197 q 790 26 883 63 q 585 -11 696 -11 m 585 113 q 734 140 665 113 q 853 219 803 168 q 933 338 904 269 q 961 486 961 406 q 933 635 961 567 q 853 753 904 703 q 734 832 803 804 q 585 860 665 860 q 434 832 503 860 q 314 753 365 804 q 234 635 263 703 q 206 486 206 567 q 234 338 206 406 q 314 219 263 269 q 434 140 365 168 q 585 113 503 113 m 585 1057 q 426 1108 490 1057 q 360 1246 363 1158 l 450 1246 q 492 1165 453 1194 q 585 1135 531 1135 q 678 1165 639 1135 q 719 1246 718 1194 l 810 1246 q 743 1108 807 1158 q 585 1057 679 1057 z "},"Ǒ":{"ha":1167,"x_min":67,"x_max":1100,"o":"m 585 -11 q 378 26 474 -11 q 214 131 283 64 q 106 289 144 199 q 67 486 67 379 q 106 683 67 593 q 214 841 144 774 q 378 946 283 908 q 585 983 472 983 q 790 947 696 983 q 953 842 883 910 q 1062 685 1024 775 q 1100 486 1100 594 q 1062 288 1100 378 q 953 130 1024 197 q 790 26 883 63 q 585 -11 696 -11 m 585 113 q 734 140 665 113 q 853 219 803 168 q 933 338 904 269 q 961 486 961 406 q 933 635 961 567 q 853 753 904 703 q 734 832 803 804 q 585 860 665 860 q 434 832 503 860 q 314 753 365 804 q 234 635 263 703 q 206 486 206 567 q 234 338 206 406 q 314 219 263 269 q 434 140 365 168 q 585 113 503 113 m 521 1051 l 336 1232 l 457 1232 l 640 1081 l 529 1081 l 713 1232 l 833 1232 l 649 1051 l 521 1051 z "},"Ɵ":{"ha":1178,"x_min":71,"x_max":1104,"o":"m 589 -11 q 382 26 476 -11 q 218 131 288 64 q 110 289 149 199 q 71 486 71 379 q 110 683 71 593 q 218 841 149 774 q 382 946 288 908 q 589 983 476 983 q 794 947 700 983 q 958 842 888 910 q 1066 685 1028 775 q 1104 486 1104 594 q 1066 288 1104 378 q 958 130 1028 197 q 794 26 888 63 q 589 -11 700 -11 m 589 113 q 727 136 664 113 q 840 203 790 160 q 922 308 890 247 q 964 443 953 369 l 213 443 q 253 308 222 369 q 335 203 285 247 q 449 136 385 160 q 589 113 514 113 m 218 553 l 958 553 q 920 675 951 619 q 839 772 889 731 q 725 836 789 813 q 589 860 661 860 q 451 836 515 860 q 338 772 388 813 q 256 675 288 731 q 218 553 225 619 z "},"Ô":{"ha":1167,"x_min":67,"x_max":1100,"o":"m 585 -11 q 378 26 474 -11 q 214 131 283 64 q 106 289 144 199 q 67 486 67 379 q 106 683 67 593 q 214 841 144 774 q 378 946 283 908 q 585 983 472 983 q 790 947 696 983 q 953 842 883 910 q 1062 685 1024 775 q 1100 486 1100 594 q 1062 288 1100 378 q 953 130 1024 197 q 790 26 883 63 q 585 -11 696 -11 m 585 113 q 734 140 665 113 q 853 219 803 168 q 933 338 904 269 q 961 486 961 406 q 933 635 961 567 q 853 753 904 703 q 734 832 803 804 q 585 860 665 860 q 434 832 503 860 q 314 753 365 804 q 234 635 263 703 q 206 486 206 567 q 234 338 206 406 q 314 219 263 269 q 434 140 365 168 q 585 113 503 113 m 336 1051 l 521 1232 l 649 1232 l 833 1051 l 713 1051 l 529 1204 l 640 1204 l 457 1051 l 336 1051 z "},"Ố":{"ha":1167,"x_min":67,"x_max":1100,"o":"m 585 -11 q 378 26 474 -11 q 214 131 283 64 q 106 289 144 199 q 67 486 67 379 q 106 683 67 593 q 214 841 144 774 q 378 946 283 908 q 585 983 472 983 q 790 947 696 983 q 953 842 883 910 q 1062 685 1024 775 q 1100 486 1100 594 q 1062 288 1100 378 q 953 130 1024 197 q 790 26 883 63 q 585 -11 696 -11 m 585 113 q 734 140 665 113 q 853 219 803 168 q 933 338 904 269 q 961 486 961 406 q 933 635 961 567 q 853 753 904 703 q 734 832 803 804 q 585 860 665 860 q 434 832 503 860 q 314 753 365 804 q 234 635 263 703 q 206 486 206 567 q 234 338 206 406 q 314 219 263 269 q 434 140 365 168 q 585 113 503 113 m 336 1051 l 522 1190 l 647 1190 l 833 1051 l 711 1051 l 529 1164 l 640 1164 l 458 1051 l 336 1051 m 722 1174 l 886 1331 l 1038 1331 l 832 1174 l 722 1174 z "},"Ộ":{"ha":1167,"x_min":67,"x_max":1100,"o":"m 585 -11 q 378 26 474 -11 q 214 131 283 64 q 106 289 144 199 q 67 486 67 379 q 106 683 67 593 q 214 841 144 774 q 378 946 283 908 q 585 983 472 983 q 790 947 696 983 q 953 842 883 910 q 1062 685 1024 775 q 1100 486 1100 594 q 1062 288 1100 378 q 953 130 1024 197 q 790 26 883 63 q 585 -11 696 -11 m 585 113 q 734 140 665 113 q 853 219 803 168 q 933 338 904 269 q 961 486 961 406 q 933 635 961 567 q 853 753 904 703 q 734 832 803 804 q 585 860 665 860 q 434 832 503 860 q 314 753 365 804 q 234 635 263 703 q 206 486 206 567 q 234 338 206 406 q 314 219 263 269 q 434 140 365 168 q 585 113 503 113 m 585 -267 q 526 -243 550 -267 q 503 -185 503 -219 q 526 -126 503 -150 q 585 -103 550 -103 q 643 -126 619 -103 q 667 -185 667 -150 q 643 -243 667 -219 q 585 -267 619 -267 m 336 1051 l 521 1232 l 649 1232 l 833 1051 l 713 1051 l 529 1204 l 640 1204 l 457 1051 l 336 1051 z "},"Ồ":{"ha":1167,"x_min":67,"x_max":1100,"o":"m 585 -11 q 378 26 474 -11 q 214 131 283 64 q 106 289 144 199 q 67 486 67 379 q 106 683 67 593 q 214 841 144 774 q 378 946 283 908 q 585 983 472 983 q 790 947 696 983 q 953 842 883 910 q 1062 685 1024 775 q 1100 486 1100 594 q 1062 288 1100 378 q 953 130 1024 197 q 790 26 883 63 q 585 -11 696 -11 m 585 113 q 734 140 665 113 q 853 219 803 168 q 933 338 904 269 q 961 486 961 406 q 933 635 961 567 q 853 753 904 703 q 734 832 803 804 q 585 860 665 860 q 434 832 503 860 q 314 753 365 804 q 234 635 263 703 q 206 486 206 567 q 234 338 206 406 q 314 219 263 269 q 434 140 365 168 q 585 113 503 113 m 336 1051 l 522 1190 l 647 1190 l 833 1051 l 711 1051 l 529 1164 l 640 1164 l 458 1051 l 336 1051 m 806 1174 l 600 1331 l 751 1331 l 914 1174 l 806 1174 z "},"Ổ":{"ha":1167,"x_min":67,"x_max":1100,"o":"m 585 -11 q 378 26 474 -11 q 214 131 283 64 q 106 289 144 199 q 67 486 67 379 q 106 683 67 593 q 214 841 144 774 q 378 946 283 908 q 585 983 472 983 q 790 947 696 983 q 953 842 883 910 q 1062 685 1024 775 q 1100 486 1100 594 q 1062 288 1100 378 q 953 130 1024 197 q 790 26 883 63 q 585 -11 696 -11 m 585 113 q 734 140 665 113 q 853 219 803 168 q 933 338 904 269 q 961 486 961 406 q 933 635 961 567 q 853 753 904 703 q 734 832 803 804 q 585 860 665 860 q 434 832 503 860 q 314 753 365 804 q 234 635 263 703 q 206 486 206 567 q 234 338 206 406 q 314 219 263 269 q 434 140 365 168 q 585 113 503 113 m 336 1051 l 522 1190 l 647 1190 l 833 1051 l 711 1051 l 529 1164 l 640 1164 l 458 1051 l 336 1051 m 786 1149 l 750 1189 q 792 1220 778 1203 q 806 1256 806 1238 q 791 1287 806 1275 q 753 1299 776 1299 q 693 1282 724 1299 l 668 1333 q 713 1353 688 1346 q 764 1360 739 1360 q 844 1333 815 1360 q 872 1263 872 1306 q 849 1194 872 1225 q 786 1149 825 1164 z "},"Ỗ":{"ha":1167,"x_min":67,"x_max":1100,"o":"m 585 -11 q 378 26 474 -11 q 214 131 283 64 q 106 289 144 199 q 67 486 67 379 q 106 683 67 593 q 214 841 144 774 q 378 946 283 908 q 585 983 472 983 q 790 947 696 983 q 953 842 883 910 q 1062 685 1024 775 q 1100 486 1100 594 q 1062 288 1100 378 q 953 130 1024 197 q 790 26 883 63 q 585 -11 696 -11 m 585 113 q 734 140 665 113 q 853 219 803 168 q 933 338 904 269 q 961 486 961 406 q 933 635 961 567 q 853 753 904 703 q 734 832 803 804 q 585 860 665 860 q 434 832 503 860 q 314 753 365 804 q 234 635 263 703 q 206 486 206 567 q 234 338 206 406 q 314 219 263 269 q 434 140 365 168 q 585 113 503 113 m 336 1051 l 522 1190 l 647 1190 l 833 1051 l 711 1051 l 529 1164 l 640 1164 l 458 1051 l 336 1051 m 682 1240 q 622 1251 649 1240 q 574 1278 596 1263 q 533 1304 553 1293 q 494 1315 514 1315 q 447 1297 463 1315 q 431 1246 432 1279 l 356 1246 q 393 1351 357 1314 q 489 1389 429 1389 q 565 1370 533 1389 q 623 1333 596 1351 q 676 1314 650 1314 q 723 1332 707 1314 q 740 1382 739 1350 l 814 1382 q 777 1278 813 1317 q 682 1240 742 1240 z "},"Ȍ":{"ha":1167,"x_min":67,"x_max":1100,"o":"m 585 -11 q 378 26 474 -11 q 214 131 283 64 q 106 289 144 199 q 67 486 67 379 q 106 683 67 593 q 214 841 144 774 q 378 946 283 908 q 585 983 472 983 q 790 947 696 983 q 953 842 883 910 q 1062 685 1024 775 q 1100 486 1100 594 q 1062 288 1100 378 q 953 130 1024 197 q 790 26 883 63 q 585 -11 696 -11 m 585 113 q 734 140 665 113 q 853 219 803 168 q 933 338 904 269 q 961 486 961 406 q 933 635 961 567 q 853 753 904 703 q 734 832 803 804 q 585 860 665 860 q 434 832 503 860 q 314 753 365 804 q 234 635 263 703 q 206 486 206 567 q 234 338 206 406 q 314 219 263 269 q 434 140 365 168 q 585 113 503 113 m 650 1051 l 496 1232 l 638 1232 l 763 1051 l 650 1051 m 407 1051 l 256 1232 l 396 1232 l 519 1051 l 407 1051 z "},"Ö":{"ha":1167,"x_min":67,"x_max":1100,"o":"m 585 -11 q 378 26 474 -11 q 214 131 283 64 q 106 289 144 199 q 67 486 67 379 q 106 683 67 593 q 214 841 144 774 q 378 946 283 908 q 585 983 472 983 q 790 947 696 983 q 953 842 883 910 q 1062 685 1024 775 q 1100 486 1100 594 q 1062 288 1100 378 q 953 130 1024 197 q 790 26 883 63 q 585 -11 696 -11 m 585 113 q 734 140 665 113 q 853 219 803 168 q 933 338 904 269 q 961 486 961 406 q 933 635 961 567 q 853 753 904 703 q 734 832 803 804 q 585 860 665 860 q 434 832 503 860 q 314 753 365 804 q 234 635 263 703 q 206 486 206 567 q 234 338 206 406 q 314 219 263 269 q 434 140 365 168 q 585 113 503 113 m 714 1075 q 664 1095 685 1075 q 643 1146 643 1115 q 664 1198 643 1178 q 714 1218 685 1218 q 764 1198 743 1218 q 785 1146 785 1178 q 764 1095 785 1115 q 714 1075 743 1075 m 456 1075 q 406 1095 426 1075 q 385 1146 385 1115 q 406 1198 385 1178 q 456 1218 426 1218 q 506 1198 485 1218 q 526 1146 526 1178 q 506 1095 526 1115 q 456 1075 485 1075 z "},"Ȫ":{"ha":1167,"x_min":67,"x_max":1100,"o":"m 585 -11 q 378 26 474 -11 q 214 131 283 64 q 106 289 144 199 q 67 486 67 379 q 106 683 67 593 q 214 841 144 774 q 378 946 283 908 q 585 983 472 983 q 790 947 696 983 q 953 842 883 910 q 1062 685 1024 775 q 1100 486 1100 594 q 1062 288 1100 378 q 953 130 1024 197 q 790 26 883 63 q 585 -11 696 -11 m 585 113 q 734 140 665 113 q 853 219 803 168 q 933 338 904 269 q 961 486 961 406 q 933 635 961 567 q 853 753 904 703 q 734 832 803 804 q 585 860 665 860 q 434 832 503 860 q 314 753 365 804 q 234 635 263 703 q 206 486 206 567 q 234 338 206 406 q 314 219 263 269 q 434 140 365 168 q 585 113 503 113 m 711 1058 q 663 1078 683 1058 q 643 1128 643 1099 q 663 1177 643 1157 q 711 1197 683 1197 q 760 1177 740 1197 q 781 1128 781 1157 q 760 1078 781 1099 q 711 1058 740 1058 m 460 1058 q 410 1078 431 1058 q 390 1128 390 1099 q 410 1177 390 1157 q 460 1197 431 1197 q 508 1177 489 1197 q 528 1128 528 1157 q 508 1078 528 1099 q 460 1058 489 1058 m 358 1290 l 358 1369 l 811 1369 l 811 1290 l 358 1290 z "},"Ȯ":{"ha":1167,"x_min":67,"x_max":1100,"o":"m 585 -11 q 378 26 474 -11 q 214 131 283 64 q 106 289 144 199 q 67 486 67 379 q 106 683 67 593 q 214 841 144 774 q 378 946 283 908 q 585 983 472 983 q 790 947 696 983 q 953 842 883 910 q 1062 685 1024 775 q 1100 486 1100 594 q 1062 288 1100 378 q 953 130 1024 197 q 790 26 883 63 q 585 -11 696 -11 m 585 113 q 734 140 665 113 q 853 219 803 168 q 933 338 904 269 q 961 486 961 406 q 933 635 961 567 q 853 753 904 703 q 734 832 803 804 q 585 860 665 860 q 434 832 503 860 q 314 753 365 804 q 234 635 263 703 q 206 486 206 567 q 234 338 206 406 q 314 219 263 269 q 434 140 365 168 q 585 113 503 113 m 585 1076 q 526 1100 550 1076 q 503 1158 503 1124 q 526 1217 503 1193 q 585 1240 550 1240 q 643 1217 619 1240 q 667 1158 667 1193 q 643 1100 667 1124 q 585 1076 619 1076 z "},"Ȱ":{"ha":1167,"x_min":67,"x_max":1100,"o":"m 585 -11 q 378 26 474 -11 q 214 131 283 64 q 106 289 144 199 q 67 486 67 379 q 106 683 67 593 q 214 841 144 774 q 378 946 283 908 q 585 983 472 983 q 790 947 696 983 q 953 842 883 910 q 1062 685 1024 775 q 1100 486 1100 594 q 1062 288 1100 378 q 953 130 1024 197 q 790 26 883 63 q 585 -11 696 -11 m 585 113 q 734 140 665 113 q 853 219 803 168 q 933 338 904 269 q 961 486 961 406 q 933 635 961 567 q 853 753 904 703 q 734 832 803 804 q 585 860 665 860 q 434 832 503 860 q 314 753 365 804 q 234 635 263 703 q 206 486 206 567 q 234 338 206 406 q 314 219 263 269 q 434 140 365 168 q 585 113 503 113 m 585 1067 q 535 1087 556 1067 q 514 1139 514 1107 q 535 1190 514 1169 q 585 1210 556 1210 q 635 1190 614 1210 q 656 1139 656 1169 q 635 1087 656 1107 q 585 1067 614 1067 m 358 1290 l 358 1369 l 811 1369 l 811 1290 l 358 1290 z "},"Ọ":{"ha":1167,"x_min":67,"x_max":1100,"o":"m 585 -11 q 378 26 474 -11 q 214 131 283 64 q 106 289 144 199 q 67 486 67 379 q 106 683 67 593 q 214 841 144 774 q 378 946 283 908 q 585 983 472 983 q 790 947 696 983 q 953 842 883 910 q 1062 685 1024 775 q 1100 486 1100 594 q 1062 288 1100 378 q 953 130 1024 197 q 790 26 883 63 q 585 -11 696 -11 m 585 113 q 734 140 665 113 q 853 219 803 168 q 933 338 904 269 q 961 486 961 406 q 933 635 961 567 q 853 753 904 703 q 734 832 803 804 q 585 860 665 860 q 434 832 503 860 q 314 753 365 804 q 234 635 263 703 q 206 486 206 567 q 234 338 206 406 q 314 219 263 269 q 434 140 365 168 q 585 113 503 113 m 585 -267 q 526 -243 550 -267 q 503 -185 503 -219 q 526 -126 503 -150 q 585 -103 550 -103 q 643 -126 619 -103 q 667 -185 667 -150 q 643 -243 667 -219 q 585 -267 619 -267 z "},"Ò":{"ha":1167,"x_min":67,"x_max":1100,"o":"m 585 -11 q 378 26 474 -11 q 214 131 283 64 q 106 289 144 199 q 67 486 67 379 q 106 683 67 593 q 214 841 144 774 q 378 946 283 908 q 585 983 472 983 q 790 947 696 983 q 953 842 883 910 q 1062 685 1024 775 q 1100 486 1100 594 q 1062 288 1100 378 q 953 130 1024 197 q 790 26 883 63 q 585 -11 696 -11 m 585 113 q 734 140 665 113 q 853 219 803 168 q 933 338 904 269 q 961 486 961 406 q 933 635 961 567 q 853 753 904 703 q 734 832 803 804 q 585 860 665 860 q 434 832 503 860 q 314 753 365 804 q 234 635 263 703 q 206 486 206 567 q 234 338 206 406 q 314 219 263 269 q 434 140 365 168 q 585 113 503 113 m 564 1051 l 331 1232 l 500 1232 l 689 1051 l 564 1051 z "},"Ỏ":{"ha":1167,"x_min":67,"x_max":1100,"o":"m 585 -11 q 378 26 474 -11 q 214 131 283 64 q 106 289 144 199 q 67 486 67 379 q 106 683 67 593 q 214 841 144 774 q 378 946 283 908 q 585 983 472 983 q 790 947 696 983 q 953 842 883 910 q 1062 685 1024 775 q 1100 486 1100 594 q 1062 288 1100 378 q 953 130 1024 197 q 790 26 883 63 q 585 -11 696 -11 m 585 113 q 734 140 665 113 q 853 219 803 168 q 933 338 904 269 q 961 486 961 406 q 933 635 961 567 q 853 753 904 703 q 734 832 803 804 q 585 860 665 860 q 434 832 503 860 q 314 753 365 804 q 234 635 263 703 q 206 486 206 567 q 234 338 206 406 q 314 219 263 269 q 434 140 365 168 q 585 113 503 113 m 590 1014 l 544 1068 q 603 1110 585 1088 q 622 1161 622 1133 q 603 1208 622 1190 q 550 1226 583 1226 q 467 1200 507 1226 l 436 1263 q 497 1292 463 1282 q 563 1301 531 1301 q 636 1285 604 1301 q 686 1241 668 1269 q 704 1172 704 1213 q 676 1081 704 1121 q 590 1014 649 1042 z "},"Ơ":{"ha":1167,"x_min":67,"x_max":1100,"o":"m 585 -11 q 378 26 472 -11 q 214 131 283 64 q 106 289 144 199 q 67 486 67 379 q 106 685 67 594 q 215 842 144 775 q 381 947 285 910 q 589 983 476 983 q 735 974 672 983 q 856 964 797 964 q 953 990 919 964 q 988 1065 988 1015 q 979 1112 988 1090 q 960 1151 971 1133 l 1043 1185 q 1072 1126 1061 1158 q 1082 1060 1082 1094 q 1022 925 1082 974 q 850 876 961 876 q 765 881 810 876 q 679 892 719 886 l 853 913 q 982 811 926 875 q 1069 664 1038 747 q 1100 486 1100 581 q 1062 288 1100 378 q 953 130 1024 197 q 790 26 883 63 q 585 -11 696 -11 m 585 113 q 734 141 665 113 q 853 219 803 169 q 933 338 904 269 q 961 486 961 407 q 933 634 961 565 q 853 753 904 703 q 734 831 803 803 q 585 860 665 860 q 434 832 503 860 q 314 753 365 804 q 234 635 263 703 q 206 486 206 567 q 234 338 206 407 q 314 219 263 269 q 434 140 365 168 q 585 113 503 113 z "},"Ớ":{"ha":1167,"x_min":67,"x_max":1100,"o":"m 585 -11 q 378 26 472 -11 q 214 131 283 64 q 106 289 144 199 q 67 486 67 379 q 106 685 67 594 q 215 842 144 775 q 381 947 285 910 q 589 983 476 983 q 735 974 672 983 q 856 964 797 964 q 953 990 919 964 q 988 1065 988 1015 q 979 1112 988 1090 q 960 1151 971 1133 l 1043 1185 q 1072 1126 1061 1158 q 1082 1060 1082 1094 q 1022 925 1082 974 q 850 876 961 876 q 765 881 810 876 q 679 892 719 886 l 853 913 q 982 811 926 875 q 1069 664 1038 747 q 1100 486 1100 581 q 1062 288 1100 378 q 953 130 1024 197 q 790 26 883 63 q 585 -11 696 -11 m 585 113 q 734 141 665 113 q 853 219 803 169 q 933 338 904 269 q 961 486 961 407 q 933 634 961 565 q 853 753 904 703 q 734 831 803 803 q 585 860 665 860 q 434 832 503 860 q 314 753 365 804 q 234 635 263 703 q 206 486 206 567 q 234 338 206 407 q 314 219 263 269 q 434 140 365 168 q 585 113 503 113 m 481 1051 l 669 1232 l 839 1232 l 606 1051 l 481 1051 z "},"Ợ":{"ha":1167,"x_min":67,"x_max":1100,"o":"m 585 -11 q 378 26 472 -11 q 214 131 283 64 q 106 289 144 199 q 67 486 67 379 q 106 685 67 594 q 215 842 144 775 q 381 947 285 910 q 589 983 476 983 q 735 974 672 983 q 856 964 797 964 q 953 990 919 964 q 988 1065 988 1015 q 979 1112 988 1090 q 960 1151 971 1133 l 1043 1185 q 1072 1126 1061 1158 q 1082 1060 1082 1094 q 1022 925 1082 974 q 850 876 961 876 q 765 881 810 876 q 679 892 719 886 l 853 913 q 982 811 926 875 q 1069 664 1038 747 q 1100 486 1100 581 q 1062 288 1100 378 q 953 130 1024 197 q 790 26 883 63 q 585 -11 696 -11 m 585 113 q 734 141 665 113 q 853 219 803 169 q 933 338 904 269 q 961 486 961 407 q 933 634 961 565 q 853 753 904 703 q 734 831 803 803 q 585 860 665 860 q 434 832 503 860 q 314 753 365 804 q 234 635 263 703 q 206 486 206 567 q 234 338 206 407 q 314 219 263 269 q 434 140 365 168 q 585 113 503 113 m 585 -267 q 526 -243 550 -267 q 503 -185 503 -219 q 526 -126 503 -150 q 585 -103 550 -103 q 643 -126 619 -103 q 667 -185 667 -150 q 643 -243 667 -219 q 585 -267 619 -267 z "},"Ờ":{"ha":1167,"x_min":67,"x_max":1100,"o":"m 585 -11 q 378 26 472 -11 q 214 131 283 64 q 106 289 144 199 q 67 486 67 379 q 106 685 67 594 q 215 842 144 775 q 381 947 285 910 q 589 983 476 983 q 735 974 672 983 q 856 964 797 964 q 953 990 919 964 q 988 1065 988 1015 q 979 1112 988 1090 q 960 1151 971 1133 l 1043 1185 q 1072 1126 1061 1158 q 1082 1060 1082 1094 q 1022 925 1082 974 q 850 876 961 876 q 765 881 810 876 q 679 892 719 886 l 853 913 q 982 811 926 875 q 1069 664 1038 747 q 1100 486 1100 581 q 1062 288 1100 378 q 953 130 1024 197 q 790 26 883 63 q 585 -11 696 -11 m 585 113 q 734 141 665 113 q 853 219 803 169 q 933 338 904 269 q 961 486 961 407 q 933 634 961 565 q 853 753 904 703 q 734 831 803 803 q 585 860 665 860 q 434 832 503 860 q 314 753 365 804 q 234 635 263 703 q 206 486 206 567 q 234 338 206 407 q 314 219 263 269 q 434 140 365 168 q 585 113 503 113 m 564 1051 l 331 1232 l 500 1232 l 689 1051 l 564 1051 z "},"Ở":{"ha":1167,"x_min":67,"x_max":1100,"o":"m 585 -11 q 378 26 472 -11 q 214 131 283 64 q 106 289 144 199 q 67 486 67 379 q 106 685 67 594 q 215 842 144 775 q 381 947 285 910 q 589 983 476 983 q 735 974 672 983 q 856 964 797 964 q 953 990 919 964 q 988 1065 988 1015 q 979 1112 988 1090 q 960 1151 971 1133 l 1043 1185 q 1072 1126 1061 1158 q 1082 1060 1082 1094 q 1022 925 1082 974 q 850 876 961 876 q 765 881 810 876 q 679 892 719 886 l 853 913 q 982 811 926 875 q 1069 664 1038 747 q 1100 486 1100 581 q 1062 288 1100 378 q 953 130 1024 197 q 790 26 883 63 q 585 -11 696 -11 m 585 113 q 734 141 665 113 q 853 219 803 169 q 933 338 904 269 q 961 486 961 407 q 933 634 961 565 q 853 753 904 703 q 734 831 803 803 q 585 860 665 860 q 434 832 503 860 q 314 753 365 804 q 234 635 263 703 q 206 486 206 567 q 234 338 206 407 q 314 219 263 269 q 434 140 365 168 q 585 113 503 113 m 590 1014 l 544 1068 q 603 1110 585 1088 q 622 1161 622 1133 q 603 1208 622 1190 q 550 1226 583 1226 q 467 1200 507 1226 l 436 1263 q 497 1292 463 1282 q 563 1301 531 1301 q 636 1285 604 1301 q 686 1241 668 1269 q 704 1172 704 1213 q 676 1081 704 1121 q 590 1014 649 1042 z "},"Ỡ":{"ha":1167,"x_min":67,"x_max":1100,"o":"m 585 -11 q 378 26 472 -11 q 214 131 283 64 q 106 289 144 199 q 67 486 67 379 q 106 685 67 594 q 215 842 144 775 q 381 947 285 910 q 589 983 476 983 q 735 974 672 983 q 856 964 797 964 q 953 990 919 964 q 988 1065 988 1015 q 979 1112 988 1090 q 960 1151 971 1133 l 1043 1185 q 1072 1126 1061 1158 q 1082 1060 1082 1094 q 1022 925 1082 974 q 850 876 961 876 q 765 881 810 876 q 679 892 719 886 l 853 913 q 982 811 926 875 q 1069 664 1038 747 q 1100 486 1100 581 q 1062 288 1100 378 q 953 130 1024 197 q 790 26 883 63 q 585 -11 696 -11 m 585 113 q 734 141 665 113 q 853 219 803 169 q 933 338 904 269 q 961 486 961 407 q 933 634 961 565 q 853 753 904 703 q 734 831 803 803 q 585 860 665 860 q 434 832 503 860 q 314 753 365 804 q 234 635 263 703 q 206 486 206 567 q 234 338 206 407 q 314 219 263 269 q 434 140 365 168 q 585 113 503 113 m 693 1049 q 627 1064 656 1049 q 576 1099 599 1079 q 532 1133 554 1118 q 485 1149 510 1149 q 435 1122 454 1149 q 415 1057 417 1094 l 332 1057 q 372 1185 333 1133 q 476 1238 411 1238 q 544 1222 515 1238 q 594 1188 572 1207 q 639 1153 617 1168 q 686 1138 661 1138 q 735 1165 717 1138 q 754 1228 753 1192 l 836 1228 q 797 1101 835 1153 q 693 1049 758 1049 z "},"Ő":{"ha":1167,"x_min":67,"x_max":1100,"o":"m 585 -11 q 378 26 474 -11 q 214 131 283 64 q 106 289 144 199 q 67 486 67 379 q 106 683 67 593 q 214 841 144 774 q 378 946 283 908 q 585 983 472 983 q 790 947 696 983 q 953 842 883 910 q 1062 685 1024 775 q 1100 486 1100 594 q 1062 288 1100 378 q 953 130 1024 197 q 790 26 883 63 q 585 -11 696 -11 m 585 113 q 734 140 665 113 q 853 219 803 168 q 933 338 904 269 q 961 486 961 406 q 933 635 961 567 q 853 753 904 703 q 734 832 803 804 q 585 860 665 860 q 434 832 503 860 q 314 753 365 804 q 234 635 263 703 q 206 486 206 567 q 234 338 206 406 q 314 219 263 269 q 434 140 365 168 q 585 113 503 113 m 650 1051 l 774 1232 l 914 1232 l 763 1051 l 650 1051 m 407 1051 l 532 1232 l 674 1232 l 519 1051 l 407 1051 z "},"Ȏ":{"ha":1167,"x_min":67,"x_max":1100,"o":"m 585 -11 q 378 26 474 -11 q 214 131 283 64 q 106 289 144 199 q 67 486 67 379 q 106 683 67 593 q 214 841 144 774 q 378 946 283 908 q 585 983 472 983 q 790 947 696 983 q 953 842 883 910 q 1062 685 1024 775 q 1100 486 1100 594 q 1062 288 1100 378 q 953 130 1024 197 q 790 26 883 63 q 585 -11 696 -11 m 585 113 q 734 140 665 113 q 853 219 803 168 q 933 338 904 269 q 961 486 961 406 q 933 635 961 567 q 853 753 904 703 q 734 832 803 804 q 585 860 665 860 q 434 832 503 860 q 314 753 365 804 q 234 635 263 703 q 206 486 206 567 q 234 338 206 406 q 314 219 263 269 q 434 140 365 168 q 585 113 503 113 m 360 1051 q 426 1190 363 1139 q 585 1240 490 1240 q 743 1190 679 1240 q 810 1051 807 1139 l 719 1051 q 678 1133 718 1103 q 585 1163 639 1163 q 492 1133 531 1163 q 450 1051 453 1103 l 360 1051 z "},"Ō":{"ha":1167,"x_min":67,"x_max":1100,"o":"m 585 -11 q 378 26 474 -11 q 214 131 283 64 q 106 289 144 199 q 67 486 67 379 q 106 683 67 593 q 214 841 144 774 q 378 946 283 908 q 585 983 472 983 q 790 947 696 983 q 953 842 883 910 q 1062 685 1024 775 q 1100 486 1100 594 q 1062 288 1100 378 q 953 130 1024 197 q 790 26 883 63 q 585 -11 696 -11 m 585 113 q 734 140 665 113 q 853 219 803 168 q 933 338 904 269 q 961 486 961 406 q 933 635 961 567 q 853 753 904 703 q 734 832 803 804 q 585 860 665 860 q 434 832 503 860 q 314 753 365 804 q 234 635 263 703 q 206 486 206 567 q 234 338 206 406 q 314 219 263 269 q 434 140 365 168 q 585 113 503 113 m 358 1100 l 358 1183 l 811 1183 l 811 1100 l 358 1100 z "},"Ṓ":{"ha":1167,"x_min":67,"x_max":1100,"o":"m 585 -11 q 378 26 474 -11 q 214 131 283 64 q 106 289 144 199 q 67 486 67 379 q 106 683 67 593 q 214 841 144 774 q 378 946 283 908 q 585 983 472 983 q 790 947 696 983 q 953 842 883 910 q 1062 685 1024 775 q 1100 486 1100 594 q 1062 288 1100 378 q 953 130 1024 197 q 790 26 883 63 q 585 -11 696 -11 m 585 113 q 734 140 665 113 q 853 219 803 168 q 933 338 904 269 q 961 486 961 406 q 933 635 961 567 q 853 753 904 703 q 734 832 803 804 q 585 860 665 860 q 434 832 503 860 q 314 753 365 804 q 234 635 263 703 q 206 486 206 567 q 234 338 206 406 q 314 219 263 269 q 434 140 365 168 q 585 113 503 113 m 358 1089 l 358 1168 l 811 1168 l 811 1089 l 358 1089 m 489 1249 l 653 1406 l 804 1406 l 599 1249 l 489 1249 z "},"Ṑ":{"ha":1167,"x_min":67,"x_max":1100,"o":"m 585 -11 q 378 26 474 -11 q 214 131 283 64 q 106 289 144 199 q 67 486 67 379 q 106 683 67 593 q 214 841 144 774 q 378 946 283 908 q 585 983 472 983 q 790 947 696 983 q 953 842 883 910 q 1062 685 1024 775 q 1100 486 1100 594 q 1062 288 1100 378 q 953 130 1024 197 q 790 26 883 63 q 585 -11 696 -11 m 585 113 q 734 140 665 113 q 853 219 803 168 q 933 338 904 269 q 961 486 961 406 q 933 635 961 567 q 853 753 904 703 q 734 832 803 804 q 585 860 665 860 q 434 832 503 860 q 314 753 365 804 q 234 635 263 703 q 206 486 206 567 q 234 338 206 406 q 314 219 263 269 q 434 140 365 168 q 585 113 503 113 m 358 1089 l 358 1168 l 811 1168 l 811 1089 l 358 1089 m 572 1249 l 367 1406 l 518 1406 l 681 1249 l 572 1249 z "},"Ꞷ":{"ha":1460,"x_min":92,"x_max":1369,"o":"m 451 -8 q 288 33 356 -8 q 176 142 219 74 q 113 299 133 211 q 92 482 92 386 q 131 748 92 617 q 246 972 171 879 l 401 972 q 306 822 344 904 q 249 653 268 740 q 229 481 229 565 q 256 299 229 382 q 335 167 282 217 q 467 117 388 117 q 565 145 522 117 q 633 232 608 174 q 657 379 657 290 l 657 600 l 801 600 l 801 379 q 826 231 801 289 q 894 145 851 174 q 994 117 938 117 q 1127 167 1075 117 q 1204 301 1179 218 q 1229 482 1229 385 q 1211 651 1229 565 q 1156 820 1193 738 q 1061 972 1119 903 l 1217 972 q 1301 828 1268 908 q 1352 659 1335 747 q 1369 481 1369 571 q 1348 298 1369 385 q 1283 142 1326 211 q 1172 32 1240 72 q 1008 -8 1103 -8 q 844 33 915 -8 q 732 153 772 75 q 692 342 692 232 l 768 342 q 728 153 768 232 q 616 33 688 75 q 451 -8 544 -8 z "},"Ǫ":{"ha":1167,"x_min":67,"x_max":1100,"o":"m 596 -311 q 474 -272 518 -311 q 429 -171 429 -233 q 448 -95 429 -133 q 510 -21 467 -57 q 628 44 554 15 l 632 -8 q 606 -10 618 -10 q 585 -11 594 -11 q 378 26 472 -11 q 215 130 285 63 q 106 288 144 197 q 67 486 67 378 q 106 685 67 594 q 215 842 144 775 q 378 947 285 910 q 585 983 472 983 q 790 947 696 983 q 953 842 883 910 q 1062 685 1024 775 q 1100 486 1100 594 q 1050 264 1100 363 q 916 100 1000 165 q 728 8 832 35 q 619 -33 665 -7 q 549 -92 574 -60 q 524 -161 524 -124 q 549 -215 524 -196 q 610 -233 574 -233 q 655 -226 632 -233 q 694 -210 678 -219 l 721 -278 q 663 -302 696 -293 q 596 -311 631 -311 m 585 113 q 734 140 665 113 q 853 219 803 168 q 933 338 904 269 q 961 486 961 406 q 933 635 961 567 q 853 753 904 703 q 734 832 803 804 q 585 860 665 860 q 434 832 503 860 q 314 753 365 804 q 234 635 263 703 q 206 486 206 567 q 234 338 206 406 q 314 219 263 269 q 434 140 365 168 q 585 113 503 113 z "},"Ǭ":{"ha":1167,"x_min":67,"x_max":1100,"o":"m 596 -311 q 474 -272 518 -311 q 429 -171 429 -233 q 448 -95 429 -133 q 510 -21 467 -57 q 628 44 554 15 l 632 -8 q 606 -10 618 -10 q 585 -11 594 -11 q 378 26 472 -11 q 215 130 285 63 q 106 288 144 197 q 67 486 67 378 q 106 685 67 594 q 215 842 144 775 q 378 947 285 910 q 585 983 472 983 q 790 947 696 983 q 953 842 883 910 q 1062 685 1024 775 q 1100 486 1100 594 q 1050 264 1100 363 q 916 100 1000 165 q 728 8 832 35 q 619 -33 665 -7 q 549 -92 574 -60 q 524 -161 524 -124 q 549 -215 524 -196 q 610 -233 574 -233 q 655 -226 632 -233 q 694 -210 678 -219 l 721 -278 q 663 -302 696 -293 q 596 -311 631 -311 m 585 113 q 734 140 665 113 q 853 219 803 168 q 933 338 904 269 q 961 486 961 406 q 933 635 961 567 q 853 753 904 703 q 734 832 803 804 q 585 860 665 860 q 434 832 503 860 q 314 753 365 804 q 234 635 263 703 q 206 486 206 567 q 234 338 206 406 q 314 219 263 269 q 434 140 365 168 q 585 113 503 113 m 358 1100 l 358 1183 l 811 1183 l 811 1100 l 358 1100 z "},"Ɔ":{"ha":990,"x_min":39,"x_max":924,"o":"m 410 983 q 614 947 519 983 q 777 842 708 910 q 885 685 846 775 q 924 486 924 594 q 885 288 924 378 q 776 130 846 197 q 613 26 707 63 q 408 -11 519 -11 q 201 28 296 -11 q 39 140 106 67 l 128 228 q 254 141 185 169 q 403 113 324 113 q 554 140 485 113 q 676 218 624 168 q 756 337 728 268 q 785 486 785 406 q 756 635 785 567 q 676 754 728 704 q 554 832 624 804 q 403 860 485 860 q 254 831 324 860 q 128 743 185 803 l 39 831 q 201 944 106 906 q 410 983 296 983 z "},"Ø":{"ha":1167,"x_min":67,"x_max":1100,"o":"m 585 -11 q 378 26 474 -11 q 214 131 283 64 q 106 289 144 199 q 67 486 67 379 q 106 683 67 593 q 214 841 144 774 q 378 946 283 908 q 585 983 472 983 q 790 947 696 983 q 953 842 883 910 q 1062 685 1024 775 q 1100 486 1100 594 q 1062 288 1100 378 q 953 130 1024 197 q 790 26 883 63 q 585 -11 696 -11 m 585 113 q 734 140 665 113 q 853 219 803 168 q 933 338 904 269 q 961 486 961 406 q 933 635 961 567 q 853 753 904 703 q 734 832 803 804 q 585 860 665 860 q 434 832 503 860 q 314 753 365 804 q 234 635 263 703 q 206 486 206 567 q 234 338 206 406 q 314 219 263 269 q 434 140 365 168 q 585 113 503 113 m 204 -97 l 847 1069 l 965 1069 l 324 -97 l 204 -97 z "},"Ǿ":{"ha":1167,"x_min":67,"x_max":1100,"o":"m 585 -11 q 378 26 474 -11 q 214 131 283 64 q 106 289 144 199 q 67 486 67 379 q 106 683 67 593 q 214 841 144 774 q 378 946 283 908 q 585 983 472 983 q 790 947 696 983 q 953 842 883 910 q 1062 685 1024 775 q 1100 486 1100 594 q 1062 288 1100 378 q 953 130 1024 197 q 790 26 883 63 q 585 -11 696 -11 m 585 113 q 734 140 665 113 q 853 219 803 168 q 933 338 904 269 q 961 486 961 406 q 933 635 961 567 q 853 753 904 703 q 734 832 803 804 q 585 860 665 860 q 434 832 503 860 q 314 753 365 804 q 234 635 263 703 q 206 486 206 567 q 234 338 206 406 q 314 219 263 269 q 434 140 365 168 q 585 113 503 113 m 204 -97 l 847 1069 l 965 1069 l 324 -97 l 204 -97 m 481 1051 l 669 1232 l 839 1232 l 606 1051 l 481 1051 z "},"Õ":{"ha":1167,"x_min":67,"x_max":1100,"o":"m 585 -11 q 378 26 474 -11 q 214 131 283 64 q 106 289 144 199 q 67 486 67 379 q 106 683 67 593 q 214 841 144 774 q 378 946 283 908 q 585 983 472 983 q 790 947 696 983 q 953 842 883 910 q 1062 685 1024 775 q 1100 486 1100 594 q 1062 288 1100 378 q 953 130 1024 197 q 790 26 883 63 q 585 -11 696 -11 m 585 113 q 734 140 665 113 q 853 219 803 168 q 933 338 904 269 q 961 486 961 406 q 933 635 961 567 q 853 753 904 703 q 734 832 803 804 q 585 860 665 860 q 434 832 503 860 q 314 753 365 804 q 234 635 263 703 q 206 486 206 567 q 234 338 206 406 q 314 219 263 269 q 434 140 365 168 q 585 113 503 113 m 693 1049 q 627 1064 656 1049 q 576 1099 599 1079 q 532 1133 554 1118 q 485 1149 510 1149 q 435 1122 454 1149 q 415 1057 417 1094 l 332 1057 q 372 1185 333 1133 q 476 1238 411 1238 q 544 1222 515 1238 q 594 1188 572 1207 q 639 1153 617 1168 q 686 1138 661 1138 q 735 1165 717 1138 q 754 1228 753 1192 l 836 1228 q 797 1101 835 1153 q 693 1049 758 1049 z "},"Ṍ":{"ha":1167,"x_min":67,"x_max":1100,"o":"m 585 -11 q 378 26 474 -11 q 214 131 283 64 q 106 289 144 199 q 67 486 67 379 q 106 683 67 593 q 214 841 144 774 q 378 946 283 908 q 585 983 472 983 q 790 947 696 983 q 953 842 883 910 q 1062 685 1024 775 q 1100 486 1100 594 q 1062 288 1100 378 q 953 130 1024 197 q 790 26 883 63 q 585 -11 696 -11 m 585 113 q 734 140 665 113 q 853 219 803 168 q 933 338 904 269 q 961 486 961 406 q 933 635 961 567 q 853 753 904 703 q 734 832 803 804 q 585 860 665 860 q 434 832 503 860 q 314 753 365 804 q 234 635 263 703 q 206 486 206 567 q 234 338 206 406 q 314 219 263 269 q 434 140 365 168 q 585 113 503 113 m 682 1058 q 622 1069 649 1058 q 574 1096 596 1081 q 533 1122 553 1111 q 494 1133 514 1133 q 447 1115 463 1133 q 431 1064 432 1097 l 356 1064 q 393 1169 357 1132 q 489 1207 429 1207 q 565 1188 533 1207 q 623 1151 596 1169 q 676 1132 650 1132 q 723 1150 707 1132 q 740 1200 739 1168 l 814 1200 q 777 1097 813 1135 q 682 1058 742 1058 m 489 1249 l 653 1406 l 804 1406 l 599 1249 l 489 1249 z "},"Ṏ":{"ha":1167,"x_min":67,"x_max":1100,"o":"m 585 -11 q 378 26 474 -11 q 214 131 283 64 q 106 289 144 199 q 67 486 67 379 q 106 683 67 593 q 214 841 144 774 q 378 946 283 908 q 585 983 472 983 q 790 947 696 983 q 953 842 883 910 q 1062 685 1024 775 q 1100 486 1100 594 q 1062 288 1100 378 q 953 130 1024 197 q 790 26 883 63 q 585 -11 696 -11 m 585 113 q 734 140 665 113 q 853 219 803 168 q 933 338 904 269 q 961 486 961 406 q 933 635 961 567 q 853 753 904 703 q 734 832 803 804 q 585 860 665 860 q 434 832 503 860 q 314 753 365 804 q 234 635 263 703 q 206 486 206 567 q 234 338 206 406 q 314 219 263 269 q 434 140 365 168 q 585 113 503 113 m 682 1058 q 622 1069 649 1058 q 574 1096 596 1081 q 533 1122 553 1111 q 494 1133 514 1133 q 447 1115 463 1133 q 431 1064 432 1097 l 356 1064 q 393 1169 357 1132 q 489 1207 429 1207 q 565 1188 533 1207 q 623 1151 596 1169 q 676 1132 650 1132 q 723 1150 707 1132 q 740 1200 739 1168 l 814 1200 q 777 1097 813 1135 q 682 1058 742 1058 m 711 1265 q 663 1285 683 1265 q 643 1335 643 1306 q 663 1384 643 1364 q 711 1404 683 1404 q 760 1384 740 1404 q 781 1335 781 1364 q 760 1285 781 1306 q 711 1265 740 1265 m 460 1265 q 410 1285 431 1265 q 390 1335 390 1306 q 410 1384 390 1364 q 460 1404 431 1404 q 508 1384 489 1404 q 528 1335 528 1364 q 508 1285 528 1306 q 460 1265 489 1265 z "},"Ȭ":{"ha":1167,"x_min":67,"x_max":1100,"o":"m 585 -11 q 378 26 474 -11 q 214 131 283 64 q 106 289 144 199 q 67 486 67 379 q 106 683 67 593 q 214 841 144 774 q 378 946 283 908 q 585 983 472 983 q 790 947 696 983 q 953 842 883 910 q 1062 685 1024 775 q 1100 486 1100 594 q 1062 288 1100 378 q 953 130 1024 197 q 790 26 883 63 q 585 -11 696 -11 m 585 113 q 734 140 665 113 q 853 219 803 168 q 933 338 904 269 q 961 486 961 406 q 933 635 961 567 q 853 753 904 703 q 734 832 803 804 q 585 860 665 860 q 434 832 503 860 q 314 753 365 804 q 234 635 263 703 q 206 486 206 567 q 234 338 206 406 q 314 219 263 269 q 434 140 365 168 q 585 113 503 113 m 682 1058 q 622 1069 649 1058 q 574 1096 596 1081 q 533 1122 553 1111 q 494 1133 514 1133 q 447 1115 463 1133 q 431 1064 432 1097 l 356 1064 q 393 1169 357 1132 q 489 1207 429 1207 q 565 1188 533 1207 q 623 1151 596 1169 q 676 1132 650 1132 q 723 1150 707 1132 q 740 1200 739 1168 l 814 1200 q 777 1097 813 1135 q 682 1058 742 1058 m 358 1290 l 358 1369 l 811 1369 l 811 1290 l 358 1290 z "},"Œ":{"ha":1564,"x_min":67,"x_max":1485,"o":"m 592 0 q 318 61 436 0 q 133 231 200 122 q 67 485 67 340 q 133 740 67 629 q 318 911 200 850 q 592 972 436 972 l 814 972 l 814 851 l 599 851 q 392 806 481 851 q 254 677 303 760 q 206 485 206 594 q 254 294 206 376 q 392 167 303 213 q 599 121 481 121 l 814 121 l 814 0 l 592 0 m 779 0 l 779 972 l 1465 972 l 1465 851 l 917 851 l 917 121 l 1485 121 l 1485 0 l 779 0 m 906 435 l 906 553 l 1406 553 l 1406 435 l 906 435 z "},"P":{"ha":1003,"x_min":146,"x_max":931,"o":"m 146 0 l 146 972 l 525 972 q 743 932 653 972 q 882 815 833 892 q 931 633 931 739 q 882 452 931 528 q 743 335 833 376 q 525 294 653 294 l 222 294 l 285 360 l 285 0 l 146 0 m 285 346 l 222 415 l 521 415 q 723 472 654 415 q 792 633 792 529 q 723 794 792 738 q 521 851 654 851 l 222 851 l 285 921 l 285 346 z "},"Ṕ":{"ha":1003,"x_min":146,"x_max":931,"o":"m 146 0 l 146 972 l 525 972 q 743 932 653 972 q 882 815 833 892 q 931 633 931 739 q 882 452 931 528 q 743 335 833 376 q 525 294 653 294 l 222 294 l 285 360 l 285 0 l 146 0 m 285 346 l 222 415 l 521 415 q 723 472 654 415 q 792 633 792 529 q 723 794 792 738 q 521 851 654 851 l 222 851 l 285 921 l 285 346 m 397 1051 l 586 1232 l 756 1232 l 522 1051 l 397 1051 z "},"Ṗ":{"ha":1003,"x_min":146,"x_max":931,"o":"m 146 0 l 146 972 l 525 972 q 743 932 653 972 q 882 815 833 892 q 931 633 931 739 q 882 452 931 528 q 743 335 833 376 q 525 294 653 294 l 222 294 l 285 360 l 285 0 l 146 0 m 285 346 l 222 415 l 521 415 q 723 472 654 415 q 792 633 792 529 q 723 794 792 738 q 521 851 654 851 l 222 851 l 285 921 l 285 346 m 501 1076 q 443 1100 467 1076 q 419 1158 419 1124 q 443 1217 419 1193 q 501 1240 467 1240 q 560 1217 536 1240 q 583 1158 583 1193 q 560 1100 583 1124 q 501 1076 536 1076 z "},"Ƥ":{"ha":1233,"x_min":43,"x_max":1161,"o":"m 142 532 q 68 636 93 578 q 44 753 43 694 q 72 861 44 811 q 154 942 99 911 q 296 972 210 972 l 388 972 l 388 851 l 297 851 q 219 828 247 851 q 183 769 190 806 q 188 690 175 732 q 236 608 201 647 l 142 532 m 376 0 l 376 972 l 756 972 q 973 932 882 972 q 1113 815 1064 892 q 1161 633 1161 739 q 1113 452 1161 528 q 973 335 1064 376 q 756 294 882 294 l 453 294 l 514 360 l 514 0 l 376 0 m 514 346 l 453 415 l 751 415 q 953 472 885 415 q 1022 633 1022 529 q 953 794 1022 738 q 751 851 885 851 l 453 851 l 514 921 l 514 346 z "},"Þ":{"ha":1003,"x_min":146,"x_max":931,"o":"m 251 174 l 251 293 l 521 293 q 723 351 654 293 q 792 513 792 408 q 723 675 792 618 q 521 732 654 732 l 251 732 l 251 853 l 525 853 q 743 812 653 853 q 882 695 833 771 q 931 514 931 619 q 882 331 931 408 q 743 214 833 254 q 525 174 653 174 l 251 174 m 146 0 l 146 972 l 285 972 l 285 0 l 146 0 z "},"Ᵽ":{"ha":1014,"x_min":14,"x_max":942,"o":"m 157 0 l 157 972 l 536 972 q 753 932 663 972 q 893 815 844 892 q 942 633 942 739 q 893 452 942 528 q 753 335 844 376 q 536 294 663 294 l 233 294 l 294 360 l 294 0 l 157 0 m 14 582 l 14 689 l 507 689 l 507 582 l 14 582 m 294 346 l 233 415 l 532 415 q 734 472 665 415 q 803 633 803 529 q 734 794 803 738 q 532 851 665 851 l 233 851 l 294 921 l 294 346 z "},"Q":{"ha":1167,"x_min":67,"x_max":1147,"o":"m 585 -11 q 378 26 474 -11 q 214 131 283 64 q 106 289 144 199 q 67 486 67 379 q 106 683 67 593 q 214 841 144 774 q 378 946 283 908 q 585 983 472 983 q 790 947 696 983 q 953 842 883 910 q 1062 685 1024 775 q 1100 486 1100 594 q 1062 288 1100 378 q 953 130 1024 197 q 790 26 883 63 q 585 -11 696 -11 m 903 -203 q 810 -191 854 -203 q 721 -153 765 -179 q 629 -87 676 -128 q 526 14 582 -46 l 675 53 q 755 -31 717 1 q 831 -78 793 -64 q 904 -93 868 -93 q 1082 -10 1008 -93 l 1147 -89 q 903 -203 1053 -203 m 585 113 q 734 140 665 113 q 853 219 803 168 q 933 339 904 271 q 961 486 961 407 q 933 635 961 567 q 853 753 904 703 q 734 832 803 804 q 585 860 665 860 q 434 832 503 860 q 314 753 365 804 q 234 635 263 703 q 206 486 206 567 q 234 339 206 407 q 314 219 263 271 q 434 140 365 168 q 585 113 503 113 z "},"Ɋ":{"ha":1233,"x_min":67,"x_max":1294,"o":"m 574 -11 q 373 26 465 -11 q 212 131 281 64 q 105 289 143 199 q 67 486 67 379 q 105 683 67 593 q 212 841 143 774 q 373 946 281 908 q 574 983 465 983 q 770 947 681 983 q 926 842 860 910 q 1029 685 993 775 q 1065 486 1065 594 q 1029 288 1065 378 q 926 130 993 197 q 770 26 860 63 q 574 -11 681 -11 m 585 113 q 734 140 665 113 q 853 219 803 168 q 933 338 904 269 q 961 486 961 406 q 933 635 961 567 q 853 753 904 703 q 734 832 803 804 q 585 860 665 860 q 434 832 503 860 q 314 753 365 804 q 234 635 263 703 q 206 486 206 567 q 234 338 206 406 q 314 219 263 269 q 434 140 365 168 q 585 113 503 113 m 1294 -257 q 1177 -279 1238 -281 q 1067 -251 1117 -278 q 986 -174 1017 -225 q 956 -50 956 -124 l 956 228 l 974 488 l 956 735 l 956 969 l 1093 969 l 1093 -46 q 1118 -124 1093 -96 q 1181 -158 1143 -151 q 1256 -149 1218 -164 l 1294 -257 z "},"R":{"ha":1010,"x_min":146,"x_max":947,"o":"m 146 0 l 146 972 l 525 972 q 822 883 714 972 q 931 633 931 793 q 882 452 931 528 q 743 336 833 376 q 525 296 653 296 l 222 296 l 285 360 l 285 0 l 146 0 m 796 0 l 549 353 l 697 353 l 947 0 l 796 0 m 285 346 l 222 414 l 521 414 q 723 472 654 414 q 792 633 792 529 q 723 794 792 738 q 521 851 654 851 l 222 851 l 285 921 l 285 346 z "},"Ŕ":{"ha":1010,"x_min":146,"x_max":947,"o":"m 146 0 l 146 972 l 525 972 q 822 883 714 972 q 931 633 931 793 q 882 452 931 528 q 743 336 833 376 q 525 296 653 296 l 222 296 l 285 360 l 285 0 l 146 0 m 796 0 l 549 353 l 697 353 l 947 0 l 796 0 m 285 346 l 222 414 l 521 414 q 723 472 654 414 q 792 633 792 529 q 723 794 792 738 q 521 851 654 851 l 222 851 l 285 921 l 285 346 m 406 1051 l 594 1232 l 764 1232 l 531 1051 l 406 1051 z "},"Ř":{"ha":1010,"x_min":146,"x_max":947,"o":"m 146 0 l 146 972 l 525 972 q 822 883 714 972 q 931 633 931 793 q 882 452 931 528 q 743 336 833 376 q 525 296 653 296 l 222 296 l 285 360 l 285 0 l 146 0 m 796 0 l 549 353 l 697 353 l 947 0 l 796 0 m 285 346 l 222 414 l 521 414 q 723 472 654 414 q 792 633 792 529 q 723 794 792 738 q 521 851 654 851 l 222 851 l 285 921 l 285 346 m 446 1051 l 261 1232 l 382 1232 l 565 1081 l 454 1081 l 638 1232 l 758 1232 l 574 1051 l 446 1051 z "},"Ŗ":{"ha":1010,"x_min":146,"x_max":947,"o":"m 146 0 l 146 972 l 525 972 q 822 883 714 972 q 931 633 931 793 q 882 452 931 528 q 743 336 833 376 q 525 296 653 296 l 222 296 l 285 360 l 285 0 l 146 0 m 796 0 l 549 353 l 697 353 l 947 0 l 796 0 m 285 346 l 222 414 l 521 414 q 723 472 654 414 q 792 633 792 529 q 723 794 792 738 q 521 851 654 851 l 222 851 l 285 921 l 285 346 m 451 -351 l 497 -193 l 510 -243 q 458 -226 476 -243 q 439 -181 439 -208 q 458 -135 439 -153 q 510 -117 478 -117 q 562 -135 543 -117 q 581 -181 581 -154 q 577 -212 581 -194 q 563 -251 574 -231 l 521 -351 l 451 -351 z "},"Ȑ":{"ha":1010,"x_min":146,"x_max":947,"o":"m 146 0 l 146 972 l 525 972 q 822 883 714 972 q 931 633 931 793 q 882 452 931 528 q 743 336 833 376 q 525 296 653 296 l 222 296 l 285 360 l 285 0 l 146 0 m 796 0 l 549 353 l 697 353 l 947 0 l 796 0 m 285 346 l 222 414 l 521 414 q 723 472 654 414 q 792 633 792 529 q 723 794 792 738 q 521 851 654 851 l 222 851 l 285 921 l 285 346 m 575 1051 l 421 1232 l 563 1232 l 688 1051 l 575 1051 m 332 1051 l 181 1232 l 321 1232 l 444 1051 l 332 1051 z "},"Ṙ":{"ha":1010,"x_min":146,"x_max":947,"o":"m 146 0 l 146 972 l 525 972 q 822 883 714 972 q 931 633 931 793 q 882 452 931 528 q 743 336 833 376 q 525 296 653 296 l 222 296 l 285 360 l 285 0 l 146 0 m 796 0 l 549 353 l 697 353 l 947 0 l 796 0 m 285 346 l 222 414 l 521 414 q 723 472 654 414 q 792 633 792 529 q 723 794 792 738 q 521 851 654 851 l 222 851 l 285 921 l 285 346 m 510 1076 q 451 1100 475 1076 q 428 1158 428 1124 q 451 1217 428 1193 q 510 1240 475 1240 q 568 1217 544 1240 q 592 1158 592 1193 q 568 1100 592 1124 q 510 1076 544 1076 z "},"Ṛ":{"ha":1010,"x_min":146,"x_max":947,"o":"m 146 0 l 146 972 l 525 972 q 822 883 714 972 q 931 633 931 793 q 882 452 931 528 q 743 336 833 376 q 525 296 653 296 l 222 296 l 285 360 l 285 0 l 146 0 m 796 0 l 549 353 l 697 353 l 947 0 l 796 0 m 285 346 l 222 414 l 521 414 q 723 472 654 414 q 792 633 792 529 q 723 794 792 738 q 521 851 654 851 l 222 851 l 285 921 l 285 346 m 510 -267 q 451 -243 475 -267 q 428 -185 428 -219 q 451 -126 428 -150 q 510 -103 475 -103 q 568 -126 544 -103 q 592 -185 592 -150 q 568 -243 592 -219 q 510 -267 544 -267 z "},"Ṝ":{"ha":1010,"x_min":146,"x_max":947,"o":"m 146 0 l 146 972 l 525 972 q 822 883 714 972 q 931 633 931 793 q 882 452 931 528 q 743 336 833 376 q 525 296 653 296 l 222 296 l 285 360 l 285 0 l 146 0 m 796 0 l 549 353 l 697 353 l 947 0 l 796 0 m 285 346 l 222 414 l 521 414 q 723 472 654 414 q 792 633 792 529 q 723 794 792 738 q 521 851 654 851 l 222 851 l 285 921 l 285 346 m 510 -267 q 451 -243 475 -267 q 428 -185 428 -219 q 451 -126 428 -150 q 510 -103 475 -103 q 568 -126 544 -103 q 592 -185 592 -150 q 568 -243 592 -219 q 510 -267 544 -267 m 283 1100 l 283 1183 l 736 1183 l 736 1100 l 283 1100 z "},"Ȓ":{"ha":1010,"x_min":146,"x_max":947,"o":"m 146 0 l 146 972 l 525 972 q 822 883 714 972 q 931 633 931 793 q 882 452 931 528 q 743 336 833 376 q 525 296 653 296 l 222 296 l 285 360 l 285 0 l 146 0 m 796 0 l 549 353 l 697 353 l 947 0 l 796 0 m 285 346 l 222 414 l 521 414 q 723 472 654 414 q 792 633 792 529 q 723 794 792 738 q 521 851 654 851 l 222 851 l 285 921 l 285 346 m 285 1051 q 351 1190 288 1139 q 510 1240 415 1240 q 668 1190 604 1240 q 735 1051 732 1139 l 644 1051 q 603 1133 643 1103 q 510 1163 564 1163 q 417 1133 456 1163 q 375 1051 378 1103 l 285 1051 z "},"Ṟ":{"ha":1010,"x_min":146,"x_max":947,"o":"m 146 0 l 146 972 l 525 972 q 822 883 714 972 q 931 633 931 793 q 882 452 931 528 q 743 336 833 376 q 525 296 653 296 l 222 296 l 285 360 l 285 0 l 146 0 m 796 0 l 549 353 l 697 353 l 947 0 l 796 0 m 285 346 l 222 414 l 521 414 q 723 472 654 414 q 792 633 792 529 q 723 794 792 738 q 521 851 654 851 l 222 851 l 285 921 l 285 346 m 283 -228 l 283 -144 l 736 -144 l 736 -228 l 283 -228 z "},"Ɍ":{"ha":1010,"x_min":3,"x_max":947,"o":"m 146 0 l 146 972 l 525 972 q 822 883 714 972 q 931 633 931 793 q 882 452 931 528 q 743 336 833 376 q 525 296 653 296 l 222 296 l 285 360 l 285 0 l 146 0 m 796 0 l 549 353 l 697 353 l 947 0 l 796 0 m 285 346 l 222 414 l 521 414 q 723 472 654 414 q 792 633 792 529 q 723 794 792 738 q 521 851 654 851 l 222 851 l 285 921 l 285 346 m 3 304 l 3 414 l 457 414 l 457 304 l 3 304 z "},"Ɽ":{"ha":1046,"x_min":163,"x_max":964,"o":"m 556 -229 q 428 -276 496 -267 q 301 -263 361 -285 q 201 -189 240 -242 q 163 -50 163 -136 l 163 972 l 543 972 q 760 932 669 972 q 899 815 850 892 q 949 633 949 739 q 899 452 949 528 q 760 336 850 376 q 543 296 669 296 l 239 296 l 301 360 l 301 -46 q 321 -117 301 -90 q 371 -153 340 -143 q 438 -156 401 -162 q 508 -126 474 -149 l 556 -229 m 814 0 l 565 353 l 715 353 l 964 0 l 814 0 m 301 346 l 239 414 l 539 414 q 740 472 672 414 q 808 633 808 529 q 740 794 808 738 q 539 851 672 851 l 239 851 l 301 921 l 301 346 z "},"S":{"ha":863,"x_min":57,"x_max":806,"o":"m 429 -11 q 217 23 318 -11 q 57 111 115 57 l 108 219 q 250 139 164 171 q 429 107 336 107 q 567 126 514 107 q 644 180 619 146 q 669 257 669 214 q 637 338 669 307 q 552 387 604 368 q 438 419 500 406 q 312 452 375 433 q 197 500 249 471 q 113 578 144 529 q 81 706 81 628 q 120 844 81 781 q 242 945 160 907 q 453 983 325 983 q 621 961 538 983 q 765 897 704 939 l 719 786 q 588 847 657 828 q 453 865 518 865 q 318 844 371 865 q 241 789 265 824 q 217 711 217 754 q 249 629 217 660 q 334 581 282 599 q 449 548 386 563 q 574 515 511 533 q 690 468 638 497 q 774 390 742 439 q 806 265 806 342 q 765 128 806 192 q 641 27 725 65 q 429 -11 557 -11 z "},"Ś":{"ha":863,"x_min":57,"x_max":806,"o":"m 429 -11 q 217 23 318 -11 q 57 111 115 57 l 108 219 q 250 139 164 171 q 429 107 336 107 q 567 126 514 107 q 644 180 619 146 q 669 257 669 214 q 637 338 669 307 q 552 387 604 368 q 438 419 500 406 q 312 452 375 433 q 197 500 249 471 q 113 578 144 529 q 81 706 81 628 q 120 844 81 781 q 242 945 160 907 q 453 983 325 983 q 621 961 538 983 q 765 897 704 939 l 719 786 q 588 847 657 828 q 453 865 518 865 q 318 844 371 865 q 241 789 265 824 q 217 711 217 754 q 249 629 217 660 q 334 581 282 599 q 449 548 386 563 q 574 515 511 533 q 690 468 638 497 q 774 390 742 439 q 806 265 806 342 q 765 128 806 192 q 641 27 725 65 q 429 -11 557 -11 m 343 1051 l 532 1232 l 701 1232 l 468 1051 l 343 1051 z "},"Ṥ":{"ha":863,"x_min":57,"x_max":806,"o":"m 429 -11 q 217 23 318 -11 q 57 111 115 57 l 108 219 q 250 139 164 171 q 429 107 336 107 q 567 126 514 107 q 644 180 619 146 q 669 257 669 214 q 637 338 669 307 q 552 387 604 368 q 438 419 500 406 q 312 452 375 433 q 197 500 249 471 q 113 578 144 529 q 81 706 81 628 q 120 844 81 781 q 242 945 160 907 q 453 983 325 983 q 621 961 538 983 q 765 897 704 939 l 719 786 q 588 847 657 828 q 453 865 518 865 q 318 844 371 865 q 241 789 265 824 q 217 711 217 754 q 249 629 217 660 q 334 581 282 599 q 449 548 386 563 q 574 515 511 533 q 690 468 638 497 q 774 390 742 439 q 806 265 806 342 q 765 128 806 192 q 641 27 725 65 q 429 -11 557 -11 m 351 1051 l 515 1208 l 667 1208 l 461 1051 l 351 1051 m 461 1257 q 411 1277 432 1257 q 390 1329 390 1297 q 411 1380 390 1360 q 461 1400 432 1400 q 511 1380 490 1400 q 532 1329 532 1360 q 511 1277 532 1297 q 461 1257 490 1257 z "},"Š":{"ha":863,"x_min":57,"x_max":806,"o":"m 429 -11 q 217 23 318 -11 q 57 111 115 57 l 108 219 q 250 139 164 171 q 429 107 336 107 q 567 126 514 107 q 644 180 619 146 q 669 257 669 214 q 637 338 669 307 q 552 387 604 368 q 438 419 500 406 q 312 452 375 433 q 197 500 249 471 q 113 578 144 529 q 81 706 81 628 q 120 844 81 781 q 242 945 160 907 q 453 983 325 983 q 621 961 538 983 q 765 897 704 939 l 719 786 q 588 847 657 828 q 453 865 518 865 q 318 844 371 865 q 241 789 265 824 q 217 711 217 754 q 249 629 217 660 q 334 581 282 599 q 449 548 386 563 q 574 515 511 533 q 690 468 638 497 q 774 390 742 439 q 806 265 806 342 q 765 128 806 192 q 641 27 725 65 q 429 -11 557 -11 m 383 1051 l 199 1232 l 319 1232 l 503 1081 l 392 1081 l 575 1232 l 696 1232 l 511 1051 l 383 1051 z "},"Ṧ":{"ha":863,"x_min":57,"x_max":806,"o":"m 429 -11 q 217 23 318 -11 q 57 111 115 57 l 108 219 q 250 139 164 171 q 429 107 336 107 q 567 126 514 107 q 644 180 619 146 q 669 257 669 214 q 637 338 669 307 q 552 387 604 368 q 438 419 500 406 q 312 452 375 433 q 197 500 249 471 q 113 578 144 529 q 81 706 81 628 q 120 844 81 781 q 242 945 160 907 q 453 983 325 983 q 621 961 538 983 q 765 897 704 939 l 719 786 q 588 847 657 828 q 453 865 518 865 q 318 844 371 865 q 241 789 265 824 q 217 711 217 754 q 249 629 217 660 q 334 581 282 599 q 449 548 386 563 q 574 515 511 533 q 690 468 638 497 q 774 390 742 439 q 806 265 806 342 q 765 128 806 192 q 641 27 725 65 q 429 -11 557 -11 m 385 1057 l 199 1196 l 321 1196 l 503 1085 l 392 1085 l 574 1196 l 696 1196 l 510 1057 l 385 1057 m 447 1238 q 397 1258 418 1238 q 376 1310 376 1278 q 397 1360 376 1340 q 447 1381 418 1381 q 497 1360 476 1381 q 518 1310 518 1340 q 497 1258 518 1278 q 447 1238 476 1238 z "},"Ş":{"ha":863,"x_min":57,"x_max":806,"o":"m 429 -11 q 217 23 318 -11 q 57 111 115 57 l 108 219 q 250 139 164 171 q 429 107 336 107 q 567 126 514 107 q 644 180 619 146 q 669 257 669 214 q 637 338 669 307 q 552 387 604 368 q 438 419 500 406 q 312 452 375 433 q 197 500 249 471 q 113 578 144 529 q 81 706 81 628 q 120 844 81 781 q 242 945 160 907 q 453 983 325 983 q 621 961 538 983 q 765 897 704 939 l 719 786 q 588 847 657 828 q 453 865 518 865 q 318 844 371 865 q 241 789 265 824 q 217 711 217 754 q 249 629 217 660 q 334 581 282 599 q 449 548 386 563 q 574 515 511 533 q 690 468 638 497 q 774 390 742 439 q 806 265 806 342 q 765 128 806 192 q 641 27 725 65 q 429 -11 557 -11 m 413 -311 q 346 -303 376 -311 q 289 -281 315 -296 l 318 -212 q 363 -231 340 -225 q 413 -236 386 -236 q 472 -222 453 -236 q 490 -181 490 -207 q 472 -141 490 -156 q 411 -126 453 -126 l 374 -126 l 408 10 l 485 10 l 464 -69 q 554 -107 524 -75 q 585 -185 585 -139 q 538 -277 585 -243 q 413 -311 490 -311 z "},"Ŝ":{"ha":863,"x_min":57,"x_max":806,"o":"m 429 -11 q 217 23 318 -11 q 57 111 115 57 l 108 219 q 250 139 164 171 q 429 107 336 107 q 567 126 514 107 q 644 180 619 146 q 669 257 669 214 q 637 338 669 307 q 552 387 604 368 q 438 419 500 406 q 312 452 375 433 q 197 500 249 471 q 113 578 144 529 q 81 706 81 628 q 120 844 81 781 q 242 945 160 907 q 453 983 325 983 q 621 961 538 983 q 765 897 704 939 l 719 786 q 588 847 657 828 q 453 865 518 865 q 318 844 371 865 q 241 789 265 824 q 217 711 217 754 q 249 629 217 660 q 334 581 282 599 q 449 548 386 563 q 574 515 511 533 q 690 468 638 497 q 774 390 742 439 q 806 265 806 342 q 765 128 806 192 q 641 27 725 65 q 429 -11 557 -11 m 199 1051 l 383 1232 l 511 1232 l 696 1051 l 575 1051 l 392 1204 l 503 1204 l 319 1051 l 199 1051 z "},"Ș":{"ha":863,"x_min":57,"x_max":806,"o":"m 429 -11 q 217 23 318 -11 q 57 111 115 57 l 108 219 q 250 139 164 171 q 429 107 336 107 q 567 126 514 107 q 644 180 619 146 q 669 257 669 214 q 637 338 669 307 q 552 387 604 368 q 438 419 500 406 q 312 452 375 433 q 197 500 249 471 q 113 578 144 529 q 81 706 81 628 q 120 844 81 781 q 242 945 160 907 q 453 983 325 983 q 621 961 538 983 q 765 897 704 939 l 719 786 q 588 847 657 828 q 453 865 518 865 q 318 844 371 865 q 241 789 265 824 q 217 711 217 754 q 249 629 217 660 q 334 581 282 599 q 449 548 386 563 q 574 515 511 533 q 690 468 638 497 q 774 390 742 439 q 806 265 806 342 q 765 128 806 192 q 641 27 725 65 q 429 -11 557 -11 m 389 -351 l 435 -193 l 447 -243 q 395 -226 414 -243 q 376 -181 376 -208 q 396 -135 376 -153 q 447 -117 415 -117 q 499 -135 481 -117 q 518 -181 518 -154 q 515 -212 518 -194 q 500 -251 511 -231 l 458 -351 l 389 -351 z "},"Ṡ":{"ha":863,"x_min":57,"x_max":806,"o":"m 429 -11 q 217 23 318 -11 q 57 111 115 57 l 108 219 q 250 139 164 171 q 429 107 336 107 q 567 126 514 107 q 644 180 619 146 q 669 257 669 214 q 637 338 669 307 q 552 387 604 368 q 438 419 500 406 q 312 452 375 433 q 197 500 249 471 q 113 578 144 529 q 81 706 81 628 q 120 844 81 781 q 242 945 160 907 q 453 983 325 983 q 621 961 538 983 q 765 897 704 939 l 719 786 q 588 847 657 828 q 453 865 518 865 q 318 844 371 865 q 241 789 265 824 q 217 711 217 754 q 249 629 217 660 q 334 581 282 599 q 449 548 386 563 q 574 515 511 533 q 690 468 638 497 q 774 390 742 439 q 806 265 806 342 q 765 128 806 192 q 641 27 725 65 q 429 -11 557 -11 m 447 1076 q 389 1100 413 1076 q 365 1158 365 1124 q 389 1217 365 1193 q 447 1240 413 1240 q 506 1217 482 1240 q 529 1158 529 1193 q 506 1100 529 1124 q 447 1076 482 1076 z "},"Ṣ":{"ha":863,"x_min":57,"x_max":806,"o":"m 429 -11 q 217 23 318 -11 q 57 111 115 57 l 108 219 q 250 139 164 171 q 429 107 336 107 q 567 126 514 107 q 644 180 619 146 q 669 257 669 214 q 637 338 669 307 q 552 387 604 368 q 438 419 500 406 q 312 452 375 433 q 197 500 249 471 q 113 578 144 529 q 81 706 81 628 q 120 844 81 781 q 242 945 160 907 q 453 983 325 983 q 621 961 538 983 q 765 897 704 939 l 719 786 q 588 847 657 828 q 453 865 518 865 q 318 844 371 865 q 241 789 265 824 q 217 711 217 754 q 249 629 217 660 q 334 581 282 599 q 449 548 386 563 q 574 515 511 533 q 690 468 638 497 q 774 390 742 439 q 806 265 806 342 q 765 128 806 192 q 641 27 725 65 q 429 -11 557 -11 m 447 -267 q 389 -243 413 -267 q 365 -185 365 -219 q 389 -126 365 -150 q 447 -103 413 -103 q 506 -126 482 -103 q 529 -185 529 -150 q 506 -243 529 -219 q 447 -267 482 -267 z "},"Ṩ":{"ha":863,"x_min":57,"x_max":806,"o":"m 429 -11 q 217 23 318 -11 q 57 111 115 57 l 108 219 q 250 139 164 171 q 429 107 336 107 q 567 126 514 107 q 644 180 619 146 q 669 257 669 214 q 637 338 669 307 q 552 387 604 368 q 438 419 500 406 q 312 452 375 433 q 197 500 249 471 q 113 578 144 529 q 81 706 81 628 q 120 844 81 781 q 242 945 160 907 q 453 983 325 983 q 621 961 538 983 q 765 897 704 939 l 719 786 q 588 847 657 828 q 453 865 518 865 q 318 844 371 865 q 241 789 265 824 q 217 711 217 754 q 249 629 217 660 q 334 581 282 599 q 449 548 386 563 q 574 515 511 533 q 690 468 638 497 q 774 390 742 439 q 806 265 806 342 q 765 128 806 192 q 641 27 725 65 q 429 -11 557 -11 m 447 -267 q 389 -243 413 -267 q 365 -185 365 -219 q 389 -126 365 -150 q 447 -103 413 -103 q 506 -126 482 -103 q 529 -185 529 -150 q 506 -243 529 -219 q 447 -267 482 -267 m 447 1076 q 389 1100 413 1076 q 365 1158 365 1124 q 389 1217 365 1193 q 447 1240 413 1240 q 506 1217 482 1240 q 529 1158 529 1193 q 506 1100 529 1124 q 447 1076 482 1076 z "},"ẞ":{"ha":1060,"x_min":138,"x_max":989,"o":"m 644 -11 q 544 -3 593 -11 q 453 24 496 6 l 475 140 q 551 115 510 124 q 638 107 592 107 q 792 151 735 107 q 849 285 849 196 q 791 417 849 372 q 635 463 733 463 q 575 458 606 463 q 521 447 544 454 l 494 514 l 821 879 l 838 785 q 717 846 783 826 q 579 865 651 865 q 353 785 429 865 q 276 558 276 706 l 276 0 l 138 0 l 138 563 q 189 786 138 692 q 337 932 240 881 q 569 983 433 983 q 690 973 631 983 q 803 942 749 963 q 897 888 857 921 l 897 797 l 607 476 l 550 557 q 601 568 574 565 q 657 571 628 571 q 827 538 751 571 q 946 439 903 504 q 989 279 989 374 q 946 120 989 185 q 825 22 903 56 q 644 -11 747 -11 z "},"Ꞩ":{"ha":863,"x_min":57,"x_max":806,"o":"m 429 -11 q 285 4 356 -11 q 155 47 214 19 q 57 111 96 75 l 108 219 q 250 139 164 171 q 429 107 336 107 q 567 126 514 107 q 644 180 619 146 q 669 257 669 214 q 637 338 669 307 q 552 387 604 368 q 438 419 500 406 q 312 452 375 433 q 197 500 249 471 q 113 578 144 529 q 81 706 81 628 q 120 844 81 781 q 242 945 160 907 q 453 983 325 983 q 621 961 538 983 q 765 897 704 939 l 719 786 q 588 847 657 828 q 453 865 518 865 q 318 844 371 865 q 241 789 265 824 q 217 711 217 754 q 249 629 217 660 q 334 581 282 599 q 449 548 386 563 q 574 515 511 533 q 690 468 638 497 q 774 390 742 439 q 806 265 806 342 q 765 128 806 192 q 641 27 725 65 q 429 -11 557 -11 m 346 242 l 258 286 l 481 725 l 569 683 l 346 242 z "},"T":{"ha":815,"x_min":6,"x_max":810,"o":"m 339 0 l 339 851 l 6 851 l 6 972 l 810 972 l 810 851 l 476 851 l 476 0 l 339 0 z "},"Ŧ":{"ha":815,"x_min":6,"x_max":810,"o":"m 339 0 l 339 851 l 6 851 l 6 972 l 810 972 l 810 851 l 476 851 l 476 0 l 339 0 m 126 443 l 126 553 l 689 553 l 689 443 l 126 443 z "},"Ť":{"ha":815,"x_min":6,"x_max":810,"o":"m 339 0 l 339 851 l 6 851 l 6 972 l 810 972 l 810 851 l 476 851 l 476 0 l 339 0 m 343 1051 l 158 1232 l 279 1232 l 463 1081 l 351 1081 l 535 1232 l 656 1232 l 471 1051 l 343 1051 z "},"Ţ":{"ha":815,"x_min":6,"x_max":810,"o":"m 339 0 l 339 851 l 6 851 l 6 972 l 810 972 l 810 851 l 476 851 l 476 0 l 339 0 m 372 -311 q 306 -303 336 -311 q 249 -281 275 -296 l 278 -212 q 323 -231 300 -225 q 372 -236 346 -236 q 431 -222 413 -236 q 450 -181 450 -207 q 431 -141 450 -156 q 371 -126 413 -126 l 333 -126 l 368 10 l 444 10 l 424 -69 q 514 -107 483 -75 q 544 -185 544 -139 q 497 -277 544 -243 q 372 -311 450 -311 z "},"Ṱ":{"ha":815,"x_min":6,"x_max":810,"o":"m 339 0 l 339 851 l 6 851 l 6 972 l 810 972 l 810 851 l 476 851 l 476 0 l 339 0 m 158 -278 l 343 -97 l 471 -97 l 656 -278 l 535 -278 l 351 -125 l 463 -125 l 279 -278 l 158 -278 z "},"Ț":{"ha":815,"x_min":6,"x_max":810,"o":"m 339 0 l 339 851 l 6 851 l 6 972 l 810 972 l 810 851 l 476 851 l 476 0 l 339 0 m 349 -351 l 394 -193 l 407 -243 q 355 -226 374 -243 q 336 -181 336 -208 q 356 -135 336 -153 q 407 -117 375 -117 q 459 -135 440 -117 q 478 -181 478 -154 q 474 -212 478 -194 q 460 -251 471 -231 l 418 -351 l 349 -351 z "},"Ⱦ":{"ha":810,"x_min":6,"x_max":804,"o":"m 339 0 l 339 851 l 6 851 l 6 972 l 804 972 l 804 851 l 472 851 l 472 0 l 339 0 m 133 -97 l 661 1069 l 771 1069 l 244 -97 l 133 -97 z "},"Ṫ":{"ha":815,"x_min":6,"x_max":810,"o":"m 339 0 l 339 851 l 6 851 l 6 972 l 810 972 l 810 851 l 476 851 l 476 0 l 339 0 m 407 1076 q 349 1100 372 1076 q 325 1158 325 1124 q 349 1217 325 1193 q 407 1240 372 1240 q 465 1217 442 1240 q 489 1158 489 1193 q 465 1100 489 1124 q 407 1076 442 1076 z "},"Ṭ":{"ha":815,"x_min":6,"x_max":810,"o":"m 339 0 l 339 851 l 6 851 l 6 972 l 810 972 l 810 851 l 476 851 l 476 0 l 339 0 m 407 -267 q 349 -243 372 -267 q 325 -185 325 -219 q 349 -126 325 -150 q 407 -103 372 -103 q 465 -126 442 -103 q 489 -185 489 -150 q 465 -243 489 -219 q 407 -267 442 -267 z "},"Ƭ":{"ha":917,"x_min":44,"x_max":911,"o":"m 440 0 l 440 878 l 468 851 l 286 851 q 203 827 232 851 q 167 763 174 803 q 176 680 161 724 q 229 599 192 636 l 140 533 q 69 638 93 581 q 44 755 44 696 q 71 863 44 814 q 151 942 97 913 q 286 972 204 972 l 911 972 l 911 851 l 551 851 l 578 878 l 578 0 l 440 0 z "},"Ṯ":{"ha":815,"x_min":6,"x_max":810,"o":"m 339 0 l 339 851 l 6 851 l 6 972 l 810 972 l 810 851 l 476 851 l 476 0 l 339 0 m 181 -228 l 181 -144 l 633 -144 l 633 -228 l 181 -228 z "},"Ʈ":{"ha":815,"x_min":6,"x_max":810,"o":"m 731 -229 q 603 -276 671 -267 q 476 -263 536 -285 q 377 -188 415 -242 q 339 -49 339 -135 l 339 872 l 476 872 l 476 -44 q 496 -116 476 -89 q 546 -153 515 -143 q 613 -156 576 -162 q 683 -126 650 -149 l 731 -229 m 6 851 l 6 972 l 810 972 l 810 851 l 6 851 z "},"Ʇ":{"ha":815,"x_min":6,"x_max":810,"o":"m 476 972 l 476 121 l 810 121 l 810 0 l 6 0 l 6 121 l 339 121 l 339 972 l 476 972 z "},"U":{"ha":1099,"x_min":138,"x_max":960,"o":"m 549 -11 q 247 99 357 -11 q 138 419 138 208 l 138 972 l 276 972 l 276 425 q 348 188 276 263 q 550 113 419 113 q 753 188 682 113 q 825 425 825 263 l 825 972 l 960 972 l 960 419 q 851 99 960 208 q 549 -11 742 -11 z "},"Ú":{"ha":1099,"x_min":138,"x_max":960,"o":"m 549 -11 q 247 99 357 -11 q 138 419 138 208 l 138 972 l 276 972 l 276 425 q 348 188 276 263 q 550 113 419 113 q 753 188 682 113 q 825 425 825 263 l 825 972 l 960 972 l 960 419 q 851 99 960 208 q 549 -11 742 -11 m 446 1051 l 635 1232 l 804 1232 l 571 1051 l 446 1051 z "},"Ʉ":{"ha":1097,"x_min":-7,"x_max":1103,"o":"m 547 -11 q 246 99 356 -11 q 136 419 136 208 l 136 972 l 275 972 l 275 425 q 347 188 275 263 q 549 113 418 113 q 752 188 681 113 q 824 425 824 263 l 824 972 l 960 972 l 960 419 q 850 99 960 208 q 547 -11 740 -11 m -7 443 l -7 553 l 1103 553 l 1103 443 l -7 443 z "},"Ŭ":{"ha":1099,"x_min":138,"x_max":960,"o":"m 549 -11 q 247 99 357 -11 q 138 419 138 208 l 138 972 l 276 972 l 276 425 q 348 188 276 263 q 550 113 419 113 q 753 188 682 113 q 825 425 825 263 l 825 972 l 960 972 l 960 419 q 851 99 960 208 q 549 -11 742 -11 m 550 1057 q 392 1108 456 1057 q 325 1246 328 1158 l 415 1246 q 457 1165 418 1194 q 550 1135 496 1135 q 644 1165 604 1135 q 685 1246 683 1194 l 775 1246 q 708 1108 772 1158 q 550 1057 644 1057 z "},"Ǔ":{"ha":1099,"x_min":138,"x_max":960,"o":"m 549 -11 q 247 99 357 -11 q 138 419 138 208 l 138 972 l 276 972 l 276 425 q 348 188 276 263 q 550 113 419 113 q 753 188 682 113 q 825 425 825 263 l 825 972 l 960 972 l 960 419 q 851 99 960 208 q 549 -11 742 -11 m 486 1051 l 301 1232 l 422 1232 l 606 1081 l 494 1081 l 678 1232 l 799 1232 l 614 1051 l 486 1051 z "},"Û":{"ha":1099,"x_min":138,"x_max":960,"o":"m 549 -11 q 247 99 357 -11 q 138 419 138 208 l 138 972 l 276 972 l 276 425 q 348 188 276 263 q 550 113 419 113 q 753 188 682 113 q 825 425 825 263 l 825 972 l 960 972 l 960 419 q 851 99 960 208 q 549 -11 742 -11 m 301 1051 l 486 1232 l 614 1232 l 799 1051 l 678 1051 l 494 1204 l 606 1204 l 422 1051 l 301 1051 z "},"Ṷ":{"ha":1099,"x_min":138,"x_max":960,"o":"m 549 -11 q 247 99 357 -11 q 138 419 138 208 l 138 972 l 276 972 l 276 425 q 348 188 276 263 q 550 113 419 113 q 753 188 682 113 q 825 425 825 263 l 825 972 l 960 972 l 960 419 q 851 99 960 208 q 549 -11 742 -11 m 301 -278 l 486 -97 l 614 -97 l 799 -278 l 678 -278 l 494 -125 l 606 -125 l 422 -278 l 301 -278 z "},"Ȕ":{"ha":1099,"x_min":138,"x_max":960,"o":"m 549 -11 q 247 99 357 -11 q 138 419 138 208 l 138 972 l 276 972 l 276 425 q 348 188 276 263 q 550 113 419 113 q 753 188 682 113 q 825 425 825 263 l 825 972 l 960 972 l 960 419 q 851 99 960 208 q 549 -11 742 -11 m 615 1051 l 461 1232 l 603 1232 l 728 1051 l 615 1051 m 372 1051 l 221 1232 l 361 1232 l 485 1051 l 372 1051 z "},"Ü":{"ha":1099,"x_min":138,"x_max":960,"o":"m 549 -11 q 247 99 357 -11 q 138 419 138 208 l 138 972 l 276 972 l 276 425 q 348 188 276 263 q 550 113 419 113 q 753 188 682 113 q 825 425 825 263 l 825 972 l 960 972 l 960 419 q 851 99 960 208 q 549 -11 742 -11 m 679 1075 q 629 1095 650 1075 q 608 1146 608 1115 q 629 1198 608 1178 q 679 1218 650 1218 q 729 1198 708 1218 q 750 1146 750 1178 q 729 1095 750 1115 q 679 1075 708 1075 m 421 1075 q 371 1095 392 1075 q 350 1146 350 1115 q 371 1198 350 1178 q 421 1218 392 1218 q 471 1198 450 1218 q 492 1146 492 1178 q 471 1095 492 1115 q 421 1075 450 1075 z "},"Ǘ":{"ha":1099,"x_min":138,"x_max":960,"o":"m 549 -11 q 247 99 357 -11 q 138 419 138 208 l 138 972 l 276 972 l 276 425 q 348 188 276 263 q 550 113 419 113 q 753 188 682 113 q 825 425 825 263 l 825 972 l 960 972 l 960 419 q 851 99 960 208 q 549 -11 742 -11 m 676 1068 q 628 1088 649 1068 q 608 1138 608 1108 q 628 1187 608 1167 q 676 1207 649 1207 q 726 1187 706 1207 q 746 1138 746 1167 q 726 1088 746 1108 q 676 1068 706 1068 m 425 1068 q 376 1088 396 1068 q 356 1138 356 1108 q 376 1187 356 1167 q 425 1207 396 1207 q 474 1187 454 1207 q 493 1138 493 1167 q 474 1088 493 1108 q 425 1068 454 1068 m 454 1249 l 618 1406 l 769 1406 l 564 1249 l 454 1249 z "},"Ṳ":{"ha":1099,"x_min":138,"x_max":960,"o":"m 549 -11 q 247 99 357 -11 q 138 419 138 208 l 138 972 l 276 972 l 276 425 q 348 188 276 263 q 550 113 419 113 q 753 188 682 113 q 825 425 825 263 l 825 972 l 960 972 l 960 419 q 851 99 960 208 q 549 -11 742 -11 m 679 -254 q 629 -234 650 -254 q 608 -183 608 -214 q 629 -131 608 -151 q 679 -111 650 -111 q 729 -131 708 -111 q 750 -183 750 -151 q 729 -234 750 -214 q 679 -254 708 -254 m 421 -254 q 371 -234 392 -254 q 350 -183 350 -214 q 371 -131 350 -151 q 421 -111 392 -111 q 471 -131 450 -111 q 492 -183 492 -151 q 471 -234 492 -214 q 421 -254 450 -254 z "},"Ǚ":{"ha":1099,"x_min":138,"x_max":960,"o":"m 549 -11 q 247 99 357 -11 q 138 419 138 208 l 138 972 l 276 972 l 276 425 q 348 188 276 263 q 550 113 419 113 q 753 188 682 113 q 825 425 825 263 l 825 972 l 960 972 l 960 419 q 851 99 960 208 q 549 -11 742 -11 m 679 1075 q 629 1095 650 1075 q 608 1146 608 1115 q 629 1198 608 1178 q 679 1218 650 1218 q 729 1198 708 1218 q 750 1146 750 1178 q 729 1095 750 1115 q 679 1075 708 1075 m 421 1075 q 371 1095 392 1075 q 350 1146 350 1115 q 371 1198 350 1178 q 421 1218 392 1218 q 471 1198 450 1218 q 492 1146 492 1178 q 471 1095 492 1115 q 421 1075 450 1075 m 486 1253 l 301 1433 l 422 1433 l 606 1282 l 494 1282 l 678 1433 l 799 1433 l 614 1253 l 486 1253 z "},"Ǜ":{"ha":1099,"x_min":138,"x_max":960,"o":"m 549 -11 q 247 99 357 -11 q 138 419 138 208 l 138 972 l 276 972 l 276 425 q 348 188 276 263 q 550 113 419 113 q 753 188 682 113 q 825 425 825 263 l 825 972 l 960 972 l 960 419 q 851 99 960 208 q 549 -11 742 -11 m 676 1068 q 628 1088 649 1068 q 608 1138 608 1108 q 628 1187 608 1167 q 676 1207 649 1207 q 726 1187 706 1207 q 746 1138 746 1167 q 726 1088 746 1108 q 676 1068 706 1068 m 425 1068 q 376 1088 396 1068 q 356 1138 356 1108 q 376 1187 356 1167 q 425 1207 396 1207 q 474 1187 454 1207 q 493 1138 493 1167 q 474 1088 493 1108 q 425 1068 454 1068 m 538 1249 l 332 1406 l 483 1406 l 646 1249 l 538 1249 z "},"Ǖ":{"ha":1099,"x_min":138,"x_max":960,"o":"m 549 -11 q 247 99 357 -11 q 138 419 138 208 l 138 972 l 276 972 l 276 425 q 348 188 276 263 q 550 113 419 113 q 753 188 682 113 q 825 425 825 263 l 825 972 l 960 972 l 960 419 q 851 99 960 208 q 549 -11 742 -11 m 676 1058 q 628 1078 649 1058 q 608 1128 608 1099 q 628 1177 608 1157 q 676 1197 649 1197 q 726 1177 706 1197 q 746 1128 746 1157 q 726 1078 746 1099 q 676 1058 706 1058 m 425 1058 q 376 1078 396 1058 q 356 1128 356 1099 q 376 1177 356 1157 q 425 1197 396 1197 q 474 1177 454 1197 q 493 1128 493 1157 q 474 1078 493 1099 q 425 1058 454 1058 m 324 1290 l 324 1369 l 776 1369 l 776 1290 l 324 1290 z "},"Ụ":{"ha":1099,"x_min":138,"x_max":960,"o":"m 549 -11 q 247 99 357 -11 q 138 419 138 208 l 138 972 l 276 972 l 276 425 q 348 188 276 263 q 550 113 419 113 q 753 188 682 113 q 825 425 825 263 l 825 972 l 960 972 l 960 419 q 851 99 960 208 q 549 -11 742 -11 m 550 -267 q 492 -243 515 -267 q 468 -185 468 -219 q 492 -126 468 -150 q 550 -103 515 -103 q 608 -126 585 -103 q 632 -185 632 -150 q 608 -243 632 -219 q 550 -267 585 -267 z "},"Ù":{"ha":1099,"x_min":138,"x_max":960,"o":"m 549 -11 q 247 99 357 -11 q 138 419 138 208 l 138 972 l 276 972 l 276 425 q 348 188 276 263 q 550 113 419 113 q 753 188 682 113 q 825 425 825 263 l 825 972 l 960 972 l 960 419 q 851 99 960 208 q 549 -11 742 -11 m 529 1051 l 296 1232 l 465 1232 l 654 1051 l 529 1051 z "},"Ủ":{"ha":1099,"x_min":138,"x_max":960,"o":"m 549 -11 q 247 99 357 -11 q 138 419 138 208 l 138 972 l 276 972 l 276 425 q 348 188 276 263 q 550 113 419 113 q 753 188 682 113 q 825 425 825 263 l 825 972 l 960 972 l 960 419 q 851 99 960 208 q 549 -11 742 -11 m 556 1014 l 510 1068 q 569 1110 550 1088 q 588 1161 588 1133 q 568 1208 588 1190 q 515 1226 549 1226 q 432 1200 472 1226 l 401 1263 q 462 1292 428 1282 q 528 1301 496 1301 q 601 1285 569 1301 q 651 1241 633 1269 q 669 1172 669 1213 q 642 1081 669 1121 q 556 1014 614 1042 z "},"Ư":{"ha":1108,"x_min":138,"x_max":1101,"o":"m 549 -11 q 247 99 357 -11 q 138 419 138 208 l 138 972 l 276 972 l 276 425 q 348 188 276 263 q 550 113 419 113 q 753 188 682 113 q 825 425 825 263 l 825 972 l 960 972 l 960 419 q 851 99 960 208 q 549 -11 742 -11 m 892 871 l 892 972 l 917 972 q 984 998 963 972 q 1006 1063 1006 1024 q 998 1111 1006 1089 q 978 1150 990 1133 l 1063 1182 q 1092 1126 1082 1158 q 1101 1058 1101 1094 q 1053 923 1101 975 q 917 871 1004 871 l 892 871 z "},"Ứ":{"ha":1108,"x_min":138,"x_max":1101,"o":"m 549 -11 q 247 99 357 -11 q 138 419 138 208 l 138 972 l 276 972 l 276 425 q 348 188 276 263 q 550 113 419 113 q 753 188 682 113 q 825 425 825 263 l 825 972 l 960 972 l 960 419 q 851 99 960 208 q 549 -11 742 -11 m 892 871 l 892 972 l 917 972 q 984 998 963 972 q 1006 1063 1006 1024 q 998 1111 1006 1089 q 978 1150 990 1133 l 1063 1182 q 1092 1126 1082 1158 q 1101 1058 1101 1094 q 1053 923 1101 975 q 917 871 1004 871 l 892 871 m 446 1051 l 635 1232 l 804 1232 l 571 1051 l 446 1051 z "},"Ự":{"ha":1108,"x_min":138,"x_max":1101,"o":"m 549 -11 q 247 99 357 -11 q 138 419 138 208 l 138 972 l 276 972 l 276 425 q 348 188 276 263 q 550 113 419 113 q 753 188 682 113 q 825 425 825 263 l 825 972 l 960 972 l 960 419 q 851 99 960 208 q 549 -11 742 -11 m 892 871 l 892 972 l 917 972 q 984 998 963 972 q 1006 1063 1006 1024 q 998 1111 1006 1089 q 978 1150 990 1133 l 1063 1182 q 1092 1126 1082 1158 q 1101 1058 1101 1094 q 1053 923 1101 975 q 917 871 1004 871 l 892 871 m 550 -267 q 492 -243 515 -267 q 468 -185 468 -219 q 492 -126 468 -150 q 550 -103 515 -103 q 608 -126 585 -103 q 632 -185 632 -150 q 608 -243 632 -219 q 550 -267 585 -267 z "},"Ừ":{"ha":1108,"x_min":138,"x_max":1101,"o":"m 549 -11 q 247 99 357 -11 q 138 419 138 208 l 138 972 l 276 972 l 276 425 q 348 188 276 263 q 550 113 419 113 q 753 188 682 113 q 825 425 825 263 l 825 972 l 960 972 l 960 419 q 851 99 960 208 q 549 -11 742 -11 m 892 871 l 892 972 l 917 972 q 984 998 963 972 q 1006 1063 1006 1024 q 998 1111 1006 1089 q 978 1150 990 1133 l 1063 1182 q 1092 1126 1082 1158 q 1101 1058 1101 1094 q 1053 923 1101 975 q 917 871 1004 871 l 892 871 m 529 1051 l 296 1232 l 465 1232 l 654 1051 l 529 1051 z "},"Ử":{"ha":1108,"x_min":138,"x_max":1101,"o":"m 549 -11 q 247 99 357 -11 q 138 419 138 208 l 138 972 l 276 972 l 276 425 q 348 188 276 263 q 550 113 419 113 q 753 188 682 113 q 825 425 825 263 l 825 972 l 960 972 l 960 419 q 851 99 960 208 q 549 -11 742 -11 m 892 871 l 892 972 l 917 972 q 984 998 963 972 q 1006 1063 1006 1024 q 998 1111 1006 1089 q 978 1150 990 1133 l 1063 1182 q 1092 1126 1082 1158 q 1101 1058 1101 1094 q 1053 923 1101 975 q 917 871 1004 871 l 892 871 m 556 1014 l 510 1068 q 569 1110 550 1088 q 588 1161 588 1133 q 568 1208 588 1190 q 515 1226 549 1226 q 432 1200 472 1226 l 401 1263 q 462 1292 428 1282 q 528 1301 496 1301 q 601 1285 569 1301 q 651 1241 633 1269 q 669 1172 669 1213 q 642 1081 669 1121 q 556 1014 614 1042 z "},"Ữ":{"ha":1108,"x_min":138,"x_max":1101,"o":"m 549 -11 q 247 99 357 -11 q 138 419 138 208 l 138 972 l 276 972 l 276 425 q 348 188 276 263 q 550 113 419 113 q 753 188 682 113 q 825 425 825 263 l 825 972 l 960 972 l 960 419 q 851 99 960 208 q 549 -11 742 -11 m 892 871 l 892 972 l 917 972 q 984 998 963 972 q 1006 1063 1006 1024 q 998 1111 1006 1089 q 978 1150 990 1133 l 1063 1182 q 1092 1126 1082 1158 q 1101 1058 1101 1094 q 1053 923 1101 975 q 917 871 1004 871 l 892 871 m 658 1049 q 592 1064 621 1049 q 542 1099 564 1079 q 497 1133 519 1118 q 450 1149 475 1149 q 401 1122 419 1149 q 381 1057 382 1094 l 297 1057 q 338 1185 299 1133 q 442 1238 376 1238 q 509 1222 481 1238 q 560 1188 538 1207 q 604 1153 582 1168 q 651 1138 626 1138 q 700 1165 682 1138 q 719 1228 718 1192 l 801 1228 q 762 1101 800 1153 q 658 1049 724 1049 z "},"Ű":{"ha":1099,"x_min":138,"x_max":960,"o":"m 549 -11 q 247 99 357 -11 q 138 419 138 208 l 138 972 l 276 972 l 276 425 q 348 188 276 263 q 550 113 419 113 q 753 188 682 113 q 825 425 825 263 l 825 972 l 960 972 l 960 419 q 851 99 960 208 q 549 -11 742 -11 m 615 1051 l 739 1232 l 879 1232 l 728 1051 l 615 1051 m 372 1051 l 497 1232 l 639 1232 l 485 1051 l 372 1051 z "},"Ȗ":{"ha":1099,"x_min":138,"x_max":960,"o":"m 549 -11 q 247 99 357 -11 q 138 419 138 208 l 138 972 l 276 972 l 276 425 q 348 188 276 263 q 550 113 419 113 q 753 188 682 113 q 825 425 825 263 l 825 972 l 960 972 l 960 419 q 851 99 960 208 q 549 -11 742 -11 m 325 1051 q 392 1190 328 1139 q 550 1240 456 1240 q 708 1190 644 1240 q 775 1051 772 1139 l 685 1051 q 644 1133 683 1103 q 550 1163 604 1163 q 457 1133 496 1163 q 415 1051 418 1103 l 325 1051 z "},"Ū":{"ha":1099,"x_min":138,"x_max":960,"o":"m 549 -11 q 247 99 357 -11 q 138 419 138 208 l 138 972 l 276 972 l 276 425 q 348 188 276 263 q 550 113 419 113 q 753 188 682 113 q 825 425 825 263 l 825 972 l 960 972 l 960 419 q 851 99 960 208 q 549 -11 742 -11 m 324 1100 l 324 1183 l 776 1183 l 776 1100 l 324 1100 z "},"Ṻ":{"ha":1099,"x_min":138,"x_max":960,"o":"m 549 -11 q 247 99 357 -11 q 138 419 138 208 l 138 972 l 276 972 l 276 425 q 348 188 276 263 q 550 113 419 113 q 753 188 682 113 q 825 425 825 263 l 825 972 l 960 972 l 960 419 q 851 99 960 208 q 549 -11 742 -11 m 324 1089 l 324 1168 l 776 1168 l 776 1089 l 324 1089 m 676 1265 q 628 1285 649 1265 q 608 1335 608 1306 q 628 1384 608 1364 q 676 1404 649 1404 q 726 1384 706 1404 q 746 1335 746 1364 q 726 1285 746 1306 q 676 1265 706 1265 m 425 1265 q 376 1285 396 1265 q 356 1335 356 1306 q 376 1384 356 1364 q 425 1404 396 1404 q 474 1384 454 1404 q 493 1335 493 1364 q 474 1285 493 1306 q 425 1265 454 1265 z "},"Ų":{"ha":1099,"x_min":138,"x_max":960,"o":"m 581 -311 q 458 -272 503 -311 q 414 -171 414 -233 q 433 -95 414 -133 q 494 -21 451 -57 q 613 44 538 15 l 608 -8 q 579 -10 594 -10 q 549 -11 564 -11 q 247 99 357 -11 q 138 419 138 208 l 138 972 l 276 972 l 276 425 q 348 188 276 263 q 550 113 419 113 q 753 188 682 113 q 825 425 825 263 l 825 972 l 960 972 l 960 419 q 892 151 960 250 q 708 11 824 53 q 583 -48 626 -18 q 524 -106 540 -78 q 508 -161 508 -135 q 533 -215 508 -196 q 594 -233 557 -233 q 640 -226 617 -233 q 679 -210 663 -219 l 706 -278 q 647 -302 679 -293 q 581 -311 615 -311 z "},"Ʊ":{"ha":1188,"x_min":25,"x_max":1163,"o":"m 1163 972 l 1163 851 l 932 851 q 1063 688 1017 785 q 1108 474 1108 590 q 1070 278 1108 367 q 961 124 1032 189 q 797 24 890 58 q 594 -11 704 -11 q 391 24 485 -11 q 226 124 297 58 q 117 278 156 189 q 79 474 79 367 q 125 688 79 590 q 256 851 171 785 l 25 851 l 25 972 l 464 972 l 464 860 q 281 699 343 799 q 218 481 218 599 q 246 331 218 399 q 324 215 274 264 q 442 139 374 165 q 594 113 511 113 q 745 139 676 113 q 864 215 814 165 q 942 331 914 264 q 969 481 969 399 q 907 700 969 600 q 724 860 844 800 l 724 972 l 1163 972 z "},"Ů":{"ha":1099,"x_min":138,"x_max":960,"o":"m 549 -11 q 247 99 357 -11 q 138 419 138 208 l 138 972 l 276 972 l 276 425 q 348 188 276 263 q 550 113 419 113 q 753 188 682 113 q 825 425 825 263 l 825 972 l 960 972 l 960 419 q 851 99 960 208 q 549 -11 742 -11 m 549 1032 q 471 1053 506 1032 q 416 1107 436 1074 q 396 1182 396 1140 q 416 1258 396 1224 q 471 1314 436 1293 q 549 1335 506 1335 q 628 1314 593 1335 q 683 1258 663 1293 q 703 1182 703 1224 q 683 1107 703 1140 q 628 1053 663 1074 q 549 1032 593 1032 m 549 1090 q 615 1117 589 1090 q 640 1182 640 1143 q 615 1249 640 1222 q 549 1275 589 1275 q 484 1249 510 1275 q 458 1182 458 1224 q 483 1117 458 1143 q 549 1090 508 1090 z "},"Ũ":{"ha":1099,"x_min":138,"x_max":960,"o":"m 549 -11 q 247 99 357 -11 q 138 419 138 208 l 138 972 l 276 972 l 276 425 q 348 188 276 263 q 550 113 419 113 q 753 188 682 113 q 825 425 825 263 l 825 972 l 960 972 l 960 419 q 851 99 960 208 q 549 -11 742 -11 m 658 1049 q 592 1064 621 1049 q 542 1099 564 1079 q 497 1133 519 1118 q 450 1149 475 1149 q 401 1122 419 1149 q 381 1057 382 1094 l 297 1057 q 338 1185 299 1133 q 442 1238 376 1238 q 509 1222 481 1238 q 560 1188 538 1207 q 604 1153 582 1168 q 651 1138 626 1138 q 700 1165 682 1138 q 719 1228 718 1192 l 801 1228 q 762 1101 800 1153 q 658 1049 724 1049 z "},"Ṹ":{"ha":1099,"x_min":138,"x_max":960,"o":"m 549 -11 q 247 99 357 -11 q 138 419 138 208 l 138 972 l 276 972 l 276 425 q 348 188 276 263 q 550 113 419 113 q 753 188 682 113 q 825 425 825 263 l 825 972 l 960 972 l 960 419 q 851 99 960 208 q 549 -11 742 -11 m 647 1058 q 588 1069 614 1058 q 540 1096 561 1081 q 499 1122 518 1111 q 460 1133 479 1133 q 413 1115 428 1133 q 396 1064 397 1097 l 321 1064 q 358 1169 322 1132 q 454 1207 394 1207 q 530 1188 499 1207 q 588 1151 561 1169 q 642 1132 615 1132 q 688 1150 672 1132 q 706 1200 704 1168 l 779 1200 q 742 1097 778 1135 q 647 1058 707 1058 m 454 1249 l 618 1406 l 769 1406 l 564 1249 l 454 1249 z "},"Ṵ":{"ha":1099,"x_min":138,"x_max":960,"o":"m 549 -11 q 247 99 357 -11 q 138 419 138 208 l 138 972 l 276 972 l 276 425 q 348 188 276 263 q 550 113 419 113 q 753 188 682 113 q 825 425 825 263 l 825 972 l 960 972 l 960 419 q 851 99 960 208 q 549 -11 742 -11 m 658 -268 q 592 -253 621 -268 q 542 -218 564 -237 q 497 -183 519 -199 q 450 -168 475 -168 q 401 -195 419 -168 q 381 -260 382 -222 l 297 -260 q 338 -131 299 -183 q 442 -79 376 -79 q 509 -94 481 -79 q 560 -129 538 -110 q 604 -164 582 -149 q 651 -179 626 -179 q 700 -152 682 -179 q 719 -89 718 -125 l 801 -89 q 762 -216 800 -164 q 658 -268 724 -268 z "},"V":{"ha":989,"x_min":-1,"x_max":990,"o":"m 426 0 l -1 972 l 149 972 l 542 75 l 456 75 l 851 972 l 990 972 l 564 0 l 426 0 z "},"Ɣ":{"ha":899,"x_min":-12,"x_max":919,"o":"m 447 -282 q 354 -259 396 -282 q 288 -197 313 -236 q 264 -107 264 -157 q 283 -15 264 -64 q 331 83 303 35 q 385 175 358 132 q 426 249 411 218 l 781 972 l 919 972 l 528 172 q 488 106 514 142 q 437 31 463 69 q 392 -44 411 -8 q 374 -108 374 -79 q 395 -158 374 -139 q 449 -178 417 -178 q 501 -158 479 -178 q 522 -108 522 -139 q 507 -49 522 -83 q 469 25 492 -14 q 422 103 446 64 q 383 175 399 142 l -12 972 l 138 972 l 489 249 q 528 176 504 219 q 576 85 551 133 q 616 -13 600 36 q 632 -106 632 -62 q 608 -195 632 -156 q 542 -258 583 -235 q 447 -282 500 -282 z "},"Ṿ":{"ha":989,"x_min":-1,"x_max":990,"o":"m 426 0 l -1 972 l 149 972 l 542 75 l 456 75 l 851 972 l 990 972 l 564 0 l 426 0 m 494 -267 q 436 -243 460 -267 q 413 -185 413 -219 q 436 -126 413 -150 q 494 -103 460 -103 q 553 -126 529 -103 q 576 -185 576 -150 q 553 -243 576 -219 q 494 -267 529 -267 z "},"Ʋ":{"ha":1086,"x_min":135,"x_max":960,"o":"m 546 -11 q 244 99 354 -11 q 135 419 135 208 l 135 972 l 274 972 l 274 425 q 345 188 274 263 q 547 113 417 113 q 751 188 679 113 q 822 425 822 263 l 822 757 q 801 834 822 806 q 748 872 781 863 q 677 872 715 881 q 603 836 639 863 l 556 939 q 682 991 613 979 q 815 983 751 1003 q 919 909 878 964 q 960 761 960 854 l 960 419 q 850 99 960 208 q 546 -11 740 -11 z "},"Ṽ":{"ha":989,"x_min":-1,"x_max":990,"o":"m 426 0 l -1 972 l 149 972 l 542 75 l 456 75 l 851 972 l 990 972 l 564 0 l 426 0 m 603 1049 q 537 1064 565 1049 q 486 1099 508 1079 q 442 1133 464 1118 q 394 1149 419 1149 q 345 1122 364 1149 q 325 1057 326 1094 l 242 1057 q 282 1185 243 1133 q 386 1238 321 1238 q 453 1222 425 1238 q 504 1188 482 1207 q 549 1153 526 1168 q 596 1138 571 1138 q 644 1165 626 1138 q 664 1228 663 1192 l 746 1228 q 706 1101 744 1153 q 603 1049 668 1049 z "},"Ʌ":{"ha":989,"x_min":-1,"x_max":990,"o":"m 563 972 l 990 0 l 840 0 l 447 897 l 533 897 l 138 0 l -1 0 l 425 972 l 563 972 z "},"W":{"ha":1564,"x_min":44,"x_max":1519,"o":"m 369 0 l 44 972 l 188 972 l 486 75 l 414 75 l 724 972 l 851 972 l 1154 75 l 1085 75 l 1388 972 l 1519 972 l 1194 0 l 1049 0 l 765 832 l 803 832 l 518 0 l 369 0 z "},"Ẃ":{"ha":1564,"x_min":44,"x_max":1519,"o":"m 369 0 l 44 972 l 188 972 l 486 75 l 414 75 l 724 972 l 851 972 l 1154 75 l 1085 75 l 1388 972 l 1519 972 l 1194 0 l 1049 0 l 765 832 l 803 832 l 518 0 l 369 0 m 679 1051 l 868 1232 l 1038 1232 l 804 1051 l 679 1051 z "},"Ŵ":{"ha":1564,"x_min":44,"x_max":1519,"o":"m 369 0 l 44 972 l 188 972 l 486 75 l 414 75 l 724 972 l 851 972 l 1154 75 l 1085 75 l 1388 972 l 1519 972 l 1194 0 l 1049 0 l 765 832 l 803 832 l 518 0 l 369 0 m 535 1051 l 719 1232 l 847 1232 l 1032 1051 l 911 1051 l 728 1204 l 839 1204 l 656 1051 l 535 1051 z "},"Ẅ":{"ha":1564,"x_min":44,"x_max":1519,"o":"m 369 0 l 44 972 l 188 972 l 486 75 l 414 75 l 724 972 l 851 972 l 1154 75 l 1085 75 l 1388 972 l 1519 972 l 1194 0 l 1049 0 l 765 832 l 803 832 l 518 0 l 369 0 m 913 1075 q 863 1095 883 1075 q 842 1146 842 1115 q 863 1198 842 1178 q 913 1218 883 1218 q 963 1198 942 1218 q 983 1146 983 1178 q 963 1095 983 1115 q 913 1075 942 1075 m 654 1075 q 604 1095 625 1075 q 583 1146 583 1115 q 604 1198 583 1178 q 654 1218 625 1218 q 704 1198 683 1218 q 725 1146 725 1178 q 704 1095 725 1115 q 654 1075 683 1075 z "},"Ẇ":{"ha":1564,"x_min":44,"x_max":1519,"o":"m 369 0 l 44 972 l 188 972 l 486 75 l 414 75 l 724 972 l 851 972 l 1154 75 l 1085 75 l 1388 972 l 1519 972 l 1194 0 l 1049 0 l 765 832 l 803 832 l 518 0 l 369 0 m 783 1076 q 725 1100 749 1076 q 701 1158 701 1124 q 725 1217 701 1193 q 783 1240 749 1240 q 842 1217 818 1240 q 865 1158 865 1193 q 842 1100 865 1124 q 783 1076 818 1076 z "},"Ẉ":{"ha":1564,"x_min":44,"x_max":1519,"o":"m 369 0 l 44 972 l 188 972 l 486 75 l 414 75 l 724 972 l 851 972 l 1154 75 l 1085 75 l 1388 972 l 1519 972 l 1194 0 l 1049 0 l 765 832 l 803 832 l 518 0 l 369 0 m 783 -267 q 725 -243 749 -267 q 701 -185 701 -219 q 725 -126 701 -150 q 783 -103 749 -103 q 842 -126 818 -103 q 865 -185 865 -150 q 842 -243 865 -219 q 783 -267 818 -267 z "},"Ẁ":{"ha":1564,"x_min":44,"x_max":1519,"o":"m 369 0 l 44 972 l 188 972 l 486 75 l 414 75 l 724 972 l 851 972 l 1154 75 l 1085 75 l 1388 972 l 1519 972 l 1194 0 l 1049 0 l 765 832 l 803 832 l 518 0 l 369 0 m 763 1051 l 529 1232 l 699 1232 l 888 1051 l 763 1051 z "},"Ⱳ":{"ha":1606,"x_min":44,"x_max":1669,"o":"m 369 0 l 44 972 l 188 972 l 486 75 l 414 75 l 724 972 l 851 972 l 1132 75 l 1065 75 l 1339 878 q 1398 979 1361 942 q 1481 1031 1435 1017 q 1576 1039 1526 1046 q 1669 1004 1625 1032 l 1614 903 q 1526 915 1572 928 q 1460 839 1481 901 l 1175 0 l 1026 0 l 765 832 l 803 832 l 518 0 l 369 0 z "},"X":{"ha":935,"x_min":18,"x_max":917,"o":"m 18 0 l 422 551 l 422 444 l 40 972 l 199 972 l 501 557 l 439 556 l 740 972 l 892 972 l 513 453 l 513 553 l 917 0 l 757 0 l 435 443 l 496 443 l 178 0 l 18 0 z "},"Ẍ":{"ha":935,"x_min":18,"x_max":917,"o":"m 18 0 l 422 551 l 422 444 l 40 972 l 199 972 l 501 557 l 439 556 l 740 972 l 892 972 l 513 453 l 513 553 l 917 0 l 757 0 l 435 443 l 496 443 l 178 0 l 18 0 m 597 1075 q 547 1095 568 1075 q 526 1146 526 1115 q 547 1198 526 1178 q 597 1218 568 1218 q 647 1198 626 1218 q 668 1146 668 1178 q 647 1095 668 1115 q 597 1075 626 1075 m 339 1075 q 289 1095 310 1075 q 268 1146 268 1115 q 289 1198 268 1178 q 339 1218 310 1218 q 389 1198 368 1218 q 410 1146 410 1178 q 389 1095 410 1115 q 339 1075 368 1075 z "},"Ẋ":{"ha":935,"x_min":18,"x_max":917,"o":"m 18 0 l 422 551 l 422 444 l 40 972 l 199 972 l 501 557 l 439 556 l 740 972 l 892 972 l 513 453 l 513 553 l 917 0 l 757 0 l 435 443 l 496 443 l 178 0 l 18 0 m 468 1076 q 410 1100 433 1076 q 386 1158 386 1124 q 410 1217 386 1193 q 468 1240 433 1240 q 526 1217 503 1240 q 550 1158 550 1193 q 526 1100 550 1124 q 468 1076 503 1076 z "},"Y":{"ha":899,"x_min":-6,"x_max":904,"o":"m 381 0 l 381 372 l 413 286 l -6 972 l 143 972 l 494 393 l 414 393 l 767 972 l 904 972 l 488 286 l 518 372 l 518 0 l 381 0 z "},"Ý":{"ha":899,"x_min":-6,"x_max":904,"o":"m 381 0 l 381 372 l 413 286 l -6 972 l 143 972 l 494 393 l 414 393 l 767 972 l 904 972 l 488 286 l 518 372 l 518 0 l 381 0 m 346 1051 l 535 1232 l 704 1232 l 471 1051 l 346 1051 z "},"Ŷ":{"ha":899,"x_min":-6,"x_max":904,"o":"m 381 0 l 381 372 l 413 286 l -6 972 l 143 972 l 494 393 l 414 393 l 767 972 l 904 972 l 488 286 l 518 372 l 518 0 l 381 0 m 201 1051 l 386 1232 l 514 1232 l 699 1051 l 578 1051 l 394 1204 l 506 1204 l 322 1051 l 201 1051 z "},"Ÿ":{"ha":899,"x_min":-6,"x_max":904,"o":"m 381 0 l 381 372 l 413 286 l -6 972 l 143 972 l 494 393 l 414 393 l 767 972 l 904 972 l 488 286 l 518 372 l 518 0 l 381 0 m 579 1075 q 529 1095 550 1075 q 508 1146 508 1115 q 529 1198 508 1178 q 579 1218 550 1218 q 629 1198 608 1218 q 650 1146 650 1178 q 629 1095 650 1115 q 579 1075 608 1075 m 321 1075 q 271 1095 292 1075 q 250 1146 250 1115 q 271 1198 250 1178 q 321 1218 292 1218 q 371 1198 350 1218 q 392 1146 392 1178 q 371 1095 392 1115 q 321 1075 350 1075 z "},"Ẏ":{"ha":899,"x_min":-6,"x_max":904,"o":"m 381 0 l 381 372 l 413 286 l -6 972 l 143 972 l 494 393 l 414 393 l 767 972 l 904 972 l 488 286 l 518 372 l 518 0 l 381 0 m 450 1076 q 392 1100 415 1076 q 368 1158 368 1124 q 392 1217 368 1193 q 450 1240 415 1240 q 508 1217 485 1240 q 532 1158 532 1193 q 508 1100 532 1124 q 450 1076 485 1076 z "},"Ỵ":{"ha":899,"x_min":-6,"x_max":904,"o":"m 381 0 l 381 372 l 413 286 l -6 972 l 143 972 l 494 393 l 414 393 l 767 972 l 904 972 l 488 286 l 518 372 l 518 0 l 381 0 m 450 -267 q 392 -243 415 -267 q 368 -185 368 -219 q 392 -126 368 -150 q 450 -103 415 -103 q 508 -126 485 -103 q 532 -185 532 -150 q 508 -243 532 -219 q 450 -267 485 -267 z "},"Ỳ":{"ha":899,"x_min":-6,"x_max":904,"o":"m 381 0 l 381 372 l 413 286 l -6 972 l 143 972 l 494 393 l 414 393 l 767 972 l 904 972 l 488 286 l 518 372 l 518 0 l 381 0 m 429 1051 l 196 1232 l 365 1232 l 554 1051 l 429 1051 z "},"Ƴ":{"ha":958,"x_min":-6,"x_max":1054,"o":"m 1054 993 l 988 899 q 909 921 954 926 q 829 858 864 915 l 488 286 l 518 372 l 518 0 l 381 0 l 381 372 l 413 286 l -6 972 l 143 972 l 494 393 l 414 393 l 731 919 q 831 1019 775 992 q 947 1039 888 1047 q 1054 993 1006 1031 z "},"Ỷ":{"ha":899,"x_min":-6,"x_max":904,"o":"m 381 0 l 381 372 l 413 286 l -6 972 l 143 972 l 494 393 l 414 393 l 767 972 l 904 972 l 488 286 l 518 372 l 518 0 l 381 0 m 456 1014 l 410 1068 q 469 1110 450 1088 q 488 1161 488 1133 q 468 1208 488 1190 q 415 1226 449 1226 q 332 1200 372 1226 l 301 1263 q 362 1292 328 1282 q 428 1301 396 1301 q 501 1285 469 1301 q 551 1241 533 1269 q 569 1172 569 1213 q 542 1081 569 1121 q 456 1014 514 1042 z "},"Ȳ":{"ha":899,"x_min":-6,"x_max":904,"o":"m 381 0 l 381 372 l 413 286 l -6 972 l 143 972 l 494 393 l 414 393 l 767 972 l 904 972 l 488 286 l 518 372 l 518 0 l 381 0 m 224 1100 l 224 1183 l 676 1183 l 676 1100 l 224 1100 z "},"Ʀ":{"ha":1010,"x_min":146,"x_max":947,"o":"m 222 196 l 222 314 l 521 314 q 723 372 654 314 q 792 533 792 429 q 723 696 792 639 q 521 753 654 753 l 222 753 l 222 872 l 525 872 q 822 783 714 872 q 931 533 931 693 q 882 353 931 429 q 743 237 833 278 q 525 196 653 196 l 222 196 m 146 0 l 146 972 l 285 972 l 285 0 l 146 0 m 796 -139 l 540 231 l 690 231 l 947 -139 l 796 -139 z "},"Ɏ":{"ha":901,"x_min":-8,"x_max":910,"o":"m 382 0 l 382 346 l 414 261 l -4 972 l 144 972 l 496 368 l 415 368 l 768 972 l 906 972 l 488 261 l 519 346 l 519 0 l 382 0 m -8 701 l -8 811 l 910 811 l 910 701 l -8 701 z "},"Ỹ":{"ha":899,"x_min":-6,"x_max":904,"o":"m 381 0 l 381 372 l 413 286 l -6 972 l 143 972 l 494 393 l 414 393 l 767 972 l 904 972 l 488 286 l 518 372 l 518 0 l 381 0 m 558 1049 q 492 1064 521 1049 q 442 1099 464 1079 q 397 1133 419 1118 q 350 1149 375 1149 q 301 1122 319 1149 q 281 1057 282 1094 l 197 1057 q 238 1185 199 1133 q 342 1238 276 1238 q 409 1222 381 1238 q 460 1188 438 1207 q 504 1153 482 1168 q 551 1138 526 1138 q 600 1165 582 1138 q 619 1228 618 1192 l 701 1228 q 662 1101 700 1153 q 558 1049 624 1049 z "},"Z":{"ha":913,"x_min":60,"x_max":872,"o":"m 60 0 l 60 94 l 714 906 l 729 851 l 69 851 l 69 972 l 854 972 l 854 878 l 203 67 l 186 121 l 872 121 l 872 0 l 60 0 z "},"Ź":{"ha":913,"x_min":60,"x_max":872,"o":"m 60 0 l 60 94 l 714 906 l 729 851 l 69 851 l 69 972 l 854 972 l 854 878 l 203 67 l 186 121 l 872 121 l 872 0 l 60 0 m 363 1051 l 551 1232 l 721 1232 l 488 1051 l 363 1051 z "},"Ž":{"ha":913,"x_min":60,"x_max":872,"o":"m 60 0 l 60 94 l 714 906 l 729 851 l 69 851 l 69 972 l 854 972 l 854 878 l 203 67 l 186 121 l 872 121 l 872 0 l 60 0 m 403 1051 l 218 1232 l 339 1232 l 522 1081 l 411 1081 l 594 1232 l 715 1232 l 531 1051 l 403 1051 z "},"Ẑ":{"ha":913,"x_min":60,"x_max":872,"o":"m 60 0 l 60 94 l 714 906 l 729 851 l 69 851 l 69 972 l 854 972 l 854 878 l 203 67 l 186 121 l 872 121 l 872 0 l 60 0 m 218 1051 l 403 1232 l 531 1232 l 715 1051 l 594 1051 l 411 1204 l 522 1204 l 339 1051 l 218 1051 z "},"Ż":{"ha":913,"x_min":60,"x_max":872,"o":"m 60 0 l 60 94 l 714 906 l 729 851 l 69 851 l 69 972 l 854 972 l 854 878 l 203 67 l 186 121 l 872 121 l 872 0 l 60 0 m 467 1076 q 408 1100 432 1076 q 385 1158 385 1124 q 408 1217 385 1193 q 467 1240 432 1240 q 525 1217 501 1240 q 549 1158 549 1193 q 525 1100 549 1124 q 467 1076 501 1076 z "},"Ẓ":{"ha":913,"x_min":60,"x_max":872,"o":"m 60 0 l 60 94 l 714 906 l 729 851 l 69 851 l 69 972 l 854 972 l 854 878 l 203 67 l 186 121 l 872 121 l 872 0 l 60 0 m 475 -267 q 417 -243 440 -267 q 393 -185 393 -219 q 417 -126 393 -150 q 475 -103 440 -103 q 533 -126 510 -103 q 557 -185 557 -150 q 533 -243 557 -219 q 475 -267 510 -267 z "},"Ẕ":{"ha":913,"x_min":60,"x_max":872,"o":"m 60 0 l 60 94 l 714 906 l 729 851 l 69 851 l 69 972 l 854 972 l 854 878 l 203 67 l 186 121 l 872 121 l 872 0 l 60 0 m 249 -228 l 249 -144 l 701 -144 l 701 -228 l 249 -228 z "},"Ƶ":{"ha":913,"x_min":60,"x_max":872,"o":"m 60 0 l 60 94 l 714 906 l 729 851 l 69 851 l 69 972 l 854 972 l 854 878 l 203 67 l 186 121 l 872 121 l 872 0 l 60 0 m 172 443 l 172 553 l 761 553 l 761 443 l 172 443 z "},"Ꞌ":{"ha":358,"x_min":111,"x_max":247,"o":"m 111 413 l 111 972 l 247 972 l 231 413 l 111 413 z "},"ɪ":{"ha":507,"x_min":51,"x_max":456,"o":"m 51 626 l 51 736 l 456 736 l 456 626 l 51 626 m 51 0 l 51 110 l 456 110 l 456 0 l 51 0 m 188 0 l 188 736 l 321 736 l 321 0 l 188 0 z "},"ᵻ":{"ha":558,"x_min":78,"x_max":481,"o":"m 78 626 l 78 736 l 481 736 l 481 626 l 78 626 m 78 0 l 78 110 l 481 110 l 481 0 l 78 0 m 213 0 l 213 736 l 346 736 l 346 0 l 213 0 m 79 329 l 79 424 l 479 424 l 479 329 l 79 329 z "},"ɴ":{"ha":919,"x_min":113,"x_max":808,"o":"m 113 0 l 113 736 l 224 736 l 731 165 l 675 165 l 675 736 l 808 736 l 808 0 l 697 0 l 190 571 l 246 571 l 246 0 l 113 0 z "},"ʀ":{"ha":843,"x_min":126,"x_max":794,"o":"m 126 0 l 126 736 l 446 736 q 691 667 601 736 q 781 475 781 597 q 740 336 781 394 q 625 247 700 278 q 446 217 550 217 l 201 217 l 260 276 l 260 0 l 126 0 m 649 0 l 447 267 l 590 267 l 794 0 l 649 0 m 260 263 l 201 328 l 440 328 q 594 367 542 328 q 646 475 646 406 q 594 585 646 546 q 440 624 542 624 l 201 624 l 260 688 l 260 263 z "},"ᵾ":{"ha":996,"x_min":15,"x_max":974,"o":"m 464 -8 q 297 26 368 -8 q 187 133 226 61 q 147 313 147 204 l 147 736 l 281 736 l 281 328 q 332 165 281 219 q 479 111 383 111 q 599 140 547 111 q 678 223 650 168 q 707 356 707 278 l 707 736 l 840 736 l 840 0 l 713 0 l 713 199 l 735 146 q 626 32 697 72 q 464 -8 554 -8 m 15 329 l 15 424 l 974 424 l 974 329 l 15 329 z "},"a":{"ha":831,"x_min":69,"x_max":710,"o":"m 583 0 l 583 156 l 576 185 l 576 450 q 527 581 576 535 q 379 628 478 628 q 251 606 314 628 q 146 549 189 585 l 90 649 q 227 719 147 694 q 394 743 307 743 q 628 669 546 743 q 710 444 710 596 l 710 0 l 583 0 m 342 -8 q 198 19 260 -8 q 103 97 136 47 q 69 208 69 146 q 98 317 69 268 q 191 394 126 365 q 365 424 256 424 l 599 424 l 599 328 l 371 328 q 236 294 271 328 q 201 214 201 261 q 244 127 201 160 q 364 94 288 94 q 495 128 439 94 q 576 225 551 161 l 603 133 q 510 30 576 68 q 342 -8 443 -8 z "},"á":{"ha":831,"x_min":69,"x_max":710,"o":"m 583 0 l 583 156 l 576 185 l 576 450 q 527 581 576 535 q 379 628 478 628 q 251 606 314 628 q 146 549 189 585 l 90 649 q 227 719 147 694 q 394 743 307 743 q 628 669 546 743 q 710 444 710 596 l 710 0 l 583 0 m 342 -8 q 198 19 260 -8 q 103 97 136 47 q 69 208 69 146 q 98 317 69 268 q 191 394 126 365 q 365 424 256 424 l 599 424 l 599 328 l 371 328 q 236 294 271 328 q 201 214 201 261 q 244 127 201 160 q 364 94 288 94 q 495 128 439 94 q 576 225 551 161 l 603 133 q 510 30 576 68 q 342 -8 443 -8 m 300 843 l 489 1024 l 658 1024 l 425 843 l 300 843 z "},"ă":{"ha":831,"x_min":69,"x_max":710,"o":"m 583 0 l 583 156 l 576 185 l 576 450 q 527 581 576 535 q 379 628 478 628 q 251 606 314 628 q 146 549 189 585 l 90 649 q 227 719 147 694 q 394 743 307 743 q 628 669 546 743 q 710 444 710 596 l 710 0 l 583 0 m 342 -8 q 198 19 260 -8 q 103 97 136 47 q 69 208 69 146 q 98 317 69 268 q 191 394 126 365 q 365 424 256 424 l 599 424 l 599 328 l 371 328 q 236 294 271 328 q 201 214 201 261 q 244 127 201 160 q 364 94 288 94 q 495 128 439 94 q 576 225 551 161 l 603 133 q 510 30 576 68 q 342 -8 443 -8 m 404 835 q 246 885 310 835 q 179 1024 182 936 l 269 1024 q 311 942 272 972 q 404 913 350 913 q 498 942 458 913 q 539 1024 538 972 l 629 1024 q 563 885 626 936 q 404 835 499 835 z "},"ắ":{"ha":831,"x_min":69,"x_max":710,"o":"m 583 0 l 583 156 l 576 185 l 576 450 q 527 581 576 535 q 379 628 478 628 q 251 606 314 628 q 146 549 189 585 l 90 649 q 227 719 147 694 q 394 743 307 743 q 628 669 546 743 q 710 444 710 596 l 710 0 l 583 0 m 342 -8 q 198 19 260 -8 q 103 97 136 47 q 69 208 69 146 q 98 317 69 268 q 191 394 126 365 q 365 424 256 424 l 599 424 l 599 328 l 371 328 q 236 294 271 328 q 201 214 201 261 q 244 127 201 160 q 364 94 288 94 q 495 128 439 94 q 576 225 551 161 l 603 133 q 510 30 576 68 q 342 -8 443 -8 m 404 849 q 249 888 311 849 q 179 996 188 926 l 268 996 q 311 942 274 963 q 404 922 349 922 q 497 942 460 922 q 540 996 535 963 l 629 996 q 559 888 621 926 q 404 849 497 849 m 308 1015 l 472 1172 l 624 1172 l 418 1015 l 308 1015 z "},"ặ":{"ha":831,"x_min":69,"x_max":710,"o":"m 583 0 l 583 156 l 576 185 l 576 450 q 527 581 576 535 q 379 628 478 628 q 251 606 314 628 q 146 549 189 585 l 90 649 q 227 719 147 694 q 394 743 307 743 q 628 669 546 743 q 710 444 710 596 l 710 0 l 583 0 m 342 -8 q 198 19 260 -8 q 103 97 136 47 q 69 208 69 146 q 98 317 69 268 q 191 394 126 365 q 365 424 256 424 l 599 424 l 599 328 l 371 328 q 236 294 271 328 q 201 214 201 261 q 244 127 201 160 q 364 94 288 94 q 495 128 439 94 q 576 225 551 161 l 603 133 q 510 30 576 68 q 342 -8 443 -8 m 401 -268 q 343 -244 367 -268 q 319 -186 319 -221 q 343 -128 319 -151 q 401 -104 367 -104 q 460 -128 436 -104 q 483 -186 483 -151 q 460 -244 483 -221 q 401 -268 436 -268 m 404 835 q 246 885 310 835 q 179 1024 182 936 l 269 1024 q 311 942 272 972 q 404 913 350 913 q 498 942 458 913 q 539 1024 538 972 l 629 1024 q 563 885 626 936 q 404 835 499 835 z "},"ằ":{"ha":831,"x_min":69,"x_max":710,"o":"m 583 0 l 583 156 l 576 185 l 576 450 q 527 581 576 535 q 379 628 478 628 q 251 606 314 628 q 146 549 189 585 l 90 649 q 227 719 147 694 q 394 743 307 743 q 628 669 546 743 q 710 444 710 596 l 710 0 l 583 0 m 342 -8 q 198 19 260 -8 q 103 97 136 47 q 69 208 69 146 q 98 317 69 268 q 191 394 126 365 q 365 424 256 424 l 599 424 l 599 328 l 371 328 q 236 294 271 328 q 201 214 201 261 q 244 127 201 160 q 364 94 288 94 q 495 128 439 94 q 576 225 551 161 l 603 133 q 510 30 576 68 q 342 -8 443 -8 m 404 849 q 249 888 311 849 q 179 996 188 926 l 268 996 q 311 942 274 963 q 404 922 349 922 q 497 942 460 922 q 540 996 535 963 l 629 996 q 559 888 621 926 q 404 849 497 849 m 392 1015 l 186 1172 l 338 1172 l 500 1015 l 392 1015 z "},"ẳ":{"ha":831,"x_min":69,"x_max":710,"o":"m 583 0 l 583 156 l 576 185 l 576 450 q 527 581 576 535 q 379 628 478 628 q 251 606 314 628 q 146 549 189 585 l 90 649 q 227 719 147 694 q 394 743 307 743 q 628 669 546 743 q 710 444 710 596 l 710 0 l 583 0 m 342 -8 q 198 19 260 -8 q 103 97 136 47 q 69 208 69 146 q 98 317 69 268 q 191 394 126 365 q 365 424 256 424 l 599 424 l 599 328 l 371 328 q 236 294 271 328 q 201 214 201 261 q 244 127 201 160 q 364 94 288 94 q 495 128 439 94 q 576 225 551 161 l 603 133 q 510 30 576 68 q 342 -8 443 -8 m 404 849 q 249 888 311 849 q 179 996 188 926 l 268 996 q 311 942 274 963 q 404 922 349 922 q 497 942 460 922 q 540 996 535 963 l 629 996 q 559 888 621 926 q 404 849 497 849 m 426 976 l 390 1017 q 432 1048 418 1031 q 446 1083 446 1065 q 431 1115 446 1103 q 393 1126 417 1126 q 333 1110 364 1126 l 308 1161 q 353 1181 328 1174 q 404 1188 379 1188 q 484 1160 456 1188 q 513 1090 513 1133 q 489 1022 513 1053 q 426 976 465 992 z "},"ẵ":{"ha":831,"x_min":69,"x_max":710,"o":"m 583 0 l 583 156 l 576 185 l 576 450 q 527 581 576 535 q 379 628 478 628 q 251 606 314 628 q 146 549 189 585 l 90 649 q 227 719 147 694 q 394 743 307 743 q 628 669 546 743 q 710 444 710 596 l 710 0 l 583 0 m 342 -8 q 198 19 260 -8 q 103 97 136 47 q 69 208 69 146 q 98 317 69 268 q 191 394 126 365 q 365 424 256 424 l 599 424 l 599 328 l 371 328 q 236 294 271 328 q 201 214 201 261 q 244 127 201 160 q 364 94 288 94 q 495 128 439 94 q 576 225 551 161 l 603 133 q 510 30 576 68 q 342 -8 443 -8 m 404 849 q 249 888 311 849 q 179 996 188 926 l 268 996 q 311 942 274 963 q 404 922 349 922 q 497 942 460 922 q 540 996 535 963 l 629 996 q 559 888 621 926 q 404 849 497 849 m 501 1050 q 442 1061 468 1050 q 394 1088 415 1072 q 353 1114 372 1103 q 314 1125 333 1125 q 267 1107 282 1125 q 250 1056 251 1089 l 175 1056 q 213 1161 176 1124 q 308 1199 249 1199 q 384 1180 353 1199 q 442 1142 415 1161 q 496 1124 469 1124 q 542 1142 526 1124 q 560 1192 558 1160 l 633 1192 q 597 1088 632 1126 q 501 1050 561 1050 z "},"ǎ":{"ha":831,"x_min":69,"x_max":710,"o":"m 583 0 l 583 156 l 576 185 l 576 450 q 527 581 576 535 q 379 628 478 628 q 251 606 314 628 q 146 549 189 585 l 90 649 q 227 719 147 694 q 394 743 307 743 q 628 669 546 743 q 710 444 710 596 l 710 0 l 583 0 m 342 -8 q 198 19 260 -8 q 103 97 136 47 q 69 208 69 146 q 98 317 69 268 q 191 394 126 365 q 365 424 256 424 l 599 424 l 599 328 l 371 328 q 236 294 271 328 q 201 214 201 261 q 244 127 201 160 q 364 94 288 94 q 495 128 439 94 q 576 225 551 161 l 603 133 q 510 30 576 68 q 342 -8 443 -8 m 340 843 l 156 1024 l 276 1024 l 460 872 l 349 872 l 532 1024 l 653 1024 l 468 843 l 340 843 z "},"â":{"ha":831,"x_min":69,"x_max":710,"o":"m 583 0 l 583 156 l 576 185 l 576 450 q 527 581 576 535 q 379 628 478 628 q 251 606 314 628 q 146 549 189 585 l 90 649 q 227 719 147 694 q 394 743 307 743 q 628 669 546 743 q 710 444 710 596 l 710 0 l 583 0 m 342 -8 q 198 19 260 -8 q 103 97 136 47 q 69 208 69 146 q 98 317 69 268 q 191 394 126 365 q 365 424 256 424 l 599 424 l 599 328 l 371 328 q 236 294 271 328 q 201 214 201 261 q 244 127 201 160 q 364 94 288 94 q 495 128 439 94 q 576 225 551 161 l 603 133 q 510 30 576 68 q 342 -8 443 -8 m 156 843 l 340 1024 l 468 1024 l 653 843 l 532 843 l 349 996 l 460 996 l 276 843 l 156 843 z "},"ấ":{"ha":831,"x_min":69,"x_max":857,"o":"m 583 0 l 583 156 l 576 185 l 576 450 q 527 581 576 535 q 379 628 478 628 q 251 606 314 628 q 146 549 189 585 l 90 649 q 227 719 147 694 q 394 743 307 743 q 628 669 546 743 q 710 444 710 596 l 710 0 l 583 0 m 342 -8 q 198 19 260 -8 q 103 97 136 47 q 69 208 69 146 q 98 317 69 268 q 191 394 126 365 q 365 424 256 424 l 599 424 l 599 328 l 371 328 q 236 294 271 328 q 201 214 201 261 q 244 127 201 160 q 364 94 288 94 q 495 128 439 94 q 576 225 551 161 l 603 133 q 510 30 576 68 q 342 -8 443 -8 m 156 843 l 342 982 l 467 982 l 653 843 l 531 843 l 349 956 l 460 956 l 278 843 l 156 843 m 542 965 l 706 1122 l 857 1122 l 651 965 l 542 965 z "},"ậ":{"ha":831,"x_min":69,"x_max":710,"o":"m 583 0 l 583 156 l 576 185 l 576 450 q 527 581 576 535 q 379 628 478 628 q 251 606 314 628 q 146 549 189 585 l 90 649 q 227 719 147 694 q 394 743 307 743 q 628 669 546 743 q 710 444 710 596 l 710 0 l 583 0 m 342 -8 q 198 19 260 -8 q 103 97 136 47 q 69 208 69 146 q 98 317 69 268 q 191 394 126 365 q 365 424 256 424 l 599 424 l 599 328 l 371 328 q 236 294 271 328 q 201 214 201 261 q 244 127 201 160 q 364 94 288 94 q 495 128 439 94 q 576 225 551 161 l 603 133 q 510 30 576 68 q 342 -8 443 -8 m 401 -268 q 343 -244 367 -268 q 319 -186 319 -221 q 343 -128 319 -151 q 401 -104 367 -104 q 460 -128 436 -104 q 483 -186 483 -151 q 460 -244 483 -221 q 401 -268 436 -268 m 156 843 l 340 1024 l 468 1024 l 653 843 l 532 843 l 349 996 l 460 996 l 276 843 l 156 843 z "},"ầ":{"ha":831,"x_min":69,"x_max":733,"o":"m 583 0 l 583 156 l 576 185 l 576 450 q 527 581 576 535 q 379 628 478 628 q 251 606 314 628 q 146 549 189 585 l 90 649 q 227 719 147 694 q 394 743 307 743 q 628 669 546 743 q 710 444 710 596 l 710 0 l 583 0 m 342 -8 q 198 19 260 -8 q 103 97 136 47 q 69 208 69 146 q 98 317 69 268 q 191 394 126 365 q 365 424 256 424 l 599 424 l 599 328 l 371 328 q 236 294 271 328 q 201 214 201 261 q 244 127 201 160 q 364 94 288 94 q 495 128 439 94 q 576 225 551 161 l 603 133 q 510 30 576 68 q 342 -8 443 -8 m 156 843 l 342 982 l 467 982 l 653 843 l 531 843 l 349 956 l 460 956 l 278 843 l 156 843 m 625 965 l 419 1122 l 571 1122 l 733 965 l 625 965 z "},"ẩ":{"ha":831,"x_min":69,"x_max":710,"o":"m 583 0 l 583 156 l 576 185 l 576 450 q 527 581 576 535 q 379 628 478 628 q 251 606 314 628 q 146 549 189 585 l 90 649 q 227 719 147 694 q 394 743 307 743 q 628 669 546 743 q 710 444 710 596 l 710 0 l 583 0 m 342 -8 q 198 19 260 -8 q 103 97 136 47 q 69 208 69 146 q 98 317 69 268 q 191 394 126 365 q 365 424 256 424 l 599 424 l 599 328 l 371 328 q 236 294 271 328 q 201 214 201 261 q 244 127 201 160 q 364 94 288 94 q 495 128 439 94 q 576 225 551 161 l 603 133 q 510 30 576 68 q 342 -8 443 -8 m 156 843 l 342 982 l 467 982 l 653 843 l 531 843 l 349 956 l 460 956 l 278 843 l 156 843 m 606 940 l 569 981 q 611 1012 597 994 q 625 1047 625 1029 q 610 1078 625 1067 q 572 1090 596 1090 q 513 1074 543 1090 l 488 1125 q 533 1144 507 1138 q 583 1151 558 1151 q 663 1124 635 1151 q 692 1054 692 1097 q 668 986 692 1017 q 606 940 644 956 z "},"ẫ":{"ha":831,"x_min":69,"x_max":710,"o":"m 583 0 l 583 156 l 576 185 l 576 450 q 527 581 576 535 q 379 628 478 628 q 251 606 314 628 q 146 549 189 585 l 90 649 q 227 719 147 694 q 394 743 307 743 q 628 669 546 743 q 710 444 710 596 l 710 0 l 583 0 m 342 -8 q 198 19 260 -8 q 103 97 136 47 q 69 208 69 146 q 98 317 69 268 q 191 394 126 365 q 365 424 256 424 l 599 424 l 599 328 l 371 328 q 236 294 271 328 q 201 214 201 261 q 244 127 201 160 q 364 94 288 94 q 495 128 439 94 q 576 225 551 161 l 603 133 q 510 30 576 68 q 342 -8 443 -8 m 156 843 l 342 982 l 467 982 l 653 843 l 531 843 l 349 956 l 460 956 l 278 843 l 156 843 m 501 1032 q 442 1043 468 1032 q 394 1069 415 1054 q 353 1096 372 1085 q 314 1107 333 1107 q 267 1089 282 1107 q 250 1038 251 1071 l 175 1038 q 213 1143 176 1106 q 308 1181 249 1181 q 384 1162 353 1181 q 442 1124 415 1143 q 496 1106 469 1106 q 542 1124 526 1106 q 560 1174 558 1142 l 633 1174 q 597 1070 632 1108 q 501 1032 561 1032 z "},"ȁ":{"ha":831,"x_min":69,"x_max":710,"o":"m 583 0 l 583 156 l 576 185 l 576 450 q 527 581 576 535 q 379 628 478 628 q 251 606 314 628 q 146 549 189 585 l 90 649 q 227 719 147 694 q 394 743 307 743 q 628 669 546 743 q 710 444 710 596 l 710 0 l 583 0 m 342 -8 q 198 19 260 -8 q 103 97 136 47 q 69 208 69 146 q 98 317 69 268 q 191 394 126 365 q 365 424 256 424 l 599 424 l 599 328 l 371 328 q 236 294 271 328 q 201 214 201 261 q 244 127 201 160 q 364 94 288 94 q 495 128 439 94 q 576 225 551 161 l 603 133 q 510 30 576 68 q 342 -8 443 -8 m 469 843 l 315 1024 l 457 1024 l 582 843 l 469 843 m 226 843 l 75 1024 l 215 1024 l 339 843 l 226 843 z "},"ä":{"ha":831,"x_min":69,"x_max":710,"o":"m 583 0 l 583 156 l 576 185 l 576 450 q 527 581 576 535 q 379 628 478 628 q 251 606 314 628 q 146 549 189 585 l 90 649 q 227 719 147 694 q 394 743 307 743 q 628 669 546 743 q 710 444 710 596 l 710 0 l 583 0 m 342 -8 q 198 19 260 -8 q 103 97 136 47 q 69 208 69 146 q 98 317 69 268 q 191 394 126 365 q 365 424 256 424 l 599 424 l 599 328 l 371 328 q 236 294 271 328 q 201 214 201 261 q 244 127 201 160 q 364 94 288 94 q 495 128 439 94 q 576 225 551 161 l 603 133 q 510 30 576 68 q 342 -8 443 -8 m 533 867 q 483 887 504 867 q 463 938 463 907 q 483 990 463 969 q 533 1010 504 1010 q 583 990 563 1010 q 604 938 604 969 q 583 887 604 907 q 533 867 563 867 m 275 867 q 225 887 246 867 q 204 938 204 907 q 225 990 204 969 q 275 1010 246 1010 q 325 990 304 1010 q 346 938 346 969 q 325 887 346 907 q 275 867 304 867 z "},"ǟ":{"ha":831,"x_min":69,"x_max":710,"o":"m 583 0 l 583 156 l 576 185 l 576 450 q 527 581 576 535 q 379 628 478 628 q 251 606 314 628 q 146 549 189 585 l 90 649 q 227 719 147 694 q 394 743 307 743 q 628 669 546 743 q 710 444 710 596 l 710 0 l 583 0 m 342 -8 q 198 19 260 -8 q 103 97 136 47 q 69 208 69 146 q 98 317 69 268 q 191 394 126 365 q 365 424 256 424 l 599 424 l 599 328 l 371 328 q 236 294 271 328 q 201 214 201 261 q 244 127 201 160 q 364 94 288 94 q 495 128 439 94 q 576 225 551 161 l 603 133 q 510 30 576 68 q 342 -8 443 -8 m 531 850 q 483 870 503 850 q 463 919 463 890 q 483 969 463 949 q 531 989 503 989 q 580 969 560 989 q 600 919 600 949 q 580 870 600 890 q 531 850 560 850 m 279 850 q 230 870 250 850 q 210 919 210 890 q 230 969 210 949 q 279 989 250 989 q 328 969 308 989 q 347 919 347 949 q 328 870 347 890 q 279 850 308 850 m 178 1082 l 178 1161 l 631 1161 l 631 1082 l 178 1082 z "},"ȧ":{"ha":831,"x_min":69,"x_max":710,"o":"m 583 0 l 583 156 l 576 185 l 576 450 q 527 581 576 535 q 379 628 478 628 q 251 606 314 628 q 146 549 189 585 l 90 649 q 227 719 147 694 q 394 743 307 743 q 628 669 546 743 q 710 444 710 596 l 710 0 l 583 0 m 342 -8 q 198 19 260 -8 q 103 97 136 47 q 69 208 69 146 q 98 317 69 268 q 191 394 126 365 q 365 424 256 424 l 599 424 l 599 328 l 371 328 q 236 294 271 328 q 201 214 201 261 q 244 127 201 160 q 364 94 288 94 q 495 128 439 94 q 576 225 551 161 l 603 133 q 510 30 576 68 q 342 -8 443 -8 m 404 868 q 346 892 369 868 q 322 950 322 915 q 346 1008 322 985 q 404 1032 369 1032 q 463 1008 439 1032 q 486 950 486 985 q 463 892 486 915 q 404 868 439 868 z "},"ạ":{"ha":831,"x_min":69,"x_max":710,"o":"m 583 0 l 583 156 l 576 185 l 576 450 q 527 581 576 535 q 379 628 478 628 q 251 606 314 628 q 146 549 189 585 l 90 649 q 227 719 147 694 q 394 743 307 743 q 628 669 546 743 q 710 444 710 596 l 710 0 l 583 0 m 342 -8 q 198 19 260 -8 q 103 97 136 47 q 69 208 69 146 q 98 317 69 268 q 191 394 126 365 q 365 424 256 424 l 599 424 l 599 328 l 371 328 q 236 294 271 328 q 201 214 201 261 q 244 127 201 160 q 364 94 288 94 q 495 128 439 94 q 576 225 551 161 l 603 133 q 510 30 576 68 q 342 -8 443 -8 m 401 -268 q 343 -244 367 -268 q 319 -186 319 -221 q 343 -128 319 -151 q 401 -104 367 -104 q 460 -128 436 -104 q 483 -186 483 -151 q 460 -244 483 -221 q 401 -268 436 -268 z "},"ǡ":{"ha":831,"x_min":69,"x_max":710,"o":"m 583 0 l 583 156 l 576 185 l 576 450 q 527 581 576 535 q 379 628 478 628 q 251 606 314 628 q 146 549 189 585 l 90 649 q 227 719 147 694 q 394 743 307 743 q 628 669 546 743 q 710 444 710 596 l 710 0 l 583 0 m 342 -8 q 198 19 260 -8 q 103 97 136 47 q 69 208 69 146 q 98 317 69 268 q 191 394 126 365 q 365 424 256 424 l 599 424 l 599 328 l 371 328 q 236 294 271 328 q 201 214 201 261 q 244 127 201 160 q 364 94 288 94 q 495 128 439 94 q 576 225 551 161 l 603 133 q 510 30 576 68 q 342 -8 443 -8 m 404 858 q 354 878 375 858 q 333 931 333 899 q 354 981 333 961 q 404 1001 375 1001 q 454 981 433 1001 q 475 931 475 961 q 454 878 475 899 q 404 858 433 858 m 178 1082 l 178 1161 l 631 1161 l 631 1082 l 178 1082 z "},"à":{"ha":831,"x_min":69,"x_max":710,"o":"m 583 0 l 583 156 l 576 185 l 576 450 q 527 581 576 535 q 379 628 478 628 q 251 606 314 628 q 146 549 189 585 l 90 649 q 227 719 147 694 q 394 743 307 743 q 628 669 546 743 q 710 444 710 596 l 710 0 l 583 0 m 342 -8 q 198 19 260 -8 q 103 97 136 47 q 69 208 69 146 q 98 317 69 268 q 191 394 126 365 q 365 424 256 424 l 599 424 l 599 328 l 371 328 q 236 294 271 328 q 201 214 201 261 q 244 127 201 160 q 364 94 288 94 q 495 128 439 94 q 576 225 551 161 l 603 133 q 510 30 576 68 q 342 -8 443 -8 m 383 843 l 150 1024 l 319 1024 l 508 843 l 383 843 z "},"ả":{"ha":831,"x_min":69,"x_max":710,"o":"m 583 0 l 583 156 l 576 185 l 576 450 q 527 581 576 535 q 379 628 478 628 q 251 606 314 628 q 146 549 189 585 l 90 649 q 227 719 147 694 q 394 743 307 743 q 628 669 546 743 q 710 444 710 596 l 710 0 l 583 0 m 342 -8 q 198 19 260 -8 q 103 97 136 47 q 69 208 69 146 q 98 317 69 268 q 191 394 126 365 q 365 424 256 424 l 599 424 l 599 328 l 371 328 q 236 294 271 328 q 201 214 201 261 q 244 127 201 160 q 364 94 288 94 q 495 128 439 94 q 576 225 551 161 l 603 133 q 510 30 576 68 q 342 -8 443 -8 m 417 817 l 371 871 q 430 913 411 890 q 449 964 449 936 q 429 1011 449 993 q 376 1029 410 1029 q 293 1003 333 1029 l 263 1065 q 323 1094 289 1085 q 389 1104 357 1104 q 463 1088 431 1104 q 513 1044 494 1072 q 531 975 531 1015 q 503 884 531 924 q 417 817 475 844 z "},"ȃ":{"ha":831,"x_min":69,"x_max":710,"o":"m 583 0 l 583 156 l 576 185 l 576 450 q 527 581 576 535 q 379 628 478 628 q 251 606 314 628 q 146 549 189 585 l 90 649 q 227 719 147 694 q 394 743 307 743 q 628 669 546 743 q 710 444 710 596 l 710 0 l 583 0 m 342 -8 q 198 19 260 -8 q 103 97 136 47 q 69 208 69 146 q 98 317 69 268 q 191 394 126 365 q 365 424 256 424 l 599 424 l 599 328 l 371 328 q 236 294 271 328 q 201 214 201 261 q 244 127 201 160 q 364 94 288 94 q 495 128 439 94 q 576 225 551 161 l 603 133 q 510 30 576 68 q 342 -8 443 -8 m 179 843 q 246 981 182 931 q 404 1032 310 1032 q 563 981 499 1032 q 629 843 626 931 l 539 843 q 498 924 538 894 q 404 954 458 954 q 311 924 350 954 q 269 843 272 894 l 179 843 z "},"ɑ":{"ha":947,"x_min":58,"x_max":821,"o":"m 431 -8 q 240 39 324 -8 q 107 171 156 86 q 58 368 58 256 q 107 565 58 481 q 240 696 156 649 q 431 743 324 743 q 599 701 524 743 q 719 576 674 660 q 764 368 764 493 q 720 160 764 243 q 601 34 676 76 q 431 -8 526 -8 m 442 108 q 567 140 511 108 q 656 231 624 172 q 689 368 689 290 q 656 505 689 447 q 567 594 624 563 q 442 626 511 626 q 315 594 371 626 q 226 505 260 563 q 193 368 193 447 q 226 231 193 290 q 315 140 260 172 q 442 108 371 108 m 693 0 l 693 199 l 701 369 l 688 540 l 688 736 l 821 736 l 821 0 l 693 0 z "},"ā":{"ha":831,"x_min":69,"x_max":710,"o":"m 583 0 l 583 156 l 576 185 l 576 450 q 527 581 576 535 q 379 628 478 628 q 251 606 314 628 q 146 549 189 585 l 90 649 q 227 719 147 694 q 394 743 307 743 q 628 669 546 743 q 710 444 710 596 l 710 0 l 583 0 m 342 -8 q 198 19 260 -8 q 103 97 136 47 q 69 208 69 146 q 98 317 69 268 q 191 394 126 365 q 365 424 256 424 l 599 424 l 599 328 l 371 328 q 236 294 271 328 q 201 214 201 261 q 244 127 201 160 q 364 94 288 94 q 495 128 439 94 q 576 225 551 161 l 603 133 q 510 30 576 68 q 342 -8 443 -8 m 178 892 l 178 975 l 631 975 l 631 892 l 178 892 z "},"ą":{"ha":831,"x_min":69,"x_max":742,"o":"m 583 0 l 583 156 l 576 185 l 576 450 q 527 581 576 535 q 379 628 478 628 q 251 606 314 628 q 146 549 189 585 l 90 649 q 227 719 147 694 q 394 743 307 743 q 628 669 546 743 q 710 444 710 596 l 710 0 l 583 0 m 342 -8 q 198 19 260 -8 q 103 97 136 47 q 69 208 69 146 q 98 317 69 268 q 191 394 126 365 q 365 424 256 424 l 599 424 l 599 328 l 371 328 q 236 294 271 328 q 201 214 201 261 q 244 127 201 160 q 364 94 288 94 q 495 128 439 94 q 576 225 551 161 l 603 133 q 510 30 576 68 q 342 -8 443 -8 m 615 -311 q 493 -272 538 -311 q 449 -171 449 -233 q 467 -96 449 -133 q 531 -22 486 -58 q 647 44 575 14 l 710 0 q 613 -54 649 -28 q 560 -107 576 -81 q 544 -161 544 -133 q 569 -215 544 -196 q 629 -233 593 -233 q 676 -226 653 -233 q 715 -210 699 -219 l 740 -278 q 683 -302 715 -293 q 615 -311 650 -311 z "},"ẚ":{"ha":831,"x_min":69,"x_max":710,"o":"m 583 0 l 583 156 l 576 185 l 576 450 q 527 581 576 535 q 379 628 478 628 q 251 606 314 628 q 146 549 189 585 l 90 649 q 227 719 147 694 q 394 743 307 743 q 628 669 546 743 q 710 444 710 596 l 710 0 l 583 0 m 342 -8 q 198 19 260 -8 q 103 97 136 47 q 69 208 69 146 q 98 317 69 268 q 191 394 126 365 q 365 424 256 424 l 599 424 l 599 328 l 371 328 q 236 294 271 328 q 201 214 201 261 q 244 127 201 160 q 364 94 288 94 q 495 128 439 94 q 576 225 551 161 l 603 133 q 510 30 576 68 q 342 -8 443 -8 m 351 825 l 351 886 q 417 912 392 886 q 443 975 443 938 q 417 1041 443 1015 q 351 1067 392 1067 l 351 1128 q 432 1107 397 1128 q 487 1051 467 1086 q 507 975 507 1017 q 487 900 507 933 q 432 846 467 867 q 351 825 397 825 z "},"å":{"ha":831,"x_min":69,"x_max":710,"o":"m 583 0 l 583 156 l 576 185 l 576 450 q 527 581 576 535 q 379 628 478 628 q 251 606 314 628 q 146 549 189 585 l 90 649 q 227 719 147 694 q 394 743 307 743 q 628 669 546 743 q 710 444 710 596 l 710 0 l 583 0 m 342 -8 q 198 19 260 -8 q 103 97 136 47 q 69 208 69 146 q 98 317 69 268 q 191 394 126 365 q 365 424 256 424 l 599 424 l 599 328 l 371 328 q 236 294 271 328 q 201 214 201 261 q 244 127 201 160 q 364 94 288 94 q 495 128 439 94 q 576 225 551 161 l 603 133 q 510 30 576 68 q 342 -8 443 -8 m 403 825 q 325 846 360 825 q 270 900 290 867 q 250 975 250 933 q 270 1051 250 1017 q 325 1107 290 1086 q 403 1128 360 1128 q 482 1107 447 1128 q 537 1051 517 1086 q 557 975 557 1017 q 537 900 557 933 q 482 846 517 867 q 403 825 447 825 m 403 883 q 469 910 443 883 q 494 975 494 936 q 469 1042 494 1015 q 403 1068 443 1068 q 338 1042 364 1068 q 313 975 313 1017 q 338 910 313 936 q 403 883 363 883 z "},"ǻ":{"ha":831,"x_min":69,"x_max":710,"o":"m 583 0 l 583 156 l 576 185 l 576 450 q 527 581 576 535 q 379 628 478 628 q 251 606 314 628 q 146 549 189 585 l 90 649 q 227 719 147 694 q 394 743 307 743 q 628 669 546 743 q 710 444 710 596 l 710 0 l 583 0 m 342 -8 q 198 19 260 -8 q 103 97 136 47 q 69 208 69 146 q 98 317 69 268 q 191 394 126 365 q 365 424 256 424 l 599 424 l 599 328 l 371 328 q 236 294 271 328 q 201 214 201 261 q 244 127 201 160 q 364 94 288 94 q 495 128 439 94 q 576 225 551 161 l 603 133 q 510 30 576 68 q 342 -8 443 -8 m 403 825 q 325 846 360 825 q 270 900 290 867 q 250 975 250 933 q 270 1051 250 1017 q 325 1107 290 1086 q 403 1128 360 1128 q 482 1107 447 1128 q 537 1051 517 1086 q 557 975 557 1017 q 537 900 557 933 q 482 846 517 867 q 403 825 447 825 m 403 883 q 469 910 443 883 q 494 975 494 936 q 469 1042 494 1015 q 403 1068 443 1068 q 338 1042 364 1068 q 313 975 313 1017 q 338 910 313 936 q 403 883 363 883 m 517 1051 l 446 1076 l 594 1226 l 664 1169 l 517 1051 z "}}}
